{"glyphs":{"0":{"ha":1038,"x_min":47,"x_max":990,"o":"m 990 315 q 983 563 983 433 q 990 813 983 690 l 990 315 m 950 344 l 939 333 l 944 333 l 944 190 l 939 190 l 933 932 q 942 854 935 925 q 950 772 950 783 l 950 344 m 910 401 l 899 390 l 899 213 q 886 167 886 197 q 888 117 886 113 l 882 1007 q 891 894 882 969 q 900 779 900 818 q 899 739 900 758 l 910 726 l 910 401 m 858 236 q 847 176 846 218 q 836 117 849 133 l 842 117 l 842 76 l 836 76 l 831 1047 q 864 550 864 847 q 858 236 864 438 m 807 156 q 796 110 794 144 q 785 65 797 76 l 785 36 q 778 160 778 78 q 774 282 779 242 l 761 271 l 763 243 q 756 93 758 193 q 744 58 747 85 q 728 25 740 32 q 728 115 728 17 q 722 179 728 151 q 710 131 708 167 q 699 82 711 94 l 704 58 q 691 30 697 51 q 676 1 685 8 q 676 61 676 -3 q 664 104 676 92 q 659 73 658 97 q 647 42 660 49 q 653 32 653 38 q 631 1 653 17 l 619 65 q 601 28 615 60 q 574 1 592 4 l 568 31 q 555 17 557 32 q 544 1 553 3 q 525 14 538 14 q 507 9 519 14 q 490 4 494 4 q 476 31 478 4 l 465 19 l 465 1 l 458 1 q 425 53 435 0 q 413 44 415 51 q 413 24 411 36 q 414 7 414 7 l 414 1 l 407 0 q 396 15 399 0 q 385 31 393 29 q 374 93 379 72 l 368 93 q 363 1 361 76 q 346 31 360 6 q 336 61 336 49 q 339 76 336 69 q 328 117 326 86 q 317 156 329 149 l 311 14 q 294 47 297 19 q 282 82 292 74 q 282 107 279 92 q 285 132 285 128 q 276 150 285 143 q 278 201 276 146 q 264 247 278 235 l 258 36 q 236 213 236 108 q 218 464 236 368 l 213 464 l 207 65 q 172 582 172 272 q 179 910 172 694 q 190 1007 192 925 q 203 1029 203 1010 q 201 1058 203 1064 q 208 857 208 990 q 213 658 207 724 l 218 658 q 224 797 224 688 q 242 1001 224 943 l 239 1018 q 247 1047 239 1029 q 254 1075 254 1065 q 253 1086 254 1081 q 259 981 260 1051 q 264 875 258 910 l 269 875 q 276 914 276 875 l 275 939 q 288 990 275 974 q 282 1042 276 1004 q 294 1078 290 1049 q 311 1110 297 1103 l 310 1031 q 317 967 310 996 l 322 967 q 356 1121 326 1050 l 368 1029 q 379 1061 379 1033 q 390 1086 379 1081 l 401 1121 l 414 1121 q 413 1088 413 1126 q 425 1069 413 1072 q 435 1099 433 1094 q 453 1121 442 1114 l 465 1121 l 471 1093 q 483 1106 481 1092 q 493 1121 485 1119 q 513 1108 500 1108 q 530 1113 518 1108 q 547 1118 542 1118 q 561 1093 560 1118 l 574 1104 l 574 1121 q 619 1058 593 1124 q 625 1121 625 1068 l 653 1093 q 658 1024 661 1050 l 671 1018 l 676 1121 q 691 1092 685 1114 q 704 1064 697 1071 l 699 1042 q 710 992 713 1028 q 722 944 708 957 q 728 1011 728 971 q 726 1081 728 1097 l 728 1099 q 743 1067 739 1092 q 756 1035 747 1043 l 761 853 l 774 842 l 779 1086 q 814 803 814 990 q 807 156 814 782 m 157 124 q 150 104 157 108 q 151 150 150 101 q 139 190 151 176 l 139 339 l 128 350 l 128 772 l 139 785 l 139 932 q 151 974 151 946 q 150 1018 150 1021 q 154 571 150 938 q 157 124 157 296 m 104 179 q 99 249 97 199 q 88 315 100 293 l 88 807 q 94 837 88 815 q 100 869 100 858 q 99 907 100 878 q 99 944 99 929 q 104 179 104 189 m 53 282 l 47 842 q 53 282 53 283 m 785 458 q 785 482 785 482 l 785 458 m 733 271 l 728 853 l 733 271 m 693 293 q 693 457 692 357 q 694 621 694 597 q 676 904 694 794 l 682 219 q 681 258 681 210 q 693 293 681 282 m 653 322 q 653 807 640 565 q 642 875 642 819 q 625 915 642 908 l 625 213 q 642 281 642 224 q 653 322 642 308 m 607 344 l 607 772 q 597 847 593 793 q 585 915 600 897 l 574 904 q 574 814 574 908 q 568 739 574 768 l 556 750 q 557 840 557 743 q 544 915 557 888 l 533 915 q 531 886 532 901 q 517 864 529 871 q 504 896 504 867 q 493 915 504 911 l 493 893 q 482 840 481 876 q 476 785 482 799 l 471 785 q 465 851 464 801 q 453 915 465 896 q 442 864 440 901 q 431 813 443 826 l 431 315 q 442 262 443 301 q 453 207 440 222 q 465 275 467 229 q 471 344 464 326 q 482 303 482 329 q 481 257 482 281 l 482 242 q 493 207 490 238 q 505 233 506 213 q 510 258 504 253 q 531 234 528 257 q 544 207 535 211 q 550 272 544 229 q 556 336 556 315 q 561 385 556 367 l 568 385 q 572 282 572 364 q 585 207 572 232 q 590 228 590 211 q 601 247 590 244 q 594 299 594 276 q 607 344 594 328 m 414 213 l 414 915 q 396 872 394 904 q 390 824 396 835 l 396 225 q 411 213 403 213 l 414 213 m 363 219 l 356 904 q 357 874 357 907 q 344 847 357 854 q 344 519 344 683 q 363 219 347 250 m 311 264 l 304 675 l 293 664 l 293 458 l 304 447 l 311 264 m 258 407 l 253 739 l 258 407 z "},"1":{"ha":683,"x_min":47,"x_max":636,"o":"m 214 915 q 201 910 211 910 l 196 910 l 185 921 l 185 1099 q 203 1110 192 1110 q 214 1104 210 1110 q 207 1010 207 1060 q 214 915 207 960 m 636 36 l 631 1086 l 636 36 m 157 910 q 145 947 144 918 q 133 983 146 975 q 131 1003 131 993 q 140 1041 131 1017 q 149 1079 149 1065 q 144 1099 149 1089 l 157 1110 q 163 1010 163 1063 q 157 910 163 957 m 590 1075 l 579 1099 l 574 1104 l 579 1110 q 590 1075 590 1075 m 106 910 q 106 931 106 907 q 93 950 106 946 q 93 1014 93 942 q 106 1069 93 1050 q 106 1090 106 1068 q 100 1104 106 1100 l 106 1110 l 106 910 m 550 53 q 539 29 539 51 q 528 1 539 7 l 528 1110 l 539 1110 q 539 1081 539 1111 q 550 1058 539 1064 l 550 53 m 60 944 l 54 944 q 47 1013 47 975 q 54 1081 47 1050 l 60 944 m 511 88 q 499 44 497 76 q 488 1 500 13 q 476 25 476 25 l 476 1110 l 499 1099 q 499 1061 499 1101 q 511 1035 499 1043 l 511 88 m 460 14 l 447 7 l 447 1 l 431 19 q 436 883 436 911 q 425 910 436 904 l 414 899 q 418 471 414 796 q 421 44 421 204 q 413 26 421 36 q 406 10 406 15 q 408 1 406 6 q 390 26 392 6 q 390 60 390 18 q 387 480 390 199 q 383 900 383 761 q 374 910 383 906 l 363 899 l 363 1 q 351 31 351 1 q 339 58 351 53 l 339 904 l 322 910 l 311 1 q 311 29 311 -3 q 299 47 311 43 l 299 904 l 293 903 q 280 915 286 903 q 269 926 274 926 q 260 921 265 926 l 265 58 l 271 58 l 271 36 l 265 36 l 260 899 q 222 975 222 917 q 225 1031 222 986 q 225 1086 226 1064 q 236 1100 229 1089 q 249 1111 243 1111 l 260 1110 l 271 1093 l 282 1110 l 408 1110 l 414 1093 l 425 1099 l 425 1110 l 432 1110 q 460 1099 460 1111 l 460 14 z "},"2":{"ha":985,"x_min":47,"x_max":938,"o":"m 886 653 l 881 956 q 886 653 886 658 m 847 675 q 835 628 835 658 q 836 576 835 603 l 835 561 q 829 788 829 669 q 835 1018 829 907 q 835 971 835 1025 q 847 932 835 946 l 847 675 m 807 704 l 801 704 q 795 634 794 685 q 783 561 796 583 l 789 561 l 789 488 l 783 488 l 778 1058 q 783 1069 778 1058 q 783 1033 783 1074 q 796 1007 783 1015 q 794 949 794 1014 q 807 899 794 915 l 807 704 m 756 596 q 744 541 743 581 q 732 488 744 501 l 738 488 l 738 425 l 732 425 l 726 1086 q 751 983 742 1075 q 760 867 760 914 q 756 732 760 840 q 756 596 753 647 m 207 715 q 195 693 194 711 q 190 669 196 675 q 172 771 172 714 q 181 896 172 813 q 189 1022 189 979 q 198 1051 189 1032 q 207 1081 207 1071 l 207 715 m 938 36 q 932 103 932 64 q 938 174 932 142 l 938 36 m 756 201 q 763 97 763 133 q 750 1 763 40 l 743 0 q 721 25 728 0 l 704 1 l 275 1 l 269 14 q 242 0 256 0 q 224 31 225 0 q 213 65 224 61 q 207 1 206 54 l 185 1 l 186 22 q 172 47 186 42 q 172 106 172 43 q 185 161 171 142 l 190 293 q 201 367 203 304 l 213 133 l 218 133 q 239 281 235 186 q 253 431 244 389 q 259 318 260 393 q 264 207 258 243 l 269 207 q 282 310 271 242 q 293 413 293 378 q 310 493 301 419 q 310 367 310 506 q 315 264 310 306 l 321 264 q 332 344 322 297 q 350 425 349 418 q 344 449 343 432 l 344 476 q 356 561 357 489 l 367 328 l 372 328 q 383 406 374 358 q 401 482 400 476 q 394 514 394 497 q 402 558 394 529 q 410 603 410 588 q 407 624 410 614 l 418 390 l 424 390 q 440 499 432 444 q 447 607 449 563 q 460 660 460 626 q 458 715 458 721 q 465 578 465 669 q 469 442 464 486 l 475 442 q 500 622 478 474 q 513 804 517 733 l 510 875 l 499 888 l 504 910 l 493 921 q 476 890 476 917 q 464 858 475 864 q 460 896 460 863 q 442 921 460 917 q 424 844 424 893 q 425 765 424 804 l 424 739 l 418 904 l 401 921 q 383 868 385 904 q 385 810 385 921 q 372 756 385 776 l 372 675 q 367 799 367 717 q 361 921 368 881 q 339 875 339 906 q 342 844 339 865 q 344 814 344 824 q 334 743 344 807 q 321 675 324 679 l 310 910 l 304 910 q 292 793 304 871 q 282 675 281 715 l 264 688 q 264 776 264 678 q 258 847 264 819 l 253 847 q 247 768 246 826 q 236 693 249 718 l 242 675 l 231 675 l 224 950 q 239 1022 224 969 q 253 1099 254 1075 q 259 1024 260 1074 q 264 950 258 974 l 269 950 q 304 1110 274 1035 l 315 1007 q 333 1060 326 1010 q 361 1121 340 1110 q 361 1082 361 1126 q 372 1053 361 1058 q 383 1094 379 1085 q 413 1121 393 1117 l 418 1081 q 431 1102 428 1083 q 446 1121 433 1121 q 475 1104 456 1121 l 481 1121 l 485 1122 q 501 1113 492 1122 q 517 1104 510 1104 q 521 1121 522 1104 l 528 1121 q 561 1069 551 1122 q 573 1094 574 1072 q 578 1121 572 1115 q 604 1079 600 1113 q 618 1029 608 1040 q 624 1121 625 1047 l 642 1110 l 640 1104 q 653 1075 640 1082 q 658 1014 658 1063 q 669 967 658 983 l 675 1110 q 710 933 710 1050 q 704 510 710 582 q 693 436 690 499 l 686 436 l 681 356 q 675 493 675 401 q 669 631 675 585 l 664 631 l 653 447 l 647 447 l 647 442 q 638 378 647 419 q 628 315 628 336 q 629 293 628 304 q 624 417 622 335 q 618 539 625 499 l 607 528 l 601 390 q 590 347 589 379 q 578 304 590 315 l 578 231 l 567 464 l 561 464 l 550 328 q 538 285 538 317 q 526 242 539 253 l 525 228 q 601 196 522 196 q 664 199 625 196 q 710 201 703 201 l 715 185 q 726 191 721 185 q 726 201 731 197 l 756 201 m 150 669 q 139 701 139 672 q 128 721 139 717 q 133 793 133 754 q 128 864 133 831 q 139 930 140 883 q 150 996 138 976 l 150 1047 q 157 860 157 958 q 150 669 157 761 m 899 53 q 886 32 886 50 q 886 1 886 0 l 881 190 q 899 125 899 171 q 899 53 899 46 m 847 38 q 835 1 847 14 l 829 201 q 847 167 847 194 q 847 149 847 161 q 846 129 846 135 q 847 117 846 122 q 857 106 857 113 q 852 92 857 100 q 847 82 847 85 q 847 38 847 85 m 104 675 q 86 775 86 710 q 88 899 86 913 q 99 939 99 913 q 99 982 99 960 l 99 996 q 104 867 104 940 l 104 835 q 104 675 104 660 m 807 19 q 798 10 806 18 q 783 1 790 1 l 778 201 l 781 201 l 783 201 q 807 190 799 201 l 807 19 m 53 693 l 47 921 q 53 693 53 704 m 156 1 l 149 1 q 139 25 139 1 q 128 42 139 39 q 133 99 133 68 q 128 156 133 131 q 139 204 140 168 q 150 253 138 240 l 150 315 q 156 190 156 261 l 156 156 q 156 1 156 -12 m 104 1 q 86 78 86 24 q 88 179 86 190 q 99 208 99 189 q 99 243 99 225 l 99 253 l 104 1 m 53 14 l 53 36 q 53 14 53 36 m 681 756 l 675 829 l 681 756 m 629 653 l 624 904 l 629 653 m 590 664 q 590 797 590 647 q 578 915 590 871 q 572 747 572 833 q 578 579 572 660 q 578 625 578 572 q 590 664 578 651 m 550 688 q 551 811 551 672 q 532 915 551 878 l 521 904 q 521 724 521 921 l 521 664 q 526 521 521 588 l 532 521 l 532 585 l 526 585 q 538 636 539 599 q 550 688 538 674 m 510 207 q 517 304 517 251 q 510 396 517 356 l 504 264 q 492 240 492 257 q 493 207 492 203 l 510 207 m 464 339 q 459 299 458 329 q 447 258 460 269 q 453 244 453 253 q 451 232 453 240 q 449 218 449 224 q 458 207 449 210 q 464 260 464 229 l 464 274 q 464 339 464 344 m 413 207 l 413 276 q 406 242 406 261 q 413 207 406 222 z "},"3":{"ha":985,"x_min":47,"x_max":938,"o":"m 886 704 l 881 967 l 886 704 m 847 726 q 835 692 835 715 q 836 653 835 672 l 835 642 l 829 1024 q 847 889 847 975 q 847 726 847 708 m 814 328 q 801 271 814 292 l 801 232 q 783 47 803 144 l 778 1069 q 801 797 801 940 q 796 658 801 726 q 783 628 783 649 l 783 590 l 796 579 q 801 469 801 550 q 808 399 801 446 q 814 328 814 351 m 938 201 l 932 469 q 938 201 938 204 m 899 225 q 886 185 886 211 q 888 140 886 163 l 886 128 l 881 544 q 899 397 899 489 q 899 225 899 204 m 835 76 l 829 585 q 854 338 854 481 q 835 76 854 208 m 207 793 q 201 783 207 789 q 194 774 194 778 q 196 767 194 769 q 178 858 178 797 q 179 972 178 986 q 190 1010 190 982 q 201 1047 189 1038 l 201 1081 q 207 793 207 793 m 761 168 q 750 125 749 157 q 738 82 751 93 l 744 58 q 732 25 729 51 q 726 102 725 50 q 721 179 728 154 l 715 179 q 710 146 708 179 l 710 104 q 693 64 701 101 q 681 14 682 17 l 669 117 q 624 1 656 72 q 625 42 625 -4 q 613 76 625 65 q 603 32 607 42 q 572 1 593 7 l 567 42 l 544 1 l 521 1 l 510 25 l 493 1 q 474 14 485 14 q 455 9 467 14 q 439 4 443 4 q 424 31 426 4 l 419 31 q 413 11 413 31 q 406 1 413 1 q 382 28 390 1 q 367 65 372 60 l 356 1 q 329 49 333 13 q 315 104 324 93 q 310 14 308 88 l 293 25 l 293 32 q 282 58 293 53 q 276 108 278 69 q 264 156 276 140 l 258 25 q 234 90 250 39 q 218 156 218 142 q 222 258 218 157 q 218 361 224 319 l 231 379 q 247 317 247 364 l 247 307 q 253 264 247 278 q 264 322 265 281 q 275 379 263 363 q 288 324 289 364 q 299 271 286 285 q 310 225 289 228 q 315 356 313 238 l 315 379 q 326 336 328 368 q 339 293 325 304 q 339 250 339 294 q 356 201 339 217 l 367 213 l 367 379 l 378 242 q 390 220 388 239 q 407 201 393 201 q 418 254 418 221 q 418 310 418 282 l 418 328 q 424 258 421 321 q 453 207 426 219 l 469 242 q 493 201 474 211 q 510 283 508 219 l 510 288 q 515 260 515 278 q 515 229 515 244 q 532 201 518 210 q 550 229 549 208 q 550 264 550 226 l 556 264 q 561 342 561 294 q 560 428 561 417 q 521 504 554 463 l 510 425 l 511 442 q 481 499 513 479 q 481 611 481 485 q 499 704 481 671 q 510 739 496 731 q 511 839 511 726 q 493 921 511 892 q 475 874 476 914 l 475 869 q 459 896 465 872 q 446 919 453 919 q 424 839 424 919 q 418 796 424 811 q 419 860 418 796 q 407 921 419 899 l 390 910 q 376 839 378 883 q 372 767 374 771 q 367 844 365 789 q 356 921 368 896 q 338 869 338 908 q 326 818 339 831 l 326 778 l 315 778 q 315 847 315 776 q 310 899 315 878 q 296 869 300 894 q 293 836 294 853 q 287 801 286 826 q 275 767 288 775 q 264 847 261 839 l 253 858 q 247 818 246 847 q 236 778 249 789 l 236 767 q 222 857 221 797 q 218 950 225 925 q 229 993 231 961 q 242 1035 228 1025 l 242 1069 l 253 1081 l 253 1099 q 259 1018 260 1072 q 264 939 258 964 l 269 939 l 282 1058 q 296 1083 292 1063 q 304 1110 300 1104 l 315 1007 q 329 1067 324 1019 q 356 1121 335 1106 l 367 1047 q 381 1084 376 1057 q 396 1121 385 1111 l 400 1122 q 413 1096 413 1122 q 424 1081 413 1082 q 431 1106 425 1082 q 447 1121 436 1122 l 453 1121 l 464 1104 l 481 1110 l 481 1121 q 517 1108 493 1115 l 539 1121 l 567 1081 l 572 1121 l 596 1110 q 618 1042 594 1072 l 624 1121 q 644 1086 639 1111 q 658 1047 650 1056 q 657 1011 657 1051 q 669 990 657 994 l 675 1110 q 699 1007 701 1075 l 710 996 l 710 675 q 693 607 693 664 q 703 551 693 589 q 715 493 714 510 l 721 493 l 726 1099 q 735 1068 726 1088 q 744 1038 744 1049 q 738 1018 744 1028 q 749 956 751 1000 q 761 893 747 911 q 756 764 758 828 q 738 647 750 668 q 747 574 746 635 q 761 510 750 518 l 761 168 m 464 469 q 429 546 436 488 q 429 635 429 554 q 446 686 429 651 q 458 739 463 717 q 464 632 464 693 l 464 603 q 464 469 464 457 m 156 767 l 139 790 l 139 983 q 150 1003 150 989 q 149 1028 149 983 l 150 1035 q 156 926 156 989 l 156 897 q 156 767 156 763 m 407 476 q 383 604 382 525 l 385 642 q 396 676 396 650 q 407 710 396 701 q 414 593 414 654 q 407 476 414 532 m 104 778 l 104 801 q 104 778 104 801 m 361 488 q 343 560 343 510 q 344 653 343 664 q 356 688 353 657 q 361 597 361 654 q 361 488 361 482 m 47 847 l 47 904 q 54 875 54 893 q 47 847 54 858 m 310 510 l 310 528 q 310 510 310 528 m 207 47 q 190 92 192 57 q 179 139 189 128 q 179 199 179 135 q 167 247 179 231 q 174 279 174 260 q 167 310 174 297 q 178 344 179 318 q 190 379 178 371 q 208 228 208 324 q 207 47 208 26 m 150 65 q 142 133 150 78 q 139 201 136 175 q 126 256 126 221 q 128 322 126 333 q 139 343 139 328 q 138 369 138 319 l 139 379 l 150 379 q 157 221 157 303 q 150 65 157 140 m 99 104 q 92 204 97 135 q 86 306 86 269 q 88 344 86 325 q 99 379 97 349 q 106 242 106 313 q 99 104 106 171 m 47 168 l 47 344 q 54 257 54 306 q 47 168 54 208 m 681 761 l 675 864 l 681 761 m 629 715 q 636 797 636 756 q 624 904 636 857 l 629 715 m 583 904 l 572 915 l 572 693 q 585 792 585 731 q 583 904 585 919 m 544 726 q 544 826 544 714 q 532 915 544 882 l 521 904 l 521 682 q 544 726 525 699 m 664 561 l 664 675 q 664 639 664 679 q 653 601 664 614 l 658 601 q 664 585 664 596 q 664 561 664 560 m 618 601 l 618 624 l 613 624 l 618 601 m 732 315 l 732 339 q 726 390 732 339 l 732 315 m 681 242 q 681 264 681 264 l 681 242 m 635 453 l 624 469 l 624 207 q 636 324 636 251 q 635 453 636 471 m 596 258 q 594 292 594 274 q 596 338 594 307 q 597 382 597 368 q 572 482 597 447 l 572 207 q 583 239 583 211 q 596 258 583 254 z "},"4":{"ha":1094,"x_min":47,"x_max":1047,"o":"m 961 304 q 950 276 950 299 q 939 247 950 253 q 944 150 944 201 q 939 53 944 99 q 932 163 932 101 q 936 281 932 201 q 940 401 940 361 q 936 565 940 456 q 932 729 932 675 q 939 1018 932 872 q 939 476 951 747 q 961 356 963 436 l 961 304 m 921 396 l 925 374 q 917 329 925 356 q 908 285 908 303 q 910 264 908 275 l 899 253 l 899 76 q 891 45 886 68 q 888 14 896 22 q 878 256 879 35 q 879 690 876 410 q 881 1029 881 1018 q 888 1081 881 1058 q 899 972 899 1050 l 899 469 q 910 433 911 461 q 921 396 910 404 m 1042 282 l 1042 442 q 1047 361 1047 404 q 1042 282 1047 319 m 990 258 l 990 264 q 985 271 989 267 q 990 361 990 313 q 985 453 990 410 l 990 458 q 1003 358 1003 414 q 990 258 1003 303 m 869 276 l 847 253 l 847 14 l 836 1 l 831 7 l 836 258 l 825 271 l 807 253 q 808 176 807 269 q 808 67 810 107 q 796 1 806 8 l 785 14 l 785 146 q 779 258 785 214 l 774 258 q 772 124 772 192 q 756 1 768 15 q 736 33 740 6 q 733 76 735 56 q 720 39 725 67 q 704 1 715 11 q 686 128 685 46 q 682 258 688 228 l 671 247 l 671 1 l 658 1 q 647 129 646 47 q 642 258 647 222 l 619 247 l 619 1 q 607 129 606 47 q 601 258 608 222 l 579 258 q 573 141 572 219 q 568 25 574 63 q 568 247 554 136 l 556 258 l 282 258 l 269 293 q 258 258 256 285 l 231 276 q 224 349 224 304 l 224 436 q 235 496 238 453 q 247 556 233 539 l 253 767 l 258 431 l 269 418 l 275 533 l 282 533 q 310 853 288 640 l 310 672 q 315 515 310 578 l 321 515 q 344 729 335 601 q 361 944 353 836 l 367 939 q 361 772 361 858 q 367 607 361 688 l 372 607 q 407 1035 403 817 l 418 1029 q 413 876 413 968 l 413 699 l 424 688 q 433 786 422 721 q 444 882 444 851 q 442 915 444 899 l 447 915 l 458 1086 q 469 1036 469 1088 q 467 967 469 1011 q 464 918 464 922 q 471 785 464 849 l 476 785 q 488 949 482 867 q 517 1110 494 1046 l 522 1104 q 513 932 517 1018 q 510 761 507 831 q 499 678 499 743 q 490 586 499 657 q 476 499 482 508 l 482 453 q 531 458 483 454 q 568 476 568 463 l 568 847 l 556 858 l 528 488 q 521 667 521 561 l 522 869 q 538 954 529 881 q 543 1046 543 1018 q 556 1086 543 1074 q 568 1121 553 1113 l 574 1115 l 568 978 l 579 967 q 588 1044 583 1006 q 607 1121 594 1090 q 618 1090 618 1115 q 631 1058 618 1065 q 647 1121 632 1081 l 654 1122 q 663 1108 663 1122 q 676 1093 664 1093 q 687 1108 685 1093 q 697 1122 689 1122 q 715 1068 715 1122 q 728 1042 715 1047 q 733 1121 733 1056 l 756 1086 l 754 1074 q 767 1047 754 1053 l 767 469 l 779 464 q 785 1121 785 1110 q 810 829 807 1111 q 807 469 808 650 l 831 453 q 835 794 832 624 q 831 1104 838 1089 l 836 1110 l 842 1104 q 835 1094 835 1100 q 847 1075 835 1085 l 847 469 l 869 447 l 869 276 m 207 258 l 200 258 q 185 271 196 258 l 185 447 l 196 458 l 201 675 q 207 504 208 600 l 207 454 l 207 258 m 156 258 l 144 271 q 143 319 143 294 q 149 451 143 369 q 156 585 154 553 l 156 258 m 104 271 q 93 343 93 301 q 99 418 93 368 q 104 493 104 468 l 104 271 m 53 304 l 47 396 l 53 304 m 682 469 l 682 790 q 675 628 675 713 q 682 469 675 543 m 642 813 q 636 748 635 794 q 625 682 638 701 q 625 624 625 658 q 624 565 624 576 q 631 464 624 504 l 636 464 q 642 604 642 528 l 642 651 q 642 813 642 817 m 601 469 q 601 631 601 468 l 601 697 q 596 829 601 775 q 596 761 596 835 q 590 730 596 749 q 585 704 585 711 l 574 458 q 601 469 583 460 m 471 761 q 463 768 463 768 l 458 767 l 465 658 q 453 606 453 639 q 454 550 453 578 l 453 533 q 440 500 440 522 q 442 458 440 447 l 458 458 q 465 610 465 508 q 471 761 464 711 m 418 658 q 408 665 411 665 l 407 664 l 413 556 q 401 513 401 542 q 401 458 401 454 l 413 458 l 418 658 m 361 458 l 356 561 l 361 458 z "},"5":{"ha":986,"x_min":47,"x_max":939,"o":"m 939 932 l 939 950 q 939 932 939 950 m 899 932 l 882 910 l 882 1110 q 900 1032 900 1085 q 899 932 900 921 m 858 1064 q 860 999 860 1069 q 847 944 860 963 l 847 910 l 831 910 l 831 1110 l 847 1110 q 846 1083 846 1114 q 858 1064 846 1068 m 814 1017 q 801 910 814 958 l 779 910 l 779 1110 l 785 1110 q 808 1098 801 1111 q 814 1017 814 1085 m 939 207 q 932 401 932 301 q 939 596 932 501 l 939 207 m 899 231 q 886 188 886 215 q 888 142 888 164 l 888 128 l 882 664 q 900 465 900 589 q 899 231 900 203 m 858 253 q 847 190 846 235 q 836 128 849 144 l 842 128 l 842 76 l 836 76 l 836 710 q 842 645 835 688 q 849 583 849 603 q 847 561 849 572 l 858 550 l 858 253 m 310 550 q 299 533 300 547 q 293 515 297 519 q 288 550 288 519 q 275 579 288 571 q 275 601 275 590 q 288 618 276 614 q 288 850 288 594 q 282 1042 288 964 q 292 1076 293 1050 q 299 1110 292 1101 l 310 1110 l 310 550 m 807 161 q 795 119 794 151 q 785 76 796 86 l 785 47 q 778 197 778 97 q 774 344 779 296 l 761 333 l 761 208 q 749 114 761 171 q 732 25 735 51 q 726 105 725 51 q 721 185 728 158 l 715 185 q 708 93 713 139 q 675 14 704 36 l 676 71 q 669 117 676 96 q 658 85 658 110 q 647 53 658 60 q 629 1 642 17 l 618 76 q 604 35 610 68 q 578 1 600 7 q 574 26 574 6 q 561 42 574 42 q 544 1 543 19 l 521 1 l 515 25 q 496 6 508 6 q 483 8 492 6 q 469 11 474 11 q 453 1 460 11 l 444 0 q 431 15 438 0 q 424 31 425 31 q 413 19 419 31 l 413 1 l 408 1 q 372 53 382 1 q 361 35 361 50 q 363 10 363 71 l 361 1 q 321 82 331 22 l 315 82 l 310 1 q 297 28 310 11 q 288 58 283 46 q 276 93 275 67 q 264 128 276 119 l 258 25 q 229 83 229 63 q 236 104 229 94 l 224 117 l 231 293 l 235 293 q 247 263 247 293 q 258 247 247 249 q 267 267 257 256 q 278 285 278 278 q 275 293 278 289 q 292 265 283 293 q 299 228 299 243 q 310 213 299 214 l 315 293 q 337 251 332 285 q 356 207 342 218 l 361 207 q 367 293 368 224 q 383 247 378 282 q 407 201 388 211 q 418 264 421 210 q 453 201 424 226 q 458 226 458 204 q 469 236 458 236 l 493 201 q 511 244 508 215 q 510 293 510 240 q 515 267 515 286 q 515 236 515 251 q 539 207 518 210 q 549 244 550 217 q 561 282 549 272 l 561 521 q 544 561 546 538 q 533 567 538 567 q 525 551 529 567 q 515 533 521 536 l 515 510 q 511 546 511 514 q 493 568 511 568 l 488 567 l 469 528 l 471 538 q 453 567 471 554 l 436 556 l 436 549 q 424 521 436 528 q 419 547 419 524 q 407 567 419 565 q 392 547 396 561 q 385 521 385 524 l 379 521 q 367 551 367 521 q 356 567 367 567 q 333 515 350 549 l 326 1018 q 333 1093 344 1035 q 357 1111 343 1111 l 361 1110 q 361 1024 361 1113 q 367 956 361 983 l 372 956 q 378 1033 379 976 q 390 1110 378 1085 l 413 1110 l 418 1093 q 429 1099 424 1092 q 429 1110 433 1104 l 750 1110 l 761 1099 l 761 921 l 732 910 l 721 921 q 628 908 703 911 q 532 910 558 904 q 526 824 526 869 q 532 739 526 779 l 556 750 l 561 733 q 590 751 575 751 q 606 731 606 751 q 618 710 607 711 l 624 750 l 629 751 q 658 701 658 751 q 669 682 658 683 q 675 750 676 693 q 708 692 703 738 q 715 618 711 654 l 721 618 l 726 739 l 744 726 q 761 493 764 624 l 774 482 l 779 726 q 817 458 817 629 q 807 161 817 413 m 258 536 q 247 521 258 529 q 231 568 231 539 q 233 603 231 579 q 236 639 236 628 q 231 675 236 660 q 243 774 240 683 q 243 946 244 838 q 242 1064 242 1088 q 253 1082 253 1068 q 253 1104 253 1065 l 253 1110 q 258 536 258 517 m 207 521 l 190 544 l 190 778 l 201 790 l 201 1075 l 207 521 m 156 539 l 150 864 q 156 539 156 550 m 207 36 q 179 110 206 44 l 179 282 l 190 293 l 207 271 l 207 36 m 156 53 q 138 156 138 89 q 139 282 138 296 l 150 293 l 156 53 m 104 88 q 106 97 106 93 q 97 149 106 115 q 88 200 88 182 q 99 242 88 222 l 99 293 q 106 190 106 253 q 104 88 104 93 m 53 150 l 47 253 l 53 150 m 515 756 l 515 904 l 493 904 l 493 744 q 515 756 507 757 m 464 756 l 464 904 l 453 904 q 446 824 446 867 q 453 744 446 782 l 464 756 m 413 756 q 413 767 413 767 l 413 756 m 361 739 l 361 813 q 354 774 354 797 q 361 739 354 751 m 732 322 q 732 344 732 344 l 732 322 m 681 350 q 687 374 681 354 q 693 404 693 393 q 683 468 693 424 q 675 532 674 508 l 675 544 l 681 350 m 642 264 l 642 528 q 624 561 642 528 l 629 219 q 629 246 629 217 q 642 264 629 260 m 601 282 q 594 404 594 340 q 601 528 594 468 q 590 561 592 532 l 572 561 l 578 213 q 590 247 590 221 q 601 282 589 274 z "},"6":{"ha":1036,"x_min":47,"x_max":989,"o":"m 835 972 l 829 1058 l 835 972 m 796 1029 q 789 1021 789 1028 q 789 1007 789 1006 q 794 1001 794 1004 q 790 992 794 997 q 783 983 785 986 q 785 943 785 986 q 778 910 785 922 l 778 1110 q 783 1065 783 1103 q 796 1029 783 1040 m 733 871 q 726 858 733 861 l 726 1121 q 739 1008 739 1075 q 736 940 739 985 q 733 871 733 894 m 699 944 l 686 932 q 688 910 688 921 q 683 853 688 888 q 675 796 676 810 q 675 967 675 772 q 686 1121 675 1061 q 693 1113 693 1118 q 690 1104 693 1110 q 688 1096 688 1099 q 699 1086 688 1090 l 699 944 m 989 219 l 983 533 q 989 219 989 231 m 950 247 q 938 203 938 231 q 939 156 939 179 l 938 139 l 932 613 q 950 446 950 551 q 950 247 950 224 m 904 271 l 892 258 q 899 201 899 225 q 886 150 899 169 l 892 150 l 892 88 l 886 88 l 881 647 q 889 590 879 626 q 899 533 899 553 q 892 493 899 511 l 904 482 l 904 271 m 864 322 l 858 322 q 853 222 853 300 q 846 176 853 206 q 839 133 839 146 q 842 117 839 128 q 846 101 846 107 q 835 88 846 94 q 829 53 838 75 l 829 688 q 844 586 831 671 q 854 486 854 525 q 853 447 854 465 q 865 390 865 426 q 864 356 865 383 q 864 322 863 335 m 813 179 q 801 136 800 168 q 789 93 803 104 l 783 25 q 778 110 776 53 q 772 196 779 168 l 767 196 q 757 101 763 132 q 726 14 747 50 q 728 75 728 3 q 715 128 728 110 q 706 61 710 82 q 675 1 696 25 q 676 49 676 -4 q 664 82 676 74 q 654 35 658 44 q 624 1 644 8 l 618 42 l 596 1 l 572 1 l 561 25 q 546 4 557 3 q 493 1 519 22 q 483 17 485 3 q 469 31 481 31 l 458 1 q 439 17 447 4 q 424 42 431 31 l 429 53 l 418 65 q 413 28 413 60 q 407 1 413 10 q 381 50 386 14 q 367 104 376 93 q 358 76 357 96 q 363 46 363 43 l 361 14 l 344 25 q 331 71 342 42 q 324 113 324 94 q 326 144 324 126 l 315 156 l 304 144 q 310 92 310 124 q 310 25 310 18 q 269 201 269 93 q 275 258 269 235 l 264 271 l 253 258 q 256 169 250 226 q 260 81 261 108 l 258 47 q 242 92 243 57 q 231 139 240 128 q 218 318 218 208 q 229 529 218 390 q 240 738 240 668 q 253 790 240 771 l 253 864 q 258 781 258 826 q 254 669 258 749 q 251 560 250 600 l 253 504 l 264 493 l 275 504 l 269 642 q 281 704 283 660 q 293 767 279 749 l 290 794 q 300 863 290 814 q 304 932 308 904 q 304 636 318 789 l 315 624 l 326 636 q 319 681 319 657 q 329 761 319 704 q 333 842 336 810 l 339 842 q 348 908 338 865 q 358 972 358 951 q 356 996 358 985 q 356 744 369 874 l 367 726 q 385 904 385 747 l 390 904 l 390 910 q 399 969 389 931 q 408 1026 408 1007 q 407 1047 408 1036 q 407 824 421 939 l 418 813 q 424 888 436 829 q 435 935 438 900 q 447 983 433 971 l 444 1004 q 453 1038 444 1017 q 461 1071 461 1060 q 458 1086 461 1079 q 465 986 465 1053 q 469 888 464 919 l 475 888 l 488 1024 q 499 1063 499 1032 q 510 1099 499 1089 l 510 1121 q 516 1032 517 1092 q 521 944 515 972 l 532 956 l 539 1075 q 550 1121 558 1083 q 568 1085 567 1113 q 567 1042 567 1110 q 572 1007 567 1042 q 587 1064 582 1025 q 601 1121 592 1103 q 606 1086 606 1117 q 624 1058 606 1064 q 635 1099 643 1065 l 629 1104 l 647 1121 l 644 1101 q 658 1075 644 1081 l 629 739 l 624 733 l 624 767 l 624 858 q 618 961 625 917 l 613 961 q 582 751 579 811 l 583 710 q 601 707 590 710 q 617 704 611 704 q 642 721 633 704 q 669 669 656 686 l 681 721 q 703 676 693 706 q 721 631 715 640 q 726 715 728 646 q 738 708 736 717 q 738 697 738 708 q 744 682 739 685 q 760 619 754 658 q 767 556 763 588 l 772 556 q 778 693 775 571 l 778 710 l 796 682 l 789 658 q 801 615 803 647 q 813 572 800 583 l 813 179 m 207 71 l 201 65 q 201 103 201 60 q 190 128 201 119 q 190 182 190 122 q 184 273 190 211 q 178 367 178 335 q 179 550 178 569 q 190 624 192 572 q 201 699 189 676 l 201 790 q 208 615 208 713 q 205 431 208 554 q 201 247 201 308 q 207 71 201 149 m 156 128 q 150 117 153 122 q 151 163 151 110 q 139 201 151 189 l 139 585 q 150 638 150 604 q 150 693 150 665 l 150 710 l 156 128 m 99 179 l 93 185 l 99 607 q 106 393 106 503 q 99 179 106 283 m 53 315 l 47 310 l 47 442 l 53 315 m 567 715 q 567 803 567 708 l 567 826 q 561 893 567 864 q 564 871 564 882 q 556 830 564 857 q 547 789 547 803 q 550 767 547 778 q 538 742 538 761 q 544 715 538 725 q 550 721 546 721 q 558 718 553 721 q 567 715 564 715 m 510 726 l 510 842 l 504 842 l 504 778 l 510 778 q 497 757 497 772 q 499 726 497 724 l 510 726 m 464 726 l 458 778 l 464 726 m 783 344 l 778 418 l 783 344 m 732 264 l 726 499 l 726 258 l 732 264 m 675 231 q 688 382 688 300 q 675 533 688 463 l 675 231 m 647 282 l 647 482 q 636 514 636 486 q 624 533 636 528 l 624 231 q 635 263 635 235 q 647 282 635 276 m 607 293 l 607 469 q 595 501 594 476 q 583 533 596 526 q 572 494 571 522 q 567 453 574 463 q 556 500 556 460 q 539 533 556 526 q 533 503 533 528 q 521 482 533 486 l 504 533 l 493 533 q 481 388 481 472 q 488 231 481 335 l 504 231 l 521 282 q 533 255 533 276 q 544 231 532 233 l 544 242 q 556 276 557 250 q 561 310 556 301 q 572 263 572 304 q 583 231 572 239 q 595 262 596 238 q 607 293 594 286 m 458 231 q 465 382 465 303 q 458 533 465 460 l 447 533 q 446 514 447 517 q 436 499 444 503 q 435 357 435 518 q 447 231 435 279 l 458 231 m 413 231 q 413 371 413 218 l 413 421 q 407 533 413 482 q 394 476 394 515 q 390 418 396 433 l 385 418 l 385 344 q 396 283 396 331 q 413 231 394 242 m 361 253 l 356 510 q 357 475 357 514 q 344 447 357 456 l 344 382 q 361 253 344 299 m 310 293 q 310 315 310 315 l 310 293 z "},"7":{"ha":1043,"x_min":47,"x_max":996,"o":"m 996 1064 q 989 993 989 1036 q 990 921 990 929 q 983 996 983 956 q 990 1069 983 1035 l 996 1064 m 950 1058 q 953 1021 953 1040 q 945 949 953 997 q 938 876 938 900 q 944 824 938 849 l 939 818 q 932 883 932 847 q 935 950 932 906 q 939 1017 939 994 q 936 1049 939 1028 q 933 1081 933 1071 q 939 1110 933 1081 q 938 1085 938 1113 q 950 1058 938 1064 m 910 1024 q 911 989 911 1028 q 899 961 911 969 q 901 921 901 942 q 893 837 901 893 q 885 753 885 781 q 888 715 885 733 q 881 911 881 808 q 888 1110 881 1014 q 899 1067 900 1099 q 910 1024 897 1035 m 858 858 l 853 858 l 853 847 q 844 747 854 813 q 833 649 833 681 q 836 613 833 629 q 829 742 829 669 q 835 925 829 781 q 836 1110 840 1039 l 843 1110 q 858 1099 849 1110 l 858 858 m 208 910 q 203 908 206 908 q 185 921 197 908 l 185 1099 q 203 1111 196 1111 q 208 1110 203 1111 l 208 910 m 157 910 q 140 928 140 915 q 143 941 140 932 q 146 956 146 950 q 133 972 146 967 q 132 1021 132 964 q 139 1050 132 1036 q 146 1067 146 1064 q 143 1081 146 1072 q 140 1094 140 1089 q 151 1110 140 1103 q 157 1032 157 1076 l 157 1003 q 157 910 157 907 m 106 910 q 88 985 88 933 q 88 1064 88 1072 q 100 1083 99 1068 q 100 1110 100 1097 q 106 1031 106 1076 l 106 1007 q 106 910 106 907 m 807 756 l 801 756 l 801 739 q 792 637 801 704 q 782 535 782 569 q 785 499 782 517 q 785 888 771 689 l 774 899 l 761 888 q 768 835 768 863 q 761 758 768 808 q 754 681 754 707 q 756 653 754 667 l 750 653 q 738 521 744 633 q 733 396 733 428 q 733 785 719 586 l 722 796 l 710 785 q 717 729 717 758 q 708 635 717 704 q 704 539 701 576 l 699 539 q 690 435 700 501 q 679 331 679 363 q 682 293 679 311 q 682 682 668 483 l 671 693 l 658 682 q 665 626 665 656 q 657 532 665 601 q 653 436 650 474 l 647 436 q 639 332 649 399 q 628 228 628 260 q 631 190 628 208 q 631 567 617 375 l 619 579 q 613 464 599 546 q 600 400 600 440 q 601 333 601 328 l 596 333 l 596 324 q 587 222 597 289 q 576 124 576 156 q 579 88 576 104 q 579 464 565 272 l 568 476 q 563 361 547 443 q 549 297 549 338 q 550 231 550 225 l 544 231 l 544 222 q 535 132 546 190 q 525 44 525 74 q 528 14 525 28 q 522 194 521 74 q 517 374 522 314 l 504 361 l 499 128 l 493 128 q 488 63 488 111 q 476 1 489 21 q 470 136 469 46 q 465 271 471 226 l 453 258 l 447 36 q 436 1 433 26 l 419 19 q 419 99 419 11 q 414 168 419 142 l 401 156 q 403 76 403 167 q 390 1 403 28 l 379 1 l 381 11 q 372 40 381 22 q 363 65 364 58 q 350 1 349 56 l 339 1 q 326 101 326 39 q 328 157 326 113 q 328 213 328 192 q 340 276 342 232 q 350 339 338 321 l 349 374 q 357 561 354 436 q 362 378 363 500 q 368 196 361 256 l 374 196 q 408 664 403 425 q 413 481 414 603 q 419 299 413 358 l 425 299 q 460 767 454 528 q 465 578 465 704 q 471 390 464 453 l 476 390 q 500 626 490 483 q 517 864 515 847 q 515 661 515 885 q 522 493 515 560 l 528 493 q 563 904 557 693 l 276 910 l 271 926 l 260 921 l 260 910 l 254 910 q 225 921 225 908 l 225 1099 q 254 1110 225 1111 l 260 1110 l 265 1093 l 276 1099 l 276 1110 l 618 1110 q 767 1104 682 1110 l 761 1093 l 774 1081 l 785 1099 l 779 1104 l 807 1110 q 819 999 819 1061 q 813 876 819 960 q 807 756 807 799 m 54 944 q 47 1011 47 972 q 54 1081 47 1050 l 54 944 m 311 14 l 299 1 q 286 111 286 43 q 288 174 286 121 q 288 236 289 211 l 293 236 l 306 469 q 311 288 311 390 l 311 236 q 311 14 311 -8 m 260 1 q 247 25 254 13 l 254 367 q 260 215 260 303 l 260 175 q 260 1 260 -4 m 208 18 q 199 56 208 32 q 190 92 190 79 q 196 117 190 104 q 190 144 199 128 q 203 208 204 165 q 208 276 201 258 l 208 18 m 157 53 q 150 113 150 81 q 157 174 150 146 l 157 53 m 682 796 l 682 904 q 675 850 675 879 q 682 796 675 821 m 642 904 l 631 904 q 624 799 624 854 q 631 693 624 743 q 628 728 628 710 q 636 799 628 751 q 644 869 644 846 q 642 904 644 888 m 596 904 l 579 904 q 572 747 572 828 q 579 590 572 667 q 576 628 576 608 q 585 706 576 654 q 593 785 593 758 q 590 818 593 801 q 603 858 603 832 q 596 904 603 878 z "},"8":{"ha":1049,"x_min":53,"x_max":1001,"o":"m 949 728 l 943 958 q 949 728 950 739 m 908 763 q 897 722 897 749 q 897 678 897 700 l 897 664 l 892 1033 q 901 921 892 996 q 911 807 911 846 q 908 763 911 783 m 868 190 q 857 136 857 181 q 846 104 857 114 l 851 104 l 851 57 l 846 57 l 839 1075 q 858 969 849 1022 q 868 864 868 908 q 863 790 868 839 q 857 714 857 740 q 849 677 857 700 q 842 642 842 654 q 850 597 842 624 q 858 553 858 571 q 857 532 858 543 l 868 519 l 868 190 m 1001 249 l 1001 271 q 1001 249 1001 271 m 950 175 l 949 156 l 943 532 q 953 435 943 499 q 964 340 964 372 q 956 287 964 321 q 949 233 949 253 q 950 204 949 225 q 950 175 950 186 m 908 167 q 896 142 897 160 q 897 110 897 178 l 897 104 l 892 594 q 910 399 910 521 q 908 167 910 140 m 817 126 q 801 85 806 113 q 793 40 796 49 q 787 133 786 71 q 782 225 788 196 l 776 225 l 764 86 q 752 51 756 78 q 736 17 749 24 q 736 85 736 10 q 729 139 736 118 l 724 139 q 683 6 715 44 q 683 56 683 1 q 672 86 683 78 q 638 6 668 36 q 632 39 632 11 q 619 57 632 56 q 585 6 610 14 l 574 29 q 539 6 556 1 l 533 17 l 510 11 l 510 6 q 475 29 493 1 l 464 6 l 435 29 l 429 57 q 418 22 418 56 q 406 6 418 7 q 378 86 392 31 l 371 86 l 365 6 q 349 31 351 10 q 336 57 346 51 q 343 67 343 61 q 331 86 343 76 q 332 115 332 83 q 319 139 332 135 l 314 17 q 297 51 300 24 q 285 86 294 78 l 285 100 q 279 219 281 139 l 267 225 l 261 40 q 239 134 250 63 q 226 208 228 206 l 226 503 q 237 564 232 508 q 256 624 242 619 q 233 803 236 638 q 232 988 232 894 q 244 1031 246 999 q 256 1075 243 1064 l 256 1103 l 267 479 q 278 528 279 492 q 290 578 278 565 l 285 613 q 288 658 296 625 q 290 704 281 690 l 279 717 l 279 982 q 286 1003 286 989 q 285 1026 285 1025 q 299 1079 286 1033 q 308 1126 310 1118 q 314 1045 315 1100 q 319 965 313 990 l 325 965 q 360 1138 329 1057 l 371 1033 q 382 1067 382 1039 q 394 1103 382 1096 l 389 1110 l 413 1138 l 424 1075 q 440 1114 426 1078 q 469 1138 449 1138 l 475 1110 q 488 1122 486 1108 q 499 1138 490 1136 q 518 1126 506 1126 q 536 1131 524 1126 q 553 1135 549 1135 q 568 1110 565 1135 l 579 1121 l 579 1138 l 585 1139 q 619 1086 610 1140 q 632 1104 632 1089 q 631 1129 631 1071 l 632 1138 q 653 1122 646 1138 q 667 1092 660 1107 l 664 1072 q 678 1046 664 1047 q 683 1138 683 1063 q 701 1111 692 1125 q 711 1085 711 1097 q 707 1068 711 1076 q 718 1024 719 1058 q 729 982 717 990 l 736 1126 q 771 929 771 1058 q 769 822 771 917 q 769 717 767 758 q 765 673 764 704 q 753 629 765 642 q 769 490 775 565 l 782 479 l 788 1103 q 804 1043 804 1094 q 817 1006 806 1017 l 817 688 q 805 656 804 681 q 793 624 806 631 q 805 598 806 619 q 817 572 804 576 q 822 349 822 464 q 817 126 822 235 m 157 664 q 146 901 146 851 q 151 1022 146 965 q 157 857 157 958 l 157 664 m 99 757 l 99 936 q 106 849 106 897 q 99 757 106 799 m 208 64 l 203 57 q 203 65 199 57 q 207 78 207 76 q 199 119 207 96 q 190 160 190 143 q 192 179 190 168 l 181 190 l 181 508 q 192 551 193 519 q 203 594 190 583 q 204 647 204 586 q 192 688 204 674 l 192 1011 q 203 1075 206 1019 l 208 64 m 157 104 q 139 300 139 178 q 140 532 139 558 q 153 557 151 539 q 150 588 150 511 l 151 594 l 157 104 m 106 156 q 100 229 97 176 q 88 300 101 276 q 88 364 88 294 q 99 415 88 397 l 99 543 q 106 388 106 474 l 106 333 q 106 244 106 318 q 106 156 104 190 m 53 249 l 53 271 q 53 249 53 271 m 742 779 l 736 856 l 742 779 m 689 717 q 689 739 689 739 l 689 717 m 649 728 l 649 907 l 632 931 l 638 722 q 649 728 646 729 m 608 733 q 601 817 601 772 q 608 901 601 863 q 598 915 601 904 q 592 931 594 926 l 579 918 l 579 717 l 592 704 l 608 733 m 729 560 l 729 710 q 724 670 724 700 q 713 629 725 640 l 718 624 l 713 618 q 724 578 724 613 q 729 560 724 564 m 563 872 q 556 892 563 879 q 550 910 550 904 q 557 924 550 918 l 550 931 q 538 892 538 921 q 528 856 539 864 q 515 885 525 861 q 508 915 508 901 q 510 931 508 922 l 499 931 q 499 889 499 889 q 492 867 496 878 q 486 826 486 843 q 488 751 486 738 q 499 731 499 746 q 499 704 499 718 l 510 704 q 508 719 508 713 q 528 779 508 751 q 539 742 540 771 q 550 704 538 714 q 556 711 556 707 q 553 719 556 714 q 550 726 550 724 q 556 751 550 726 q 563 792 563 776 l 563 872 m 678 600 q 678 607 678 606 l 672 647 l 678 600 m 469 717 l 469 918 l 458 931 q 444 818 444 879 q 458 704 444 756 l 469 717 m 418 704 q 418 810 418 703 l 418 843 q 413 931 418 893 l 413 925 q 400 901 413 911 q 399 793 399 914 q 418 704 399 736 m 365 717 q 365 739 365 739 l 365 717 m 742 271 q 742 294 742 294 l 742 271 m 701 283 q 701 407 701 268 q 683 508 701 474 l 689 225 q 689 258 689 219 q 701 283 689 276 m 660 311 q 654 378 654 342 q 660 444 654 414 q 649 484 647 453 q 632 519 650 515 l 632 219 q 649 276 649 226 q 660 311 649 301 m 378 607 l 371 647 l 371 600 l 378 607 m 614 415 q 602 469 601 429 q 592 519 603 508 l 579 503 l 585 225 l 592 219 l 608 242 q 601 281 601 261 q 609 334 601 299 q 617 388 617 369 q 614 415 617 401 m 325 560 q 325 594 325 594 q 328 610 325 599 q 332 628 332 621 q 326 676 332 644 q 319 722 319 707 l 325 560 m 563 249 l 563 497 q 554 513 558 504 q 543 521 550 521 l 539 519 l 539 499 q 529 485 538 492 l 528 485 q 510 519 507 506 l 499 519 l 499 515 q 488 490 500 500 l 488 249 q 504 214 494 232 q 510 244 510 218 l 510 249 q 525 258 519 258 q 538 237 532 258 q 550 214 543 215 q 552 233 551 224 q 563 249 553 243 m 469 508 q 456 519 453 519 l 453 519 l 446 415 q 433 376 433 403 q 435 329 433 315 q 447 275 447 313 q 453 219 446 233 l 464 219 q 469 335 469 272 l 469 375 q 469 508 469 511 m 418 219 q 418 363 418 214 l 418 410 q 413 519 417 474 l 400 508 q 394 369 394 442 q 400 231 394 297 q 418 219 415 218 m 365 225 q 365 350 365 222 l 365 406 q 360 508 365 460 q 360 478 360 511 q 349 456 360 461 q 347 328 347 471 q 365 225 347 261 m 314 271 q 314 294 314 294 l 314 271 z "},"9":{"ha":1056,"x_min":47,"x_max":1008,"o":"m 1008 613 l 1001 896 q 1008 613 1008 615 m 967 653 q 956 569 954 625 q 950 485 957 508 l 950 993 q 956 925 957 975 q 967 861 954 881 q 961 757 961 811 q 967 653 961 701 m 921 693 l 910 682 q 915 514 907 625 q 903 454 901 494 q 899 393 904 410 l 899 1046 q 910 988 907 1019 q 910 928 911 964 q 908 869 908 874 q 915 821 908 853 q 922 772 922 789 q 921 693 922 681 m 869 532 q 864 410 847 494 q 850 363 850 394 q 851 311 851 308 l 846 1086 q 854 1029 846 1081 q 857 971 860 994 l 869 958 l 869 532 m 829 549 l 822 549 q 811 393 824 497 q 800 236 799 289 q 794 408 793 294 q 788 578 794 522 l 782 578 l 776 444 l 771 444 q 760 308 771 390 q 742 174 743 182 l 742 328 q 736 463 742 410 l 731 463 q 690 110 714 344 l 690 249 q 685 369 690 322 l 678 369 q 654 214 665 308 q 638 57 638 63 l 638 181 q 632 289 639 243 l 626 289 q 585 17 611 199 l 586 126 q 579 214 586 175 l 574 214 q 558 108 574 171 q 533 6 546 57 l 533 85 q 528 150 535 119 q 508 87 522 149 q 493 6 494 25 q 481 53 481 18 q 469 97 482 89 q 453 6 467 67 q 436 32 436 15 q 439 51 436 38 q 442 72 442 65 q 429 97 442 72 l 418 86 q 425 65 425 76 q 415 37 425 56 q 406 6 404 18 q 394 38 394 10 q 383 75 394 67 l 381 99 q 389 149 381 117 q 397 197 397 181 q 394 219 397 208 q 407 249 404 213 q 406 294 407 258 q 418 324 417 288 q 418 364 418 325 q 418 139 432 256 l 429 126 q 435 201 447 143 q 447 245 449 213 q 458 289 446 278 q 457 328 458 288 q 469 364 457 353 l 471 376 q 440 421 472 421 l 429 444 l 424 415 l 411 414 q 396 431 404 414 q 383 450 388 447 q 388 468 388 460 q 378 485 388 481 q 367 465 367 478 q 370 447 367 460 q 374 426 374 433 l 372 415 l 343 439 l 344 450 q 338 478 344 460 q 331 506 331 497 q 338 525 331 517 l 325 538 q 314 501 314 522 q 318 468 314 490 q 322 435 322 446 l 319 415 q 289 501 289 460 q 290 519 289 511 q 278 573 278 536 q 274 624 279 610 q 263 575 263 603 q 266 531 263 560 q 269 488 269 503 q 261 433 269 465 q 244 513 261 440 q 239 594 235 556 l 226 607 l 226 913 q 239 967 240 928 q 250 1022 238 1007 l 247 1039 q 256 1065 247 1049 q 264 1090 264 1082 q 261 1103 264 1097 q 269 1051 269 1081 q 265 998 269 1033 q 261 946 261 963 q 268 901 261 922 l 274 901 q 285 1000 274 940 q 303 1097 301 1092 l 314 1110 l 314 1126 q 321 1093 321 1113 q 317 1059 321 1082 q 314 1025 314 1036 q 325 982 314 1001 q 335 994 335 986 q 332 1008 335 999 q 329 1021 329 1017 q 331 1028 329 1025 l 328 1039 q 337 1060 328 1047 q 346 1081 346 1074 q 343 1092 346 1086 l 365 1138 q 371 1107 375 1125 q 365 1074 365 1074 q 378 1046 365 1057 q 389 1060 389 1051 q 386 1071 389 1063 q 383 1085 383 1079 q 394 1097 383 1093 q 393 1106 393 1101 q 418 1138 393 1122 q 424 1119 426 1131 q 418 1100 418 1101 q 429 1086 418 1092 q 447 1126 444 1101 l 469 1138 q 474 1128 474 1136 q 469 1121 475 1121 l 482 1110 q 495 1125 488 1111 q 510 1139 503 1139 l 517 1138 q 529 1128 521 1128 q 545 1132 535 1128 q 561 1136 556 1136 q 579 1121 572 1136 l 585 1138 l 592 1139 q 626 1086 617 1140 q 638 1138 640 1089 l 649 1138 q 678 1057 663 1113 l 685 1057 l 690 1138 q 713 1085 701 1111 q 724 1026 724 1060 q 736 1006 724 1010 l 742 1126 q 757 1083 743 1121 q 767 1040 767 1058 q 765 1022 767 1031 q 776 969 778 1008 q 788 918 774 931 l 794 1103 q 811 1028 803 1065 q 817 947 821 985 l 829 936 l 829 549 m 210 456 q 211 488 211 453 q 199 508 211 501 q 199 551 199 503 q 186 583 199 572 l 186 936 q 199 985 200 949 q 210 1033 197 1022 l 210 456 m 158 497 q 158 539 158 492 q 146 572 158 561 l 146 947 q 158 983 158 960 q 157 1022 157 1003 l 158 1033 q 164 765 164 903 q 158 497 164 629 m 106 549 q 108 592 108 569 q 100 682 108 622 q 92 771 92 742 q 99 826 92 790 q 107 882 107 863 q 106 958 107 969 l 100 965 l 106 971 q 113 760 113 863 q 106 549 113 657 m 54 653 q 47 760 47 704 q 54 867 47 815 q 60 760 60 815 q 54 653 60 704 m 372 22 l 354 6 q 342 140 342 114 l 343 167 q 354 213 354 172 q 360 236 354 229 l 365 300 q 372 233 372 271 q 369 162 372 210 q 365 90 365 114 q 372 22 365 53 m 314 6 q 315 32 315 1 q 303 51 315 47 q 301 126 301 46 q 308 167 301 143 q 314 190 311 179 q 314 242 314 190 q 321 124 321 186 q 314 6 321 61 m 268 40 l 261 190 q 268 40 268 43 m 747 647 q 747 669 747 669 l 747 647 m 690 613 q 703 756 703 678 q 690 896 703 833 l 690 613 m 661 664 l 661 843 q 649 876 649 850 q 638 907 650 903 l 638 600 q 649 632 650 607 q 661 664 649 657 m 619 821 q 610 874 610 829 q 592 907 610 900 q 585 852 585 889 q 579 797 586 815 q 568 863 568 808 q 557 907 568 893 l 551 907 q 539 901 539 908 q 542 890 539 897 q 546 879 546 883 q 533 867 546 869 q 517 907 513 882 l 499 907 q 492 749 492 804 q 504 600 492 663 q 519 622 514 603 q 533 642 524 642 q 546 635 546 642 q 542 624 546 632 q 538 613 538 617 q 557 600 538 600 q 568 657 569 618 q 574 717 568 701 q 585 647 585 704 q 597 600 585 615 l 597 613 q 610 638 608 619 q 608 667 608 599 q 615 703 608 678 q 621 742 621 728 q 619 821 621 833 m 475 907 q 446 872 450 904 q 449 821 449 888 q 445 788 449 810 q 442 754 442 767 q 435 722 442 733 q 446 654 447 707 q 469 600 444 610 q 476 725 476 657 l 476 768 q 475 838 476 779 q 475 907 475 881 m 424 607 q 424 674 424 632 q 424 742 424 729 l 424 790 q 418 907 424 850 q 407 842 407 896 q 401 806 407 831 q 394 765 394 781 q 394 688 394 681 q 406 644 407 676 q 418 600 406 611 l 424 607 m 365 613 q 372 756 372 681 q 365 896 372 831 q 367 865 367 900 q 354 843 367 850 l 354 664 q 367 644 365 658 q 365 619 365 674 l 365 613 m 314 653 q 321 756 321 700 q 314 856 321 811 l 314 653 m 643 388 q 643 391 643 389 q 643 397 643 393 q 643 403 643 401 l 643 407 q 638 415 643 415 l 638 381 l 643 388 m 597 415 q 585 372 585 403 q 592 324 585 347 q 592 369 592 321 l 592 379 q 597 415 592 400 m 557 415 q 533 404 549 414 l 539 271 q 539 297 539 285 q 557 415 539 360 m 506 385 q 482 415 506 417 l 475 214 l 482 208 q 488 253 488 217 q 493 276 488 271 l 493 292 q 499 344 492 311 q 506 385 506 376 z "}," ":{"ha":601,"x_min":0,"x_max":0,"o":""},"!":{"ha":485,"x_min":47,"x_max":438,"o":"m 438 396 l 433 990 l 438 396 m 392 339 l 386 1047 q 392 339 392 349 m 354 354 l 339 328 l 339 1058 l 354 1038 l 354 354 m 313 1011 l 303 328 l 292 339 l 292 1047 l 303 1058 q 313 1011 313 1011 m 276 369 q 267 328 265 365 q 257 363 257 332 q 244 376 257 376 l 235 375 q 229 328 229 368 l 219 328 q 208 660 210 363 q 208 1021 208 840 l 207 1026 q 213 1036 207 1031 q 219 1044 219 1042 q 214 1053 219 1049 l 229 1058 q 229 1031 229 1061 q 235 1011 229 1018 l 238 1011 q 256 1021 247 1011 l 256 1058 l 267 1058 q 265 1038 265 1061 q 276 1021 265 1025 l 276 369 m 193 339 l 183 333 l 183 328 q 178 345 178 328 q 167 365 178 363 q 167 1032 172 1028 q 178 1058 179 1040 l 193 1047 l 193 339 m 146 333 l 131 349 l 131 1038 q 142 1058 131 1038 q 146 333 146 343 m 100 339 l 94 1047 q 100 339 100 349 m 53 396 l 47 990 l 53 396 m 438 115 l 433 172 l 438 115 m 392 57 l 392 78 q 392 57 392 78 m 354 63 l 339 36 l 339 250 q 356 165 356 219 q 354 63 356 50 m 303 36 l 292 47 l 292 240 l 303 250 q 314 143 314 201 q 303 36 314 85 m 276 78 q 267 43 267 75 l 267 36 l 256 36 q 257 47 257 42 q 249 72 257 60 q 235 94 242 83 q 230 65 229 88 q 219 36 231 43 q 214 44 214 40 q 216 52 214 47 q 218 60 218 57 q 208 68 218 65 l 208 219 q 218 228 218 222 q 216 235 218 231 q 214 242 214 240 q 219 250 214 247 q 230 221 231 244 q 240 193 229 197 q 251 221 240 196 q 256 250 260 236 l 267 250 q 265 226 265 253 q 276 208 265 213 l 276 78 m 193 47 q 183 42 189 49 l 183 36 l 167 68 q 172 146 172 104 q 167 224 172 188 l 183 250 l 193 240 l 193 47 m 146 42 l 131 57 l 131 229 q 140 236 139 228 q 142 250 142 240 q 146 167 146 215 l 146 140 q 146 42 146 39 m 100 47 q 100 56 100 51 q 92 100 100 71 q 83 146 83 129 q 94 182 83 165 l 94 240 q 100 143 100 203 q 100 47 99 53 m 53 94 l 47 193 l 53 94 z "},"\"":{"ha":693,"x_min":47,"x_max":646,"o":"m 640 658 q 633 835 633 744 q 640 1011 633 925 q 646 835 646 925 q 640 658 646 744 m 603 679 q 592 663 592 675 q 592 642 592 639 l 597 636 l 592 632 l 592 1038 q 592 1013 592 1039 q 603 989 592 994 l 603 679 m 554 632 l 543 632 q 538 835 538 731 q 543 1038 538 938 l 554 1038 l 554 632 m 517 642 l 507 632 q 494 824 494 711 q 501 1038 494 894 q 517 1026 506 1038 l 517 642 m 479 642 l 469 632 l 453 653 l 453 1015 q 464 1028 460 1018 q 469 1038 468 1038 q 479 1026 475 1035 l 479 642 m 438 1021 l 432 632 l 429 631 q 415 642 431 631 l 415 1026 l 426 1038 l 438 1021 m 314 642 l 303 632 q 292 826 292 713 q 299 1038 292 903 q 314 1026 303 1038 l 314 642 m 276 653 l 261 632 l 250 642 l 250 1026 l 261 1038 l 276 1015 l 276 653 m 229 632 q 213 642 224 631 l 213 1026 l 224 1038 q 235 842 235 956 q 229 632 235 769 m 192 632 l 175 632 l 175 1038 l 186 1038 q 197 840 197 953 q 192 632 197 769 m 149 632 l 138 632 q 126 800 126 697 q 128 894 126 815 q 128 989 128 953 q 139 1008 138 994 q 138 1032 138 986 l 138 1038 l 149 1038 l 149 632 m 100 632 q 89 832 89 725 q 100 1038 89 940 l 100 632 m 53 647 l 47 1015 q 53 647 53 658 z "},"#":{"ha":1101,"x_min":47,"x_max":1054,"o":"m 1049 667 q 1043 693 1043 678 q 1049 719 1043 708 q 1054 693 1054 708 q 1049 667 1054 678 m 1001 631 q 996 693 996 660 q 1001 756 996 726 q 1007 693 1007 726 q 1001 631 1007 660 m 965 631 l 956 631 q 956 686 956 629 l 956 704 q 950 750 956 731 q 960 756 953 756 l 965 756 l 965 631 m 929 746 q 929 682 929 750 q 918 631 929 649 l 908 631 l 908 756 q 913 757 910 757 q 929 746 917 757 m 1001 360 q 996 393 996 374 q 1001 428 996 413 q 1007 393 1007 413 q 1001 360 1007 374 m 960 339 q 956 328 953 332 l 950 453 q 951 454 950 454 q 960 449 953 454 q 954 393 954 424 q 960 339 954 364 m 918 328 l 908 328 q 908 383 908 326 l 908 399 q 903 449 908 425 l 914 458 l 918 328 m 876 328 l 861 328 l 867 458 l 876 458 q 882 393 882 428 q 876 328 882 358 m 892 646 l 882 631 l 861 631 l 856 646 q 811 576 811 638 q 814 521 811 565 q 814 464 817 486 q 847 418 847 458 q 844 381 847 414 q 846 344 842 358 q 821 328 832 328 l 814 328 l 804 349 l 804 343 q 785 329 804 333 q 767 318 767 325 l 767 83 q 762 207 761 125 q 757 328 763 289 l 736 328 l 731 140 q 719 96 719 125 q 721 47 721 72 l 721 36 q 715 183 714 86 q 710 328 715 281 l 700 328 q 694 254 694 314 q 689 152 694 221 q 683 47 683 83 l 674 47 q 674 318 661 182 l 663 328 q 656 300 651 321 q 653 271 660 279 q 649 156 647 239 q 638 42 650 83 q 631 186 631 90 q 626 328 632 282 l 617 328 q 617 174 617 251 q 596 36 613 46 l 596 189 q 590 328 596 274 l 569 318 q 568 243 568 289 q 569 168 569 181 q 558 36 569 88 q 547 114 547 67 q 558 172 547 154 l 558 279 q 553 328 558 301 l 522 318 l 522 36 q 510 113 510 58 q 513 192 510 140 q 517 258 517 243 q 511 328 517 296 l 490 328 q 490 181 490 254 q 475 47 488 57 q 469 193 472 119 q 481 324 468 307 l 454 328 l 449 89 q 439 36 438 82 q 434 182 433 85 q 428 328 435 279 l 418 328 l 413 125 q 403 42 401 113 l 386 53 l 386 282 q 399 308 399 286 l 397 324 l 382 328 l 371 318 l 372 271 q 368 153 374 225 q 361 36 361 56 l 350 47 l 350 197 q 344 328 350 276 l 340 328 q 324 183 322 279 q 314 36 325 81 q 308 328 317 135 l 293 328 q 288 182 288 288 q 278 36 289 89 l 272 42 q 278 171 278 94 l 278 318 l 246 328 q 240 182 240 271 q 240 36 240 40 q 225 74 246 67 q 232 176 226 90 q 236 281 238 240 l 236 324 l 210 333 l 210 453 q 238 488 238 454 q 235 511 238 496 q 233 532 233 526 l 236 547 l 246 458 l 257 458 q 282 479 282 457 l 282 625 l 257 631 l 257 756 l 278 756 q 283 819 283 776 q 288 881 282 861 q 286 817 288 881 q 299 756 286 778 l 324 767 l 329 1047 l 335 767 l 361 756 l 371 767 q 371 921 371 753 q 382 1058 371 1006 l 382 767 l 397 756 l 407 767 q 407 917 407 754 q 418 1047 407 997 q 414 1053 414 1047 q 418 1058 414 1058 l 424 1038 l 418 1032 q 425 953 425 1019 q 422 832 425 904 q 418 767 418 760 l 433 756 l 444 767 l 444 1011 q 453 1019 451 1013 q 456 1038 456 1026 q 454 1053 454 1053 l 454 1058 l 469 1032 q 464 932 469 1001 q 460 832 460 868 q 465 756 460 790 l 475 756 l 481 949 q 492 996 492 965 q 490 1046 490 1021 l 490 1058 l 507 1047 l 507 803 q 494 776 494 799 l 496 767 l 522 756 l 528 1058 l 543 1047 l 543 767 l 558 756 l 569 767 q 564 949 571 828 q 575 1001 576 968 q 574 1058 575 1063 l 579 767 l 596 756 l 606 767 l 604 815 q 608 936 604 863 q 617 1058 615 1038 q 621 990 621 1028 q 617 900 621 964 q 615 811 614 843 l 617 767 l 632 756 q 642 792 642 763 q 653 824 642 815 l 653 1047 l 663 1058 l 668 1053 l 663 767 l 679 756 l 689 767 l 689 1038 l 704 1058 l 704 897 q 710 756 704 813 l 721 756 q 721 914 721 835 q 736 1058 724 1042 q 742 943 742 1035 l 742 767 l 757 756 l 772 1058 q 790 975 789 1032 q 788 886 789 931 q 776 831 776 867 q 778 767 776 754 l 804 756 q 809 906 810 806 q 814 1058 808 1007 l 825 1047 l 825 813 q 814 793 813 808 l 814 767 q 835 753 817 765 q 856 744 846 744 l 861 746 q 856 896 856 818 q 861 1047 856 974 l 867 1042 q 860 904 860 986 q 861 767 861 754 q 894 721 894 760 q 892 683 894 715 q 892 646 889 660 m 240 631 l 219 631 q 219 649 219 639 q 210 663 218 657 l 210 729 q 221 744 219 731 q 229 758 222 758 q 240 756 233 758 l 240 631 m 193 631 q 172 674 172 639 q 174 699 172 682 q 175 724 175 715 q 172 740 175 733 q 181 749 178 742 q 188 757 183 757 q 193 756 189 757 l 193 631 m 147 631 q 131 688 131 650 q 136 750 131 700 l 142 756 l 147 631 m 100 631 l 94 756 l 100 631 m 189 328 l 172 328 q 174 338 174 333 q 168 369 174 349 q 163 399 163 389 q 172 428 163 406 q 174 444 174 428 q 183 460 174 460 q 189 458 185 460 q 194 393 194 428 q 189 328 194 358 m 147 328 q 143 328 144 328 q 133 340 138 328 q 126 354 128 353 q 126 369 126 361 q 126 392 126 376 q 125 413 125 406 q 142 458 125 444 l 147 328 m 100 328 q 83 379 83 344 q 85 443 83 450 l 94 453 l 100 328 m 53 339 q 47 392 47 360 q 53 449 47 424 l 53 339 m 193 57 l 193 78 q 193 57 193 78 m 804 443 l 804 625 l 783 625 l 778 458 l 783 464 q 795 458 785 463 q 806 449 806 454 q 804 443 804 446 m 757 464 l 757 625 l 746 625 l 742 532 l 736 532 l 736 464 l 757 464 m 715 621 l 710 625 q 699 551 699 597 q 700 464 699 449 l 710 464 l 715 621 m 674 464 l 674 625 l 663 625 l 663 464 l 674 464 m 638 464 l 638 625 l 626 625 l 621 464 l 638 464 m 600 500 l 596 625 l 579 625 l 574 464 l 590 464 q 600 500 590 501 m 558 625 l 538 625 l 538 464 l 553 464 l 558 625 m 511 464 q 518 544 518 501 q 511 625 518 588 l 501 625 l 501 464 l 511 464 m 475 464 l 475 625 l 465 625 l 465 464 l 475 464 m 439 625 l 428 625 l 418 464 l 428 464 q 428 551 428 457 q 439 625 428 597 m 392 464 q 392 553 392 446 q 386 625 392 599 q 386 583 386 583 q 379 565 383 576 q 375 526 375 549 q 382 464 375 501 l 392 464 m 356 464 l 356 625 l 344 625 l 340 464 l 356 464 m 319 464 q 319 540 319 447 l 319 561 q 314 625 319 596 l 299 625 l 293 464 l 319 464 z "},"$":{"ha":954,"x_min":47,"x_max":907,"o":"m 860 896 l 854 943 l 860 896 m 813 829 l 813 850 q 813 829 813 850 m 776 839 l 761 818 l 761 1026 q 778 943 778 999 q 776 839 778 826 m 740 844 l 725 818 l 714 829 l 714 1038 q 742 953 742 1011 q 739 899 742 946 q 740 844 738 865 m 907 219 q 901 356 901 282 q 907 494 901 429 l 907 219 m 871 240 q 860 204 860 228 q 861 165 860 185 l 860 151 l 854 557 q 871 414 871 507 q 871 240 871 219 m 813 104 l 808 594 q 835 382 835 507 q 813 104 835 278 m 792 407 q 789 226 789 381 q 767 78 789 132 l 761 615 q 788 536 767 588 q 788 475 788 550 q 782 422 788 443 l 792 407 m 746 168 q 735 119 744 133 q 726 91 735 111 q 719 57 717 71 q 714 128 713 81 q 708 199 715 175 l 704 199 q 699 150 699 199 q 688 119 699 131 q 693 103 693 111 q 683 74 693 92 q 672 47 674 56 l 663 140 q 645 92 653 136 q 625 42 638 49 l 615 104 q 600 63 594 101 q 578 8 579 46 q 581 -53 579 -22 l 579 -74 q 573 1 572 -49 q 568 74 574 50 l 542 32 l 542 -74 q 538 1 538 -64 q 517 57 538 43 q 504 28 506 46 q 504 -6 501 15 q 506 -39 506 -33 q 500 -74 506 -39 q 496 -43 496 -62 q 496 -22 496 -36 q 497 -3 497 -10 q 469 47 497 39 l 464 -62 q 454 -6 453 -51 q 433 47 456 36 l 428 -47 q 423 -55 425 -47 q 417 -62 421 -62 q 411 -35 410 -62 l 414 6 q 386 57 415 44 l 381 -74 q 375 -50 375 -64 q 375 -24 374 -40 q 376 0 376 -6 q 350 57 376 42 l 344 74 l 333 57 l 333 42 l 303 68 l 297 94 l 292 94 q 288 50 289 90 l 288 42 q 261 88 267 61 q 250 140 256 115 l 246 140 l 240 47 q 208 143 214 76 q 208 250 208 156 q 219 286 208 265 l 246 240 q 256 286 264 249 l 282 250 q 292 271 292 250 q 303 286 292 283 q 329 229 315 269 q 339 286 340 238 q 353 263 346 282 q 371 240 360 244 l 375 474 q 360 501 375 482 q 350 536 344 521 l 339 547 q 333 479 333 535 q 313 517 332 486 q 300 556 300 539 q 303 574 300 564 l 292 583 l 288 490 q 257 569 264 518 q 250 657 254 614 l 246 657 q 240 533 243 644 l 240 511 q 226 539 229 517 q 214 568 222 561 q 208 738 208 663 q 235 1026 208 906 q 240 935 242 996 q 246 844 239 874 l 250 844 q 257 940 254 892 q 282 1032 260 999 l 282 1047 q 288 987 289 1028 q 292 928 286 946 q 303 963 303 933 q 313 996 303 988 q 308 1010 308 1003 q 333 1058 308 1014 q 333 1010 333 1064 q 344 975 333 985 q 354 1032 350 993 q 376 1086 375 1049 q 374 1147 375 1117 l 375 1167 q 381 1088 382 1140 q 386 1011 381 1036 q 398 1031 396 1013 q 413 1053 400 1049 l 411 1113 q 417 1163 411 1143 q 426 1119 426 1146 q 428 1075 428 1075 l 433 1032 l 454 1063 q 449 1146 456 1092 l 464 1163 q 463 1096 463 1169 q 479 1047 463 1061 q 496 1090 494 1063 q 494 1136 494 1079 q 500 1172 494 1136 q 500 1068 511 1129 l 521 1053 q 538 1101 538 1069 q 536 1156 536 1128 l 538 1172 q 542 1138 542 1160 q 542 1114 542 1131 q 540 1090 540 1099 q 568 1032 540 1046 q 574 1154 571 1046 l 574 1172 q 579 1139 579 1160 q 578 1117 579 1131 q 578 1093 578 1101 q 604 1038 578 1053 l 610 1011 q 621 1058 629 1015 q 640 1040 633 1054 q 651 1011 646 1025 l 650 992 q 663 964 650 967 q 667 1047 668 979 q 682 1033 678 1047 q 693 1017 686 1018 q 699 903 699 979 q 688 844 699 867 q 688 818 704 826 l 657 865 l 651 818 q 638 838 646 822 q 621 854 631 853 l 621 844 q 604 818 622 824 l 583 854 q 580 793 583 835 q 576 731 576 751 q 590 663 576 700 q 610 600 607 618 l 615 600 l 621 672 q 651 578 647 638 l 663 568 q 667 651 668 583 q 681 626 675 646 q 693 600 686 606 q 688 592 688 596 q 699 574 688 582 q 697 542 699 576 q 708 515 697 521 l 714 636 q 739 565 739 599 q 735 532 739 550 l 746 521 l 746 168 m 193 526 q 178 575 179 538 q 167 625 176 613 l 167 875 q 178 913 178 889 q 176 951 178 932 l 178 964 l 183 964 l 188 1000 l 193 526 m 146 557 q 129 707 129 613 q 131 886 129 907 q 142 918 140 897 q 140 953 140 936 l 142 964 q 146 801 147 893 l 146 557 m 100 594 l 94 917 q 100 594 100 604 m 53 699 l 47 792 l 53 699 m 193 57 q 167 153 172 94 q 167 253 167 168 q 182 286 167 286 q 193 276 188 286 l 193 57 m 146 78 q 129 161 129 106 q 131 265 129 278 l 142 286 q 147 203 147 251 l 146 182 q 146 78 146 68 m 100 104 l 100 125 q 100 104 100 125 m 53 161 l 47 219 l 53 161 m 568 631 q 567 661 567 644 q 568 706 567 676 q 569 751 569 736 q 547 850 569 814 q 549 817 549 835 q 547 772 549 801 q 546 726 546 742 q 568 631 546 663 m 532 708 q 532 772 532 696 l 532 800 q 526 850 532 828 l 526 839 q 518 833 519 833 q 511 850 511 833 q 506 839 506 844 q 510 826 506 836 q 511 808 514 815 q 514 782 514 796 q 510 741 514 768 q 506 700 506 714 q 521 651 506 669 q 521 683 521 649 q 532 708 521 701 m 496 844 l 490 850 l 485 824 l 469 839 q 469 754 469 847 l 469 728 q 475 663 469 690 l 479 735 q 490 721 489 732 q 490 703 490 713 l 490 699 q 490 782 490 692 q 496 844 490 819 m 449 729 l 443 833 l 443 725 l 449 729 m 407 714 l 401 839 l 407 714 m 371 714 l 365 839 l 371 714 m 333 708 q 335 778 335 701 l 333 800 q 329 850 333 828 l 329 803 q 318 776 318 792 q 326 745 318 765 q 335 715 335 725 q 333 708 335 711 m 288 746 l 282 813 l 288 746 m 672 265 q 672 286 672 286 l 672 265 m 636 276 q 635 300 635 286 q 636 333 635 311 q 638 367 638 356 q 621 438 638 415 l 625 244 q 627 263 626 254 q 636 276 628 272 m 583 244 q 596 342 596 289 q 583 438 596 394 l 583 244 m 558 386 q 549 408 549 392 q 547 428 550 424 l 547 244 q 553 254 553 249 q 549 264 553 257 q 546 275 546 271 q 552 295 546 276 q 558 329 558 314 q 558 386 558 396 m 526 235 q 532 339 532 289 l 532 363 q 526 464 532 413 l 521 375 q 510 394 511 379 q 511 419 511 363 q 511 428 511 419 q 506 336 506 375 q 511 256 506 294 q 511 290 511 251 q 517 318 511 308 q 526 283 526 308 q 526 246 526 265 l 526 235 m 496 458 l 479 485 q 481 447 481 490 q 469 417 481 426 l 469 256 l 490 235 q 490 333 490 226 l 490 376 q 496 458 490 419 m 449 479 l 433 500 q 432 367 432 518 q 443 244 432 292 q 449 340 449 288 l 449 367 q 449 479 449 490 m 407 244 l 407 474 q 386 511 397 492 q 388 472 388 493 q 386 418 388 454 q 385 365 385 382 q 407 244 385 289 z "},"%":{"ha":1147,"x_min":47,"x_max":1100,"o":"m 954 913 l 954 1047 q 960 982 960 1019 q 954 913 960 943 m 924 938 q 913 879 911 919 q 907 818 914 835 l 907 1068 q 921 1024 921 1053 q 919 998 921 1015 q 918 972 918 981 q 924 938 918 951 m 876 1032 q 882 982 882 1006 q 871 933 882 950 l 865 735 q 860 907 860 847 q 871 1068 860 1001 q 875 1060 875 1065 q 873 1051 875 1057 q 871 1042 871 1044 q 876 1032 871 1036 m 844 969 l 840 969 l 835 854 l 829 854 q 821 753 829 847 q 819 651 817 692 q 814 776 814 707 l 814 818 q 814 975 814 989 q 825 1011 825 988 q 819 1053 825 1028 l 835 1068 q 832 1051 832 1060 q 840 1019 832 1040 q 847 986 847 997 q 844 969 847 979 m 799 875 l 793 875 q 781 717 793 828 q 772 557 769 615 q 767 701 767 614 q 767 881 767 899 l 778 892 l 776 919 q 781 989 775 946 q 788 1058 788 1043 l 799 1058 l 799 875 m 951 261 q 943 183 951 239 q 939 104 936 135 q 928 69 929 96 q 913 36 926 43 l 903 110 q 890 78 894 104 q 871 36 885 51 q 861 64 861 39 q 850 74 861 72 q 846 50 846 69 q 835 36 846 39 l 814 68 q 788 36 801 42 q 777 70 776 44 q 767 104 778 96 l 757 36 q 732 99 738 39 q 725 178 729 138 l 719 178 q 715 107 714 154 q 710 36 715 60 q 681 274 681 144 q 701 430 681 329 q 722 585 722 531 q 719 661 722 606 q 718 738 717 710 l 719 792 l 731 803 l 736 1006 q 746 1068 747 1015 l 761 1058 l 761 896 q 751 839 750 879 q 740 782 753 799 q 742 717 742 790 q 728 565 742 668 q 714 411 714 461 q 715 339 714 329 l 719 333 q 731 392 732 353 q 736 453 731 438 q 746 466 743 456 q 753 476 749 476 l 761 474 q 761 439 761 479 q 772 411 761 418 q 778 450 774 415 q 799 474 781 474 q 808 460 806 474 q 819 449 810 447 l 829 474 l 844 464 l 850 438 q 860 461 860 438 q 871 474 860 472 q 897 401 892 443 l 903 401 l 907 474 l 913 475 q 928 424 928 475 q 939 407 928 411 q 939 342 939 411 q 945 301 939 328 q 951 261 951 275 m 1100 125 l 1094 381 q 1100 125 1100 128 m 1064 146 q 1053 119 1054 138 q 1054 89 1054 104 l 1053 78 l 1049 438 q 1065 306 1065 390 q 1064 146 1065 128 m 1022 354 q 1024 243 1024 374 q 1011 146 1024 183 q 1018 110 1018 126 q 1007 78 1018 89 l 1011 78 l 1011 57 l 1007 57 l 1001 453 q 1017 393 1017 424 q 1011 365 1017 378 l 1022 354 m 715 808 q 704 735 704 793 q 699 683 704 717 q 694 629 694 649 q 683 583 694 600 l 683 565 q 676 431 685 517 q 668 297 668 338 q 657 267 657 288 l 657 229 l 668 219 q 663 47 671 161 q 653 136 650 85 l 642 146 l 642 369 q 652 407 653 379 q 663 443 651 435 q 674 557 674 489 q 672 672 674 615 l 674 708 l 683 719 l 689 913 q 699 969 700 928 q 710 1026 697 1010 l 710 1068 l 715 808 m 986 182 q 976 133 975 169 q 965 83 976 97 l 965 75 q 961 56 965 67 q 954 36 956 40 l 954 182 l 965 193 q 968 240 968 217 q 960 335 968 272 q 951 429 951 397 q 954 474 951 451 q 965 442 965 468 q 975 417 965 425 q 982 319 976 392 q 986 221 988 257 l 986 182 m 668 719 q 657 662 656 703 q 647 604 658 621 l 650 571 q 642 485 651 542 q 636 396 633 428 l 626 386 l 621 78 q 604 215 604 129 q 606 381 604 400 q 617 408 617 386 q 621 443 615 436 l 626 615 l 636 625 l 642 829 q 653 885 654 844 q 663 943 651 926 l 663 1038 q 668 894 668 982 q 668 719 668 701 m 469 719 q 459 680 458 710 q 449 642 460 650 q 450 625 450 643 q 433 615 450 613 q 439 678 439 654 q 428 735 439 714 q 423 691 422 724 q 413 646 424 658 l 413 631 l 410 631 q 403 621 404 631 q 397 610 401 611 q 392 643 392 613 q 382 667 392 663 q 356 610 379 640 q 349 622 353 611 q 342 632 346 632 q 328 621 331 632 q 322 610 326 610 q 306 627 310 610 q 293 646 301 644 q 288 625 288 643 q 278 615 288 615 q 267 638 267 615 q 257 651 267 649 q 257 683 257 647 q 246 704 257 700 q 240 660 240 683 q 246 615 240 635 l 239 614 q 228 628 232 614 q 219 646 225 643 q 208 806 208 708 q 210 979 208 1003 q 223 1018 217 990 q 240 1058 229 1046 q 240 1010 240 1063 q 251 964 240 979 q 261 1011 251 983 q 278 1058 276 1054 q 287 1041 286 1057 q 299 1021 288 1025 q 326 1058 304 1058 l 329 1058 q 329 1042 329 1060 q 335 1032 329 1032 q 349 1045 346 1032 q 360 1058 351 1058 l 365 1058 q 375 1028 372 1049 q 382 1000 378 1008 q 393 1021 393 1006 q 392 1047 393 1051 l 386 1053 q 401 1058 390 1058 l 403 1058 q 428 938 415 1018 l 433 938 q 439 996 439 964 q 433 1053 439 1026 l 439 1058 q 449 1042 450 1054 q 454 1021 449 1025 q 471 883 471 971 q 469 719 471 700 m 632 913 l 621 636 q 610 578 610 619 q 600 521 611 538 q 603 488 603 504 q 595 415 603 463 q 588 343 588 367 q 590 313 588 328 q 585 214 571 283 q 574 165 572 197 q 574 115 574 111 q 568 240 568 163 q 574 363 568 282 q 579 485 579 444 q 584 515 579 496 q 590 542 589 535 l 594 735 q 606 797 607 753 q 615 860 604 842 l 615 954 q 621 929 621 951 q 632 913 621 915 m 574 542 q 564 484 563 525 q 553 428 565 443 q 556 394 556 411 q 548 324 556 371 q 540 254 540 278 q 543 224 540 239 l 532 214 q 538 175 538 199 q 538 125 538 121 l 532 125 q 532 199 518 161 q 521 253 521 221 q 526 281 521 263 q 532 307 532 300 l 532 438 q 538 542 551 468 q 549 602 550 560 q 558 663 547 644 q 556 696 556 678 q 563 768 556 721 q 571 840 571 815 q 569 871 571 856 q 574 985 588 904 l 579 990 q 585 917 579 965 q 590 843 590 868 q 583 693 590 789 q 574 542 575 586 m 543 688 l 532 678 l 528 458 q 517 413 517 442 q 517 364 517 388 l 517 349 l 511 349 q 499 235 511 311 q 486 119 486 158 q 489 79 486 118 q 486 36 492 56 q 486 313 486 33 q 492 433 486 358 q 500 553 500 519 l 501 568 l 507 568 q 528 1011 528 767 q 532 1032 528 1011 q 543 868 543 968 q 543 688 543 664 m 199 615 q 183 642 183 619 q 178 678 183 671 l 178 690 q 169 766 179 715 q 160 842 160 817 q 166 896 160 860 q 172 953 172 932 q 178 988 172 965 q 183 1024 183 1011 q 193 1042 183 1038 l 189 1050 l 193 1058 l 199 1053 q 188 833 188 947 q 199 615 188 721 m 507 708 q 497 675 496 701 q 486 642 497 649 q 475 396 486 549 q 460 151 460 167 l 454 151 q 450 97 449 138 q 439 47 450 63 l 444 26 l 439 21 l 433 32 q 438 157 439 67 q 449 282 438 238 q 443 324 443 301 q 450 399 443 344 q 454 474 457 444 l 460 474 q 468 569 458 507 q 478 660 478 631 q 475 693 478 678 l 481 693 q 490 793 490 738 q 486 894 490 822 q 483 994 482 958 l 486 1047 l 490 1038 l 486 1032 q 497 998 497 1024 q 507 964 496 972 l 507 708 m 151 1026 q 147 733 147 963 l 147 631 q 142 639 142 635 q 144 649 142 643 q 147 657 147 654 q 136 667 147 663 q 131 772 136 697 q 125 876 125 839 q 126 917 125 897 l 131 917 q 136 965 138 929 q 147 1011 136 997 q 142 1028 144 1017 l 147 1038 l 151 1026 m 100 663 q 89 804 89 725 q 100 949 89 882 q 94 979 94 963 q 100 1011 94 997 l 100 663 m 58 725 q 53 714 51 718 q 47 833 47 772 q 53 954 47 896 l 58 949 q 53 836 53 894 q 58 725 53 778 m 428 594 q 433 476 433 542 q 429 324 433 422 q 424 172 424 217 q 413 115 411 156 q 403 57 414 74 l 403 21 q 390 72 390 35 q 396 172 390 97 q 397 271 400 233 q 407 333 408 289 q 418 396 406 378 l 418 494 l 424 494 l 428 594 m 382 511 q 386 394 386 458 q 382 244 386 340 q 376 94 376 139 q 365 64 365 85 q 367 31 365 47 l 365 21 q 350 32 363 21 l 350 188 q 360 245 361 204 q 371 303 360 286 q 368 336 368 319 q 376 408 368 361 q 383 479 383 456 q 382 511 383 496 m 335 324 l 335 428 q 340 315 340 376 q 335 174 340 264 q 329 32 329 74 l 319 26 q 314 108 314 58 q 314 208 314 219 q 324 266 325 225 q 335 324 322 307 m 288 26 l 282 21 q 267 76 267 44 q 274 136 267 97 q 281 196 281 175 q 278 229 281 214 q 289 276 289 247 q 282 328 289 296 l 288 333 q 293 181 293 260 q 288 26 293 100 m 246 21 l 243 21 q 236 26 242 21 q 242 35 242 28 q 240 47 242 49 q 229 96 229 67 q 235 126 229 107 q 240 146 240 144 l 240 250 q 246 194 246 225 q 243 135 246 175 q 240 76 240 96 q 246 21 240 46 m 193 47 l 193 140 q 189 144 189 143 q 192 149 189 146 q 193 157 196 153 q 200 101 200 132 q 193 47 200 72 m 449 860 q 438 886 438 867 q 439 917 438 919 q 436 874 436 896 l 436 854 q 438 806 436 839 q 439 756 439 774 l 444 761 q 439 776 439 767 q 439 797 439 801 q 450 825 450 806 q 449 860 450 864 m 403 756 l 403 917 l 392 907 q 392 824 392 915 q 397 756 392 782 l 403 756 m 365 767 l 365 907 l 356 917 q 350 835 350 879 q 356 756 350 790 l 365 767 m 918 324 l 907 333 l 913 182 q 918 242 918 208 l 918 257 q 918 324 918 338 m 329 767 l 329 907 l 314 917 q 308 833 308 857 q 319 756 308 789 l 329 767 m 882 199 q 882 271 882 186 q 871 333 882 311 q 865 328 865 331 q 868 321 865 325 q 871 314 871 317 q 860 267 860 286 q 861 214 860 206 q 865 203 860 208 q 871 194 871 197 q 865 188 871 192 l 871 182 l 871 185 q 882 199 871 182 m 288 838 q 293 892 288 867 q 283 904 286 894 q 278 917 281 914 q 278 893 278 919 q 267 875 278 879 q 267 822 267 879 q 282 756 267 775 q 281 761 281 758 q 287 771 281 765 q 293 779 293 776 q 290 807 293 788 q 288 838 288 826 m 844 303 q 835 333 835 307 q 822 257 822 301 q 835 182 822 213 l 835 199 q 846 246 846 214 q 844 303 846 310 m 246 756 q 240 833 240 792 q 246 913 240 875 l 240 917 l 231 896 q 231 876 231 888 q 231 846 231 865 q 229 817 229 826 q 246 756 229 775 m 799 182 l 799 219 q 808 250 808 233 q 799 290 808 263 q 793 333 790 318 q 782 268 782 310 q 782 193 782 183 q 796 182 797 182 l 799 182 m 761 182 q 763 257 763 175 l 763 279 q 757 333 763 310 l 746 324 l 746 193 q 758 182 760 182 l 761 182 m 715 178 q 715 199 715 199 l 715 178 z "},"&":{"ha":1190,"x_min":47,"x_max":1143,"o":"m 899 724 l 893 968 l 899 724 m 860 733 q 849 706 849 725 q 850 674 849 689 l 849 663 l 843 1017 q 861 889 861 971 q 860 733 861 715 m 822 756 q 811 709 810 743 q 800 663 813 675 l 806 663 l 806 619 l 800 619 q 794 835 794 725 q 800 1050 794 944 l 799 1039 q 807 995 799 1024 q 811 946 815 967 l 822 936 l 822 756 m 1143 424 l 1138 515 l 1143 424 m 1094 358 l 1089 554 q 1089 546 1089 550 q 1097 506 1089 532 q 1106 467 1106 481 q 1094 435 1106 449 l 1094 358 m 1056 368 q 1044 340 1046 360 q 1046 307 1046 324 l 1046 297 q 1039 421 1039 354 q 1046 549 1039 488 l 1051 549 q 1057 468 1057 517 q 1056 368 1057 358 m 1018 25 l 1007 14 l 990 47 l 990 510 q 1003 526 1001 514 q 1001 547 1001 511 l 1001 554 l 1004 554 q 1018 543 1011 554 l 1018 379 q 1007 339 1006 369 q 996 297 1008 308 l 996 292 q 1007 271 994 279 q 1007 232 1007 275 q 1018 200 1007 210 l 1018 25 m 1143 42 l 1138 172 l 1143 42 m 1106 161 q 1106 97 1106 169 q 1094 42 1106 61 l 1094 14 q 1088 121 1088 63 q 1094 232 1088 181 q 1093 193 1093 238 q 1106 161 1093 171 m 1067 74 q 1056 41 1056 68 q 1040 14 1057 14 l 1046 282 q 1043 260 1043 271 q 1051 216 1043 244 q 1058 172 1058 188 q 1056 150 1058 161 q 1068 117 1068 140 q 1067 74 1068 68 m 979 532 q 974 426 974 497 q 969 319 975 354 q 957 296 957 313 l 958 265 l 964 260 q 975 144 975 214 q 969 14 975 99 q 950 47 954 18 q 947 90 949 69 q 936 47 936 82 q 925 14 936 22 l 919 14 q 908 77 919 36 q 899 140 897 118 q 886 86 886 119 q 888 29 888 57 l 888 14 q 876 38 875 17 q 871 63 876 58 l 860 129 l 838 96 l 838 19 q 829 75 832 29 q 806 118 828 113 l 789 51 q 782 92 783 61 q 767 129 781 118 l 768 124 q 758 94 768 113 q 749 64 749 75 q 751 51 749 58 q 741 86 746 68 q 740 118 736 104 l 729 129 l 718 101 l 724 96 q 701 31 700 50 l 690 140 q 681 104 681 135 q 669 85 681 90 q 674 69 674 78 q 647 19 674 64 q 647 69 647 15 q 636 107 647 97 q 631 82 631 101 q 619 57 632 63 q 625 47 625 53 q 604 14 625 35 q 599 47 599 18 q 588 68 599 65 q 554 8 582 26 q 550 35 550 13 q 539 47 550 46 l 522 8 l 517 7 q 494 31 501 7 l 468 8 l 440 19 l 424 8 l 401 42 l 392 8 l 364 31 l 358 57 q 347 14 338 54 q 310 96 319 29 l 304 96 q 299 58 297 96 l 299 14 q 272 64 272 57 q 276 79 272 72 q 263 110 269 83 q 254 146 258 128 l 249 31 q 222 97 222 72 q 228 129 222 111 q 214 196 215 149 q 211 265 213 231 l 206 265 l 200 42 q 167 271 167 119 l 167 407 q 183 521 167 497 q 188 573 181 538 q 194 614 196 608 q 201 496 201 574 q 206 379 200 418 l 211 379 q 215 451 217 399 q 228 521 215 499 l 222 560 q 232 592 232 567 q 243 625 232 617 q 232 979 235 743 q 243 1028 253 985 q 249 763 250 939 q 254 500 249 586 q 265 534 265 506 q 276 571 265 563 q 280 615 276 583 q 283 664 283 647 q 271 718 283 697 l 271 963 q 282 996 282 971 q 293 1028 282 1021 l 293 1044 q 298 802 299 964 q 304 560 297 640 q 315 580 315 561 q 321 603 315 599 q 328 699 328 644 q 322 828 328 742 q 315 951 315 914 q 326 1007 326 958 l 321 1013 q 333 1040 328 1019 q 347 1067 339 1060 l 347 994 q 353 942 347 964 l 358 942 q 392 1078 363 1014 l 401 1001 q 413 1022 414 1003 q 418 1044 413 1040 q 440 1078 424 1078 l 446 1078 l 451 1039 q 494 1078 472 1076 l 500 1061 q 518 1075 507 1075 q 532 1072 522 1075 q 546 1069 542 1069 q 560 1078 554 1069 l 568 1079 q 580 1065 575 1079 q 589 1050 585 1050 q 599 1061 592 1050 l 599 1078 l 603 1078 q 642 1017 618 1078 q 647 1078 647 1028 q 678 1033 672 1068 q 690 979 685 989 l 696 1078 q 729 989 725 1050 q 735 892 732 940 l 740 892 l 746 1056 q 778 946 772 1014 q 778 829 778 943 q 763 674 778 700 q 751 625 771 635 q 756 531 753 578 q 778 450 761 458 q 783 486 783 454 q 794 515 783 508 l 794 538 q 806 483 794 519 q 817 429 817 447 q 833 543 828 453 q 843 481 832 522 q 854 418 854 439 q 865 461 865 426 q 876 500 865 489 l 882 554 l 893 439 q 904 478 908 461 q 914 517 914 483 q 925 554 914 544 l 931 554 l 925 538 q 937 502 938 529 q 947 467 936 475 q 953 526 953 476 l 964 538 l 964 554 l 979 532 m 200 679 l 200 694 l 200 700 q 192 767 200 722 q 183 835 183 811 q 189 865 183 844 q 194 892 194 885 l 194 990 q 200 865 200 935 q 200 772 200 849 q 200 679 199 715 m 151 761 l 151 783 q 151 761 151 783 m 146 68 q 146 96 146 64 q 135 113 146 108 q 135 164 135 104 q 124 206 135 192 l 124 435 q 135 472 135 447 q 133 514 135 493 l 135 526 l 140 526 l 146 586 q 151 329 151 463 q 146 68 151 196 m 101 101 q 85 261 85 161 q 85 450 85 474 q 97 489 97 464 q 96 531 96 510 l 96 543 q 103 360 103 463 l 103 310 l 101 101 m 53 161 l 47 478 q 53 161 53 172 m 701 772 l 696 892 l 701 772 m 664 783 q 663 801 663 790 q 664 828 663 810 q 665 854 665 846 q 647 908 665 893 l 653 728 q 651 760 651 724 q 664 783 651 776 m 619 826 q 624 846 624 836 q 616 877 624 857 q 610 908 608 897 l 599 897 l 599 750 q 613 739 617 739 l 615 739 q 611 754 611 747 q 619 781 611 764 q 626 807 626 799 q 619 826 626 817 m 582 810 q 582 844 582 808 q 571 871 582 863 q 571 892 571 865 q 576 908 571 903 l 574 908 q 566 903 571 908 q 560 897 561 899 l 560 739 l 565 739 q 576 744 574 739 q 569 779 569 764 q 582 810 569 800 m 735 461 q 740 632 740 543 q 735 799 740 721 l 729 647 q 718 613 718 642 q 707 592 718 597 q 735 461 721 550 m 528 908 l 522 908 q 525 893 525 900 q 517 865 525 883 q 508 836 508 847 q 515 811 508 829 q 522 778 522 793 q 522 758 522 771 q 521 740 521 747 q 522 728 521 733 q 533 815 533 763 q 528 908 533 849 m 494 761 l 494 897 q 481 908 478 908 l 478 908 q 472 854 472 885 q 478 789 472 831 q 483 724 483 742 q 483 743 483 717 q 494 761 483 757 m 690 456 l 686 653 q 681 645 686 651 q 676 636 676 639 q 681 631 676 633 q 669 601 669 618 q 675 575 669 593 q 681 549 681 557 q 679 540 681 546 q 678 531 678 533 q 684 492 678 517 q 690 456 690 468 m 446 728 q 446 818 446 725 l 446 838 q 440 908 446 879 q 428 815 428 861 q 446 728 428 763 m 936 189 q 936 292 936 178 l 936 318 q 931 396 936 363 q 932 365 932 382 q 930 314 932 349 q 928 263 928 279 q 936 189 928 221 m 397 772 l 397 892 q 390 831 390 864 q 397 772 390 796 m 642 506 q 642 574 642 501 l 642 589 q 636 642 642 619 q 638 633 638 638 q 633 615 638 626 q 629 599 629 604 q 631 594 629 597 q 632 590 632 592 q 625 582 632 588 q 637 542 638 571 q 642 506 636 513 m 593 565 l 588 614 l 593 565 m 888 249 l 888 331 q 881 288 881 313 q 888 249 881 263 m 407 631 l 407 653 l 401 653 l 407 631 m 369 642 q 358 689 357 654 q 353 733 360 724 l 358 603 q 357 611 357 607 q 369 642 357 621 m 701 249 l 696 347 l 701 249 m 653 226 q 664 283 664 251 q 647 396 664 283 l 653 226 m 625 265 q 619 289 619 275 q 625 314 619 304 q 599 456 613 361 l 604 211 q 613 238 610 218 q 625 265 615 258 m 576 374 q 549 506 563 417 l 544 303 q 533 349 533 310 q 522 379 533 371 l 511 494 q 500 429 499 474 q 494 364 501 381 q 468 494 482 406 l 463 494 q 464 479 464 486 q 446 413 464 464 q 435 461 435 418 q 418 494 435 488 q 425 468 425 481 q 413 444 425 451 q 413 318 413 460 q 429 211 413 250 q 446 228 444 211 q 451 254 446 250 q 463 226 463 253 q 474 210 463 210 q 483 222 481 210 q 489 238 486 235 q 501 226 500 239 q 511 211 503 213 q 529 243 522 218 q 544 276 536 268 l 554 206 q 565 211 560 211 l 571 254 q 582 283 582 268 q 576 315 582 294 q 569 347 569 336 q 576 374 569 363 m 392 206 q 397 363 397 351 q 381 506 397 451 q 374 249 374 229 q 392 206 374 218 m 347 211 q 347 353 347 206 l 347 407 q 342 515 347 469 l 336 467 l 331 467 q 333 431 333 450 q 329 362 333 407 q 325 293 325 317 q 347 211 325 236 m 299 226 l 293 478 q 293 438 293 481 q 282 407 293 417 q 282 315 282 417 q 299 226 282 256 m 249 271 q 249 288 249 288 l 249 271 z "},"'":{"ha":399,"x_min":47,"x_max":351,"o":"m 351 642 l 346 1026 q 351 642 351 653 m 314 642 l 303 632 l 299 1038 l 314 1021 l 314 642 m 271 1021 l 267 632 l 264 631 q 250 642 265 631 l 250 1026 l 261 1038 l 271 1021 m 235 658 q 224 632 221 649 l 218 632 q 213 793 213 704 l 213 844 q 213 1026 213 1032 l 224 1038 q 235 861 235 969 q 233 760 235 843 q 235 658 233 697 m 197 679 q 186 638 186 675 l 186 632 l 169 632 l 175 1038 l 186 1038 q 186 1010 186 1039 q 192 989 186 996 q 197 865 197 933 l 197 822 q 197 750 197 810 q 197 679 196 707 m 149 632 l 132 632 q 121 792 121 693 q 122 974 121 988 q 132 1038 132 986 l 149 1038 l 149 632 m 100 632 q 83 801 83 693 q 85 1006 83 1029 q 96 1038 96 1010 q 101 871 101 964 l 101 819 q 100 725 101 804 q 100 632 100 668 m 47 647 l 47 1015 q 53 833 53 929 q 47 647 53 738 z "},"(":{"ha":553,"x_min":47,"x_max":506,"o":"m 506 957 l 500 1028 l 506 957 m 468 996 l 457 985 l 457 789 l 451 1067 q 457 1026 457 1061 q 468 996 457 1004 m 418 -193 l 408 -204 l 403 1078 l 418 1067 l 418 832 l 408 821 l 408 42 l 418 31 l 418 -193 m 381 -193 l 369 -204 q 353 383 354 -181 q 353 1033 353 708 q 364 1078 372 1042 l 381 1056 l 381 871 l 369 860 l 369 554 l 358 543 l 358 319 l 369 308 l 369 14 l 381 3 l 381 -193 m 336 1061 l 332 647 l 321 636 l 321 226 l 332 217 q 332 61 328 157 q 338 -94 338 -61 q 332 -204 338 -154 q 314 -160 315 -190 q 315 -108 315 -194 q 310 -68 315 -108 l 304 -68 q 299 -132 299 -85 q 288 -193 300 -174 q 292 -199 292 -193 q 288 -204 292 -204 q 276 -149 275 -189 q 265 -96 278 -110 q 261 118 268 -24 l 256 118 l 250 -204 q 239 -151 239 -200 q 228 -117 239 -128 q 217 767 222 32 q 221 878 217 806 q 228 990 226 960 q 240 1031 238 1000 q 244 1078 242 1054 q 249 910 250 1021 q 256 744 249 800 l 261 744 q 265 913 264 775 q 288 1078 267 1015 l 293 1072 l 288 1056 q 300 1000 297 1044 q 304 942 303 971 l 310 942 q 315 1011 315 960 q 326 1078 314 1056 l 336 1061 m 200 -204 q 182 -89 182 -157 q 190 19 182 -53 l 179 31 l 179 843 l 190 854 q 194 1078 176 942 l 200 -204 m 151 -156 q 146 -64 146 -137 q 143 124 146 -12 q 140 314 139 243 l 129 325 l 129 538 l 140 549 q 135 713 135 614 q 135 875 135 865 l 146 886 l 146 1028 l 151 -156 m 107 -35 l 103 -35 l 97 232 l 86 243 l 86 619 l 97 631 l 97 908 l 101 908 l 107 -35 m 53 178 q 47 435 47 301 q 53 696 47 569 l 53 178 m 468 -117 q 457 -149 457 -126 q 457 -182 457 -165 l 457 -193 l 457 -106 l 468 -117 m 506 -156 l 500 -85 l 506 -156 m 304 -44 l 299 919 l 293 919 q 288 554 288 554 q 299 -46 288 554 l 304 -44 m 256 118 l 256 744 l 250 744 l 244 733 l 250 118 l 256 118 z "},")":{"ha":560,"x_min":47,"x_max":513,"o":"m 53 936 q 47 988 47 960 q 53 1039 47 1015 q 60 988 60 1015 q 53 936 60 960 m 103 789 q 96 871 96 826 q 103 951 96 914 q 92 981 92 961 q 92 1017 92 1022 q 101 1035 101 1024 q 99 1048 101 1039 q 97 1063 97 1057 q 103 1078 97 1071 q 108 1054 108 1067 q 104 1026 108 1044 q 100 1000 100 1008 q 104 944 100 982 q 108 886 108 906 q 103 789 108 835 m 507 189 q 500 442 500 313 q 507 696 500 571 q 513 442 513 571 q 507 189 513 313 m 468 631 l 468 376 q 463 304 468 353 q 457 232 457 256 q 461 96 457 232 q 457 -40 463 15 l 457 908 q 457 653 469 781 q 468 631 468 631 m 431 336 l 419 325 q 419 144 419 340 q 408 -144 419 -87 q 403 -14 403 -14 q 403 972 403 -14 q 408 1028 403 993 q 415 963 415 996 q 408 897 415 929 q 421 811 418 890 q 421 658 422 754 q 419 554 419 532 l 431 543 l 431 336 m 381 42 l 369 31 l 369 -139 q 360 -193 357 -146 q 364 -199 364 -193 q 360 -204 364 -204 q 353 -167 353 -167 l 353 1033 q 360 1067 353 1033 q 365 1013 354 1028 l 369 849 l 381 838 l 381 42 m 342 85 l 332 74 l 332 -117 q 321 -172 321 -126 q 304 -204 321 -197 q 310 -54 310 -143 l 310 118 l 299 129 l 293 -85 q 283 -145 282 -100 q 265 -204 283 -190 q 261 -135 260 -186 q 250 -68 261 -89 q 244 -127 243 -85 q 233 -187 246 -169 l 233 -204 q 215 -122 215 -176 q 217 -71 215 -112 q 217 -19 218 -39 l 228 -8 l 228 232 l 233 232 q 239 424 239 311 l 239 642 l 228 653 l 228 881 l 217 892 l 218 921 q 217 1000 217 960 q 228 1078 217 1046 q 246 1032 243 1063 q 244 981 244 1051 q 250 942 244 981 q 260 986 260 958 q 261 1032 260 1031 l 265 1078 q 283 1026 285 1065 q 293 968 282 982 q 299 756 290 897 l 304 756 q 310 1039 307 789 l 310 1078 q 332 810 324 1063 l 342 799 l 342 85 m 206 331 q 194 -204 206 331 l 179 -193 l 179 14 l 190 25 l 190 319 l 200 331 l 203 413 q 197 597 206 479 q 188 782 188 728 q 190 849 188 817 l 179 860 l 179 1067 l 190 1078 q 214 760 214 990 q 210 522 214 672 q 206 331 206 371 m 157 -199 l 151 -204 l 140 -193 l 140 51 l 151 63 l 151 815 l 140 826 l 140 1067 l 151 1078 l 157 1072 q 150 572 147 867 q 157 74 154 324 q 157 -199 153 -17 m 108 -193 q 97 -187 104 -194 q 100 -172 100 -181 q 96 -146 100 -164 q 92 -119 92 -128 q 103 -90 92 -101 q 96 -3 96 -49 q 103 85 96 44 q 108 15 108 54 q 105 -56 108 -8 q 101 -126 101 -103 q 108 -193 101 -164 m 53 -167 q 47 -119 47 -146 q 53 -74 47 -94 q 60 -119 60 -94 q 53 -167 60 -146 m 315 140 l 315 744 l 310 744 l 304 739 l 310 140 l 315 140 m 271 178 l 271 701 l 261 713 l 256 897 q 260 526 263 750 q 256 156 256 156 q 261 -35 256 156 l 261 167 l 271 178 z "},"*":{"ha":750,"x_min":47,"x_max":703,"o":"m 701 871 l 696 919 l 701 871 m 653 838 l 647 968 l 653 838 m 615 963 l 604 810 l 599 968 l 603 968 l 606 968 q 615 963 611 968 m 696 679 l 696 733 q 703 707 703 722 q 696 679 703 690 m 571 756 q 572 688 572 761 q 560 631 572 650 l 554 636 q 561 644 561 640 q 555 657 561 650 q 549 669 549 664 l 549 942 q 560 954 560 958 l 560 957 l 554 963 l 560 968 q 572 914 572 949 q 571 849 572 851 q 563 824 569 842 q 557 794 557 806 q 571 756 557 772 m 647 631 l 647 772 q 654 703 654 743 q 647 631 654 663 m 615 756 l 610 631 l 599 631 l 599 794 q 603 774 603 790 q 615 756 603 758 m 533 750 q 533 685 533 756 q 522 631 533 650 l 511 657 q 505 595 504 638 q 500 532 506 553 q 494 657 503 575 l 483 647 l 483 631 l 468 647 q 463 582 461 629 q 451 521 463 540 q 453 592 453 515 q 429 642 453 629 q 413 521 426 601 q 401 593 401 536 q 397 628 401 607 q 392 662 392 650 q 385 679 392 674 l 379 679 q 375 547 376 665 l 374 521 q 357 579 357 540 q 364 647 357 589 q 342 668 358 657 q 337 595 336 644 q 331 521 338 546 l 325 521 q 320 595 319 546 q 314 668 321 644 q 299 554 299 657 q 282 521 299 531 q 282 600 282 504 q 276 668 282 642 q 265 631 265 669 l 254 631 l 243 521 q 228 642 239 561 l 217 631 l 211 636 q 211 767 224 701 l 232 799 q 215 865 215 819 q 217 900 215 878 q 218 932 218 922 q 211 963 218 956 l 217 968 q 227 944 228 964 q 232 919 226 925 q 244 938 244 924 l 243 957 q 232 993 232 969 q 232 1039 232 1043 l 238 1039 l 243 1078 l 254 968 l 265 968 q 265 946 265 969 q 271 931 265 936 l 276 931 q 282 1058 279 946 l 282 1078 l 285 1078 q 299 1047 297 1078 q 297 1006 297 1078 q 314 931 297 956 q 319 1058 318 946 l 319 1078 l 336 1078 q 336 997 336 1081 q 342 931 336 957 l 364 951 q 357 1017 357 992 q 369 1078 357 1054 q 375 1000 376 1051 q 379 925 374 949 q 391 942 392 925 q 396 963 390 958 q 401 1022 401 978 q 413 1078 400 1060 q 413 1057 413 1079 q 424 1039 413 1043 q 422 994 422 1042 q 435 963 422 971 q 451 1010 451 978 q 450 1061 451 1035 l 451 1078 q 463 1015 464 1057 q 468 951 461 969 l 478 957 l 478 968 q 483 950 483 968 q 492 940 483 940 l 494 942 l 500 1067 q 506 1003 507 1046 q 511 942 504 961 l 522 968 q 533 914 533 949 l 533 849 q 522 826 533 842 q 511 801 511 810 q 522 783 511 792 l 522 771 q 533 750 522 756 m 101 821 q 83 890 83 844 q 96 968 83 932 q 103 903 103 944 q 101 821 103 804 m 200 543 l 189 647 l 178 642 l 178 631 l 179 636 q 170 673 179 649 q 161 711 161 697 q 172 739 161 726 l 172 772 q 185 792 185 775 q 183 821 185 826 q 169 856 178 829 q 161 892 161 882 q 167 924 161 903 q 174 956 174 944 q 172 968 174 963 l 189 951 l 194 1056 q 200 849 200 961 l 200 543 m 53 843 l 47 838 l 47 957 l 53 843 m 151 657 q 140 639 140 654 q 135 619 140 624 q 122 719 122 700 l 124 739 q 137 776 133 750 q 146 810 140 801 q 135 840 135 814 q 124 860 135 854 q 124 908 124 856 q 135 946 124 933 l 135 968 q 150 942 150 961 q 147 921 150 935 q 144 899 144 907 q 148 844 144 881 q 151 789 151 807 q 151 657 151 649 m 96 631 q 85 685 85 650 q 85 750 85 756 q 96 783 96 756 q 103 707 103 747 q 96 631 103 665 m 53 647 l 47 642 l 47 761 l 53 647 m 494 750 l 489 832 q 478 806 478 821 q 485 778 478 794 q 494 750 493 757 m 446 783 l 440 821 l 440 778 l 446 783 m 308 810 l 303 810 l 303 789 q 310 796 310 790 l 310 799 q 308 810 310 813 m 424 663 l 424 685 l 418 663 l 424 663 m 260 772 q 258 779 258 775 q 262 792 258 785 q 265 804 265 800 q 254 815 265 811 q 260 824 260 822 q 254 832 260 825 l 249 826 l 254 821 q 256 811 256 817 q 254 799 256 807 q 254 786 254 790 q 260 772 254 774 m 238 642 l 238 663 l 232 674 l 238 642 z "},"+":{"ha":1043,"x_min":47,"x_max":996,"o":"m 996 347 l 990 439 l 996 347 m 947 308 l 947 331 q 947 308 947 331 m 908 319 l 897 308 l 892 478 l 908 461 l 908 319 m 865 314 l 849 303 l 843 478 q 847 478 846 478 q 865 467 853 478 l 865 314 m 826 444 q 826 403 824 429 q 829 360 829 367 q 800 303 829 315 q 794 326 794 306 q 783 336 794 336 l 785 322 q 773 305 785 308 q 742 303 761 301 q 717 304 714 304 l 707 303 l 701 63 l 696 297 q 678 303 690 303 q 658 303 657 303 l 653 14 l 647 297 l 614 303 q 609 159 608 256 q 603 14 610 63 q 598 159 597 63 q 592 303 599 256 l 576 303 q 570 159 569 256 q 565 14 571 63 l 549 31 q 549 181 549 15 q 543 303 549 254 l 538 303 l 532 31 l 521 14 l 517 14 q 510 159 510 63 q 506 303 511 256 l 500 303 l 494 42 l 483 31 l 483 14 l 467 25 q 467 178 467 8 q 461 303 467 253 l 450 303 q 445 156 444 254 q 440 8 446 57 l 435 8 q 428 156 428 57 q 424 303 429 254 l 401 303 l 396 14 q 378 157 376 64 q 374 303 381 268 l 353 303 l 347 42 q 342 258 344 61 l 342 297 q 296 303 331 304 q 254 314 267 303 q 232 303 243 303 q 215 372 219 303 q 211 461 211 458 l 222 478 l 226 478 q 254 467 249 479 q 298 478 265 479 q 342 489 331 476 l 342 750 q 348 613 349 704 q 353 478 347 522 l 374 478 l 379 733 l 385 733 l 390 783 q 397 630 397 732 q 401 478 396 528 l 424 478 l 429 783 l 440 783 q 445 630 446 732 q 450 478 444 528 l 461 478 l 467 767 l 478 783 q 494 726 490 761 q 496 663 497 701 q 494 601 494 603 q 500 478 494 526 l 511 489 q 506 767 513 582 l 521 783 q 533 631 533 728 q 538 478 532 521 l 543 478 q 544 639 543 558 q 560 783 547 774 l 571 772 l 571 489 l 592 478 q 597 746 596 510 l 597 783 l 614 767 q 608 638 608 715 q 608 489 608 482 l 636 478 l 647 489 l 647 783 l 653 483 q 675 476 658 476 l 685 478 l 696 489 l 696 733 l 701 483 l 778 478 l 783 450 l 794 461 l 794 478 l 806 481 q 819 467 815 481 q 826 444 826 446 m 200 308 q 192 306 197 310 q 183 303 186 303 q 178 308 178 303 l 172 478 l 194 478 q 200 401 200 447 q 200 308 200 299 m 151 308 l 149 310 q 140 303 146 310 l 140 310 q 131 358 140 326 q 121 407 121 390 q 124 429 121 418 l 129 429 l 135 478 l 146 478 q 151 410 151 447 l 151 390 q 151 308 151 301 m 101 308 q 85 367 85 326 q 85 444 85 454 q 96 478 96 450 q 101 410 101 447 l 101 390 q 101 308 101 301 m 53 331 l 47 325 l 47 456 l 53 331 z "},",":{"ha":564,"x_min":53,"x_max":517,"o":"m 517 90 l 511 213 l 517 90 m 467 0 l 461 258 q 478 154 478 163 q 472 124 478 143 q 467 101 467 104 l 467 0 m 439 179 q 433 165 433 175 q 433 146 433 144 q 438 140 438 144 q 428 124 438 143 q 431 89 431 107 q 422 15 431 64 q 414 -57 414 -33 q 417 -89 414 -74 l 411 258 q 428 219 429 250 q 439 179 428 188 m 383 247 l 383 192 q 378 -67 383 171 q 365 -101 367 -78 q 367 -139 367 -119 l 367 -150 q 360 -1 360 -85 l 360 43 q 361 224 360 242 q 372 258 372 231 l 383 247 m 343 63 l 332 51 q 332 -68 332 -8 q 310 -174 328 -162 q 311 -40 311 -186 q 304 68 311 25 l 299 68 q 288 -53 299 19 q 271 -174 272 -164 l 260 -162 q 260 -78 260 -171 q 254 -11 260 -37 l 249 -11 q 243 -90 243 -26 q 237 -131 243 -104 q 232 -174 231 -158 q 221 -133 221 -167 q 211 -104 221 -104 q 193 -111 204 -104 q 193 -144 193 -107 q 182 -174 193 -165 q 182 -144 182 -174 q 171 -122 182 -128 q 167 -90 167 -107 q 175 -28 167 -69 q 183 35 183 14 q 176 79 183 57 q 188 140 189 96 q 199 201 186 185 l 204 258 q 204 121 204 269 l 204 65 q 210 -44 204 8 l 215 -44 l 214 -31 q 224 45 214 -4 q 233 119 233 94 q 226 168 233 146 q 237 213 238 179 q 254 258 236 247 q 254 140 254 269 q 260 46 254 83 l 265 46 q 276 151 265 88 q 293 258 293 251 l 293 246 q 304 224 293 231 q 304 175 304 229 q 310 135 304 150 q 321 197 322 153 q 332 258 319 240 q 344 167 344 224 q 343 63 344 49 m 154 -162 l 142 -174 q 125 -96 125 -146 q 125 -11 125 -6 q 137 51 138 7 q 149 113 136 94 l 149 213 q 154 68 154 149 l 154 17 q 154 -162 154 -178 m 103 -174 q 85 -92 85 -146 q 86 11 85 24 q 99 58 97 29 q 97 108 97 83 l 97 124 q 104 10 104 74 l 103 -29 q 103 -174 103 -186 m 53 -150 l 53 -128 q 53 -150 53 -128 z "},"-":{"ha":754,"x_min":47,"x_max":707,"o":"m 707 401 l 701 396 l 701 506 l 707 401 m 658 358 l 653 538 q 664 436 664 492 q 658 358 664 396 m 615 358 l 604 358 l 604 538 l 615 538 l 615 358 m 576 368 q 560 357 565 357 q 554 358 558 357 l 554 538 q 560 539 557 539 q 576 526 565 539 l 576 368 m 539 368 q 515 358 533 358 l 506 358 l 506 363 q 497 374 506 374 q 489 368 494 374 l 489 358 l 265 358 l 267 363 q 261 374 267 371 q 250 358 249 358 q 217 368 217 360 l 217 521 q 243 539 236 539 q 250 538 246 539 l 249 533 q 261 515 249 526 l 271 538 l 483 538 l 494 515 q 506 529 501 519 q 518 539 511 539 q 528 538 518 539 q 539 458 539 508 q 539 368 539 357 m 200 358 q 196 357 199 357 q 179 368 189 357 l 179 526 q 196 539 190 539 q 200 538 197 539 l 200 358 m 157 364 q 146 357 154 357 l 140 358 l 140 538 l 151 538 q 151 497 151 522 q 151 456 151 465 l 151 432 q 157 364 151 394 m 103 358 q 96 372 96 364 q 99 387 96 378 q 103 401 103 396 q 92 418 103 411 q 90 440 90 429 q 97 486 90 456 q 103 532 103 517 l 103 538 l 103 358 m 53 396 q 47 450 47 421 q 53 506 47 481 q 60 450 60 481 q 53 396 60 421 z "},".":{"ha":515,"x_min":47,"x_max":468,"o":"m 468 101 l 463 163 l 468 101 m 418 39 l 418 63 q 418 39 418 63 m 379 39 q 367 22 367 25 q 361 133 361 72 q 367 247 361 193 q 379 151 379 211 q 379 39 379 31 m 339 51 l 336 51 q 328 22 329 51 l 325 22 q 311 33 328 22 q 318 132 318 81 q 311 229 318 183 l 322 247 q 340 160 340 218 q 339 51 340 38 m 300 201 q 301 124 301 208 q 295 73 301 104 q 289 22 289 42 l 272 22 q 274 33 274 28 q 256 79 274 58 q 250 44 250 76 q 239 22 250 29 q 221 106 221 49 q 222 213 221 225 q 233 247 231 218 q 249 217 251 243 q 256 185 246 190 q 272 247 276 210 l 289 247 q 288 221 288 250 q 300 201 288 207 m 206 235 q 206 135 206 239 l 206 107 q 200 22 206 61 l 183 39 q 182 150 182 21 q 194 247 182 210 l 206 235 m 160 28 l 154 22 l 143 39 q 143 151 143 31 q 154 247 143 211 l 160 240 q 154 135 154 190 q 160 28 154 79 m 110 229 q 104 72 104 197 l 104 50 l 104 28 q 93 158 93 163 q 104 235 93 203 l 110 229 m 54 79 q 47 132 47 103 q 54 185 47 161 l 54 79 z "},"/":{"ha":817,"x_min":47,"x_max":769,"o":"m 769 929 l 769 951 q 769 929 769 951 m 729 951 q 718 881 717 928 q 713 807 719 826 l 713 1114 q 731 1043 731 1092 q 729 951 731 942 m 685 1097 l 679 835 q 674 806 679 826 q 668 774 668 785 q 668 747 668 767 q 669 721 669 731 l 668 700 q 663 856 663 769 l 663 914 q 661 1018 663 1150 q 674 1114 663 1094 l 685 1097 m 640 1108 q 635 1099 635 1107 q 635 1086 635 1085 q 647 1033 647 1065 q 641 1004 647 1022 q 635 981 635 986 l 629 722 q 623 691 629 714 q 617 654 617 668 l 618 597 l 618 578 q 612 799 611 651 q 607 1019 613 946 l 601 1019 q 596 933 596 1001 q 590 899 596 921 q 585 868 585 876 q 568 465 578 733 q 561 656 561 540 q 557 775 561 642 q 563 890 554 856 q 572 986 572 942 q 576 1038 572 1006 q 581 1096 581 1069 q 590 1114 581 1107 q 601 1064 590 1097 q 613 1014 613 1031 q 624 1063 625 1026 q 635 1114 622 1100 l 640 1108 m 557 901 q 546 813 546 883 q 540 744 546 790 q 535 674 535 699 q 522 611 535 635 q 529 554 529 583 q 522 472 529 526 q 515 389 515 417 q 517 353 515 371 q 512 572 511 426 q 506 790 513 718 q 494 697 494 771 q 490 631 494 675 q 485 563 485 586 q 472 504 485 526 q 479 444 479 476 q 472 360 479 417 q 464 274 464 303 q 467 235 464 254 q 461 458 461 310 q 456 678 461 606 l 450 678 l 450 658 q 440 546 450 621 q 431 433 431 471 q 433 392 431 411 q 428 269 414 357 q 415 207 415 246 q 417 143 417 175 l 417 124 q 410 340 410 196 q 406 554 411 483 l 400 554 q 385 297 400 456 q 361 39 363 61 l 361 436 l 372 449 l 371 488 q 378 706 375 560 q 389 801 389 726 q 394 892 389 832 q 400 986 400 953 q 406 853 404 929 q 411 549 404 751 q 422 628 424 574 q 433 706 421 682 q 426 763 426 733 q 434 844 426 790 q 442 926 442 899 q 439 963 442 946 l 444 963 l 450 1086 q 456 878 457 1017 q 461 672 456 740 l 467 672 q 472 743 474 692 q 483 813 471 790 q 476 869 476 839 q 484 951 476 897 q 492 1033 492 1006 q 489 1069 492 1053 q 500 1114 503 1075 q 506 949 507 1058 q 511 785 506 839 l 517 785 q 522 861 524 806 q 533 935 522 911 q 528 1047 536 974 q 539 1114 542 1057 l 557 1103 l 557 901 m 344 322 l 343 303 l 338 303 q 327 163 339 256 q 315 22 315 69 q 310 172 310 72 q 304 319 311 271 l 299 319 l 299 303 q 290 200 300 267 q 281 99 281 133 q 282 63 281 79 q 271 22 269 57 l 265 22 q 260 118 260 54 q 254 213 260 182 l 249 213 q 243 128 243 196 q 237 77 243 111 q 232 22 231 43 l 226 22 q 221 111 221 63 q 225 238 221 140 q 226 364 229 315 q 238 426 238 388 q 236 490 238 458 l 238 510 l 243 510 l 249 639 q 255 423 256 567 q 260 207 254 279 l 265 207 l 276 488 l 282 488 l 282 506 q 292 615 282 543 q 301 722 301 686 q 299 761 301 743 q 305 545 306 689 q 310 331 304 401 l 315 331 q 329 507 318 375 q 338 683 338 617 q 350 739 338 719 l 350 874 q 356 683 356 799 q 344 322 356 676 m 204 107 q 192 65 192 96 q 182 22 193 33 q 171 89 171 50 q 176 168 171 106 q 176 247 181 217 q 188 346 188 268 q 193 379 188 357 q 199 408 199 401 l 199 526 q 204 364 204 453 l 204 107 m 154 33 l 142 22 q 125 89 125 50 q 133 162 125 114 q 140 233 140 210 q 136 275 140 256 q 149 333 149 297 q 147 396 147 364 l 149 414 q 154 267 154 349 l 154 217 q 154 33 154 17 m 103 22 q 85 83 85 42 q 86 163 85 172 q 99 219 97 183 q 97 278 97 249 l 97 297 q 104 192 104 251 l 103 156 q 103 22 103 10 m 47 39 l 47 185 q 54 114 54 156 q 47 39 54 74 z "},":":{"ha":501,"x_min":47,"x_max":454,"o":"m 454 535 q 444 539 444 536 q 447 544 444 540 q 450 551 450 549 q 449 557 450 554 q 450 563 450 560 q 447 574 450 567 q 443 585 443 582 q 449 594 443 590 q 454 568 454 585 q 454 535 454 532 m 400 476 q 394 564 394 518 q 400 653 394 611 q 406 564 406 611 q 400 476 406 518 m 363 653 q 364 549 364 667 q 353 456 364 490 l 347 461 q 353 564 353 510 q 347 669 353 619 l 363 653 m 325 488 q 315 456 315 482 l 299 471 l 310 669 q 326 588 326 642 q 325 488 326 475 m 283 636 q 289 556 289 586 q 283 506 289 539 q 278 456 276 472 q 258 482 263 457 q 246 514 253 507 q 240 475 240 508 q 224 456 240 456 q 213 539 213 486 q 214 636 213 654 q 224 669 222 640 l 226 669 q 240 658 224 669 q 239 635 239 663 q 246 615 239 622 q 260 643 257 624 q 267 674 264 668 q 278 657 278 674 q 283 636 278 640 m 203 471 l 186 456 q 175 547 175 490 q 176 653 175 671 q 188 660 183 653 q 194 668 192 668 q 203 658 196 668 q 197 565 197 614 q 203 471 197 515 m 150 456 q 138 547 138 490 q 139 653 138 671 l 150 669 q 156 564 156 621 q 150 456 156 506 m 101 465 q 101 503 101 464 q 90 535 101 525 q 88 557 88 546 q 96 600 88 572 q 104 642 104 628 q 101 664 104 653 q 106 578 106 614 l 106 551 q 101 465 106 514 m 53 514 q 47 564 47 538 q 53 615 47 592 q 60 564 60 592 q 53 514 60 538 m 449 71 q 447 78 447 74 q 449 89 447 82 q 449 100 449 96 q 443 124 449 115 l 449 129 q 454 101 454 121 q 449 71 454 82 m 400 11 q 394 100 394 53 q 400 188 394 147 q 406 100 406 146 q 400 11 406 53 m 357 1 q 347 -4 351 -6 q 351 165 351 29 l 351 189 l 353 210 q 364 110 364 169 q 357 1 364 72 m 325 22 q 315 -4 313 14 l 310 -4 q 303 95 303 29 q 299 193 304 161 l 315 210 q 326 124 326 178 q 325 22 326 14 m 288 33 q 277 10 276 29 q 267 -10 278 -8 q 260 21 264 -4 q 246 49 257 40 q 240 22 240 43 q 229 -4 240 1 q 213 76 213 22 q 214 178 213 189 q 224 210 222 182 q 240 194 239 210 q 240 169 240 199 q 246 150 240 156 q 258 185 253 157 q 278 210 263 207 q 276 185 276 213 q 288 167 276 171 l 288 33 m 203 7 l 192 -4 l 176 11 q 175 118 175 -7 q 186 210 175 175 l 203 193 q 197 100 197 149 q 203 7 197 50 m 154 -4 l 139 11 q 138 118 138 -7 q 150 210 138 175 q 154 124 154 171 l 154 93 q 154 -4 154 -7 m 101 1 q 104 24 104 13 q 97 64 104 38 q 90 104 90 90 q 101 140 90 124 q 101 169 101 139 q 96 193 101 185 l 101 199 q 106 113 106 150 l 106 88 q 101 1 106 50 m 53 49 q 47 100 47 72 q 53 150 47 128 q 60 100 60 128 q 53 49 60 72 z "},";":{"ha":543,"x_min":53,"x_max":496,"o":"m 496 488 l 496 508 q 496 488 496 508 m 447 456 l 442 669 q 460 567 460 629 q 447 456 460 511 m 410 658 q 417 551 417 567 q 400 456 417 492 l 394 669 q 410 658 396 669 m 368 486 q 357 456 368 465 q 346 549 346 490 q 346 653 346 667 l 350 653 q 356 661 354 653 q 363 669 358 669 l 361 658 q 370 610 361 642 q 379 564 379 579 q 368 525 379 558 q 368 486 368 526 m 331 653 q 331 549 331 667 q 319 456 331 490 q 308 557 308 497 q 314 669 308 594 l 331 653 m 293 476 q 282 456 281 463 q 267 478 267 463 q 269 494 267 483 q 272 513 272 506 q 266 533 272 519 q 260 558 260 547 q 267 594 260 571 q 274 631 274 618 q 267 658 274 644 l 276 669 l 293 653 l 293 476 m 244 456 q 229 493 229 456 q 218 519 229 513 q 218 574 218 513 q 229 621 218 592 q 228 649 228 619 q 239 669 228 663 q 244 588 244 633 l 244 558 q 244 456 244 446 m 197 456 q 179 557 179 493 q 192 669 179 611 q 197 575 197 633 q 197 456 197 443 m 149 488 l 149 508 q 149 488 149 508 m 490 49 l 490 199 q 496 126 496 167 q 490 49 496 85 m 458 75 q 447 21 446 57 q 447 -36 447 -36 l 442 219 q 460 156 460 197 q 458 75 460 67 m 415 167 l 410 -15 q 400 -58 400 -31 q 400 -106 400 -82 l 400 -122 q 393 47 393 -42 q 400 219 393 138 q 415 167 417 214 m 368 97 q 369 67 369 82 q 364 -17 369 46 q 363 -100 360 -69 q 351 -133 351 -111 q 353 -169 351 -151 l 351 -181 q 346 -42 346 -118 l 346 7 q 346 178 346 193 q 357 213 357 181 q 357 219 357 217 l 368 219 q 364 200 364 210 q 372 164 364 188 q 379 128 379 140 q 368 97 379 111 m 331 11 l 319 1 q 321 -25 321 -11 q 315 -94 321 -42 q 314 -164 311 -137 l 299 -192 q 299 -71 299 -204 q 293 28 299 -11 l 288 28 q 278 -82 288 -17 q 261 -192 261 -183 q 249 -123 249 -169 q 244 -58 250 -76 l 239 -58 q 235 -115 233 -72 q 224 -169 235 -153 l 224 -192 l 213 -181 l 213 28 l 224 39 q 217 75 217 56 q 224 126 217 93 q 232 178 232 160 q 229 204 232 192 l 239 214 q 245 110 246 179 q 250 7 244 40 l 256 7 l 256 18 q 263 85 254 42 q 272 150 272 129 q 267 193 272 172 l 282 219 q 293 136 293 204 q 299 92 293 107 q 308 157 308 104 q 314 181 308 165 q 319 199 319 196 q 317 207 319 201 q 314 215 314 213 q 319 219 314 217 l 331 210 l 331 11 m 197 -137 q 186 -158 186 -144 q 186 -183 186 -171 l 186 -192 q 169 -157 169 -183 l 169 -143 q 174 -139 174 -142 q 165 -122 174 -137 q 164 -86 164 -126 q 175 -58 164 -67 q 169 -14 169 -37 q 176 49 169 7 q 183 111 183 90 q 181 140 183 126 q 192 172 192 151 q 190 208 192 190 l 192 219 q 197 79 197 156 l 197 31 q 197 -137 197 -154 m 149 -181 l 138 -192 q 122 -124 122 -162 q 129 -55 122 -101 q 136 15 136 -8 q 132 54 136 36 l 138 54 l 143 161 q 149 28 149 101 l 149 -18 q 149 -181 149 -196 m 100 -192 q 83 -124 83 -169 q 85 -36 83 -26 q 96 8 96 -21 q 94 56 96 32 l 96 71 q 101 -31 101 26 l 101 -64 q 100 -192 101 -203 m 53 -160 l 53 -143 q 53 -160 53 -143 z "},"<":{"ha":1068,"x_min":47,"x_max":1021,"o":"m 1021 667 q 1015 700 1015 681 q 1021 733 1015 719 l 1021 667 m 971 628 l 971 650 q 971 628 971 650 m 932 628 q 921 600 919 618 q 914 696 914 657 q 926 785 914 751 q 932 714 932 757 q 932 628 932 618 m 893 639 q 871 578 882 625 q 864 618 864 594 q 867 662 864 632 q 871 707 871 692 q 865 750 871 732 q 876 790 878 776 l 879 790 q 893 779 876 790 l 893 639 m 1021 79 q 1015 113 1015 93 q 1021 146 1015 132 l 1021 79 m 971 22 l 971 46 q 971 22 971 46 m 926 28 l 921 28 l 915 213 q 933 126 933 183 q 926 28 933 108 m 893 33 l 882 22 q 865 75 865 40 q 868 115 865 89 q 871 154 871 142 q 865 235 871 161 q 893 111 893 201 q 893 33 893 28 m 854 46 l 836 22 q 829 47 836 24 q 814 68 825 64 l 797 22 q 769 90 783 43 l 764 90 q 758 61 758 90 l 758 22 q 731 90 744 43 q 725 108 725 93 q 714 118 725 119 q 708 42 711 111 l 708 28 q 669 140 703 50 l 664 140 q 658 64 661 133 l 658 51 q 618 163 653 72 q 607 124 607 150 q 608 83 607 103 l 607 74 q 589 137 599 104 q 563 190 579 169 q 557 115 560 183 l 557 101 q 518 213 551 124 q 506 175 507 200 q 507 133 507 154 l 507 124 q 490 181 504 129 q 463 229 482 215 q 457 154 460 222 l 457 140 q 417 264 447 183 q 406 225 406 250 q 407 183 406 204 l 406 174 q 361 281 393 211 q 356 204 358 274 l 356 190 q 350 213 350 194 q 339 229 350 226 q 343 239 343 233 q 337 253 343 244 q 331 265 331 261 q 333 275 331 269 q 323 290 325 276 q 311 303 321 304 q 306 226 308 296 l 306 213 q 298 233 307 221 q 289 251 289 246 q 294 264 289 257 q 267 331 281 285 l 261 331 q 256 250 257 322 l 256 240 q 221 325 221 325 l 221 488 q 235 520 221 492 q 250 567 250 549 l 256 572 q 254 518 254 581 q 267 482 254 493 q 278 522 267 496 q 289 560 289 547 q 300 589 307 574 l 311 510 q 331 542 322 519 q 344 578 339 569 l 339 583 q 356 622 346 585 q 356 568 356 628 q 367 532 356 543 q 372 560 378 539 q 383 567 382 560 q 383 582 383 567 q 389 594 383 592 l 406 639 q 406 588 406 644 q 417 549 406 563 q 457 661 432 586 q 456 613 456 667 q 468 583 456 592 q 501 689 497 631 q 507 645 508 678 q 518 600 506 613 q 557 711 533 636 q 557 658 557 718 q 568 622 557 632 q 607 733 583 658 q 607 685 607 739 q 618 650 607 663 q 642 704 632 669 q 658 761 657 760 q 657 708 657 768 q 669 672 657 683 q 708 785 683 708 q 707 731 707 790 q 719 694 707 706 q 753 790 719 696 q 758 756 760 783 q 769 722 757 728 q 783 756 778 732 q 797 790 789 781 q 805 767 800 786 q 819 744 810 749 q 836 790 828 760 q 856 717 856 765 q 838 626 856 688 q 819 554 819 565 q 819 644 806 599 l 808 656 q 797 644 797 651 q 800 634 797 642 q 803 621 803 626 q 792 611 803 615 l 793 601 q 782 569 793 589 q 769 538 771 549 q 769 606 760 556 l 758 617 q 742 567 738 596 q 728 543 732 561 q 719 515 722 521 l 708 594 q 687 547 697 589 q 669 499 676 506 l 658 578 q 640 526 650 574 q 626 504 631 522 q 618 476 622 482 l 607 554 q 568 454 594 517 l 557 532 q 540 476 535 515 q 524 456 532 467 q 515 436 515 446 q 518 425 515 431 l 507 504 q 481 456 500 499 q 463 406 463 414 q 481 364 463 390 q 496 319 499 338 l 507 308 l 513 386 q 535 333 524 371 q 557 281 546 296 l 568 358 q 607 258 579 324 l 613 336 q 630 303 626 331 q 646 269 633 275 l 646 263 q 658 235 646 242 l 664 314 q 688 268 678 299 q 703 218 701 219 l 708 218 l 714 297 q 728 269 722 290 q 742 240 733 249 l 742 232 q 758 196 740 211 q 765 218 767 201 q 763 242 764 251 l 764 275 q 782 239 767 267 q 792 201 793 218 q 803 190 803 197 q 800 180 803 188 q 797 168 797 172 q 808 157 797 161 q 814 229 814 163 q 819 258 814 254 q 836 201 818 254 q 854 128 854 149 q 854 46 854 29 m 204 264 q 182 325 194 283 q 182 422 182 333 q 193 504 182 474 q 189 513 189 508 q 195 526 189 518 q 201 540 201 533 q 199 549 201 544 l 204 264 m 154 292 q 132 424 132 351 q 154 521 132 489 l 154 292 m 104 314 q 86 413 86 344 l 88 454 q 99 474 99 458 q 99 499 99 499 q 104 425 104 468 l 104 403 q 104 314 104 311 m 54 342 q 47 406 47 371 q 54 471 47 440 l 54 342 m 457 336 q 457 415 457 328 q 451 476 457 454 q 422 403 450 464 q 442 369 436 394 q 457 336 447 343 m 406 353 l 406 460 l 383 403 q 397 379 393 396 q 406 353 404 357 m 356 375 l 350 436 q 343 404 343 422 q 356 375 343 382 m 306 392 l 306 414 l 300 414 l 306 392 z "},"=":{"ha":1043,"x_min":47,"x_max":996,"o":"m 996 521 l 990 592 l 996 521 m 947 472 q 942 560 942 513 q 947 647 942 606 l 947 472 m 908 483 l 899 472 l 893 642 l 908 636 l 908 483 m 871 489 q 849 472 865 481 q 842 564 842 528 q 854 647 842 617 l 871 631 l 871 489 m 996 189 l 990 260 l 996 189 m 947 140 l 947 161 q 947 140 947 161 m 908 150 l 899 140 l 893 308 l 894 308 q 908 297 890 308 l 908 150 m 817 472 l 811 471 q 792 485 801 471 q 782 499 783 499 q 778 472 778 499 l 265 472 l 260 483 q 248 476 256 482 q 235 471 240 471 q 217 483 226 471 l 217 636 q 239 647 225 647 l 243 647 q 254 636 249 635 q 276 647 264 642 l 778 647 l 778 635 q 789 614 778 619 q 796 635 792 617 q 808 649 797 649 l 817 647 q 829 560 829 608 q 817 472 829 511 m 871 150 q 849 139 863 139 l 843 140 l 843 308 l 849 308 q 871 297 861 310 l 871 150 m 194 472 l 178 472 l 178 647 l 194 647 q 200 560 200 606 q 194 472 200 513 m 822 140 q 810 136 815 136 q 790 152 799 136 q 782 168 782 168 q 778 140 781 161 l 228 140 l 217 150 l 217 297 q 236 310 217 310 l 778 308 l 778 304 q 789 282 778 289 q 794 308 794 285 l 822 308 q 828 224 828 268 q 822 140 828 179 m 146 472 q 134 498 133 475 q 124 526 135 521 q 129 578 129 536 q 135 603 129 596 l 140 647 l 146 647 q 151 560 151 606 q 146 472 151 513 m 101 472 q 85 533 85 490 q 85 614 85 624 q 96 642 99 622 q 103 568 103 614 q 101 472 103 463 m 53 494 l 47 625 l 53 494 m 200 140 q 185 139 203 139 q 172 146 176 139 q 179 224 179 182 q 172 303 179 267 q 183 308 175 308 q 200 308 201 308 l 200 140 m 151 140 l 135 140 q 138 156 138 147 q 130 182 138 165 q 122 207 122 199 q 129 226 122 217 q 129 243 129 225 q 124 254 129 251 q 135 279 135 261 q 135 308 135 311 l 151 308 l 151 140 m 101 140 q 85 199 85 157 q 85 276 85 285 q 96 308 96 281 q 101 243 101 282 l 101 224 q 101 140 101 132 m 53 161 l 47 288 l 53 161 z "},">":{"ha":1068,"x_min":47,"x_max":1021,"o":"m 1021 375 l 1015 436 l 1021 375 m 971 325 l 971 347 q 971 325 971 347 m 932 325 q 921 292 921 319 l 915 515 q 933 431 933 488 q 932 325 933 313 m 869 275 l 864 538 q 896 411 896 492 q 869 275 896 335 m 819 253 l 808 353 q 797 326 797 350 q 786 297 797 303 q 778 261 786 285 q 769 224 769 238 l 758 314 q 732 260 746 301 q 719 201 718 218 l 708 292 q 668 185 664 207 l 657 269 q 647 263 649 269 q 646 247 647 263 q 640 235 646 239 q 628 194 632 219 q 618 151 619 154 l 607 240 q 574 179 606 239 q 578 169 578 175 q 572 157 578 165 q 565 143 565 149 q 568 135 565 139 l 557 218 l 546 207 l 546 190 q 533 169 535 189 q 524 146 532 150 q 529 138 529 142 q 522 128 529 133 q 515 118 515 122 q 518 113 515 115 l 507 201 q 474 124 496 172 l 479 118 q 467 85 464 111 l 456 168 l 444 157 l 444 140 q 424 104 429 131 q 417 63 421 83 l 406 151 q 361 39 381 106 q 361 92 361 36 q 350 129 361 118 q 329 76 347 117 q 317 22 314 46 l 306 101 q 272 22 268 44 q 260 58 260 26 q 249 79 260 76 l 232 28 l 221 28 l 215 39 q 221 89 221 60 q 221 122 221 100 q 219 156 219 144 q 249 247 219 218 l 249 264 l 260 179 q 275 206 271 186 q 283 235 282 235 l 282 239 q 292 258 282 247 q 301 276 301 269 q 300 286 301 281 l 311 207 q 333 247 325 219 q 350 292 344 282 l 350 308 l 361 229 q 382 269 375 239 q 400 308 389 299 l 400 325 l 411 247 q 433 297 422 261 q 456 347 443 333 q 456 301 456 354 q 467 269 456 278 l 467 274 q 479 310 467 286 q 490 347 492 333 l 501 353 l 501 364 l 513 286 q 529 324 514 289 q 540 364 540 347 l 557 386 q 556 340 556 394 q 568 308 556 317 q 585 357 571 321 q 597 406 597 386 q 563 504 597 431 l 557 425 q 541 458 544 431 q 524 493 538 486 l 524 497 q 513 526 525 519 l 507 449 q 482 493 492 461 q 467 543 475 518 l 461 543 l 456 465 q 442 493 447 472 q 428 521 436 514 l 429 531 q 411 567 429 553 l 406 488 q 382 535 392 500 q 361 583 372 571 l 356 504 q 333 555 344 519 q 311 606 322 590 l 306 526 q 282 580 292 542 q 260 633 272 618 q 256 560 257 625 l 254 549 q 221 694 221 593 l 221 785 q 240 759 233 779 q 254 733 246 739 l 265 790 q 283 750 276 781 q 306 711 290 719 l 311 790 q 350 683 342 731 l 356 683 q 361 758 358 690 l 361 774 q 406 661 374 718 q 411 736 408 668 l 411 750 q 428 694 414 746 q 456 644 436 658 q 461 718 458 649 l 461 728 q 501 611 481 688 l 507 611 q 511 686 510 618 l 513 700 q 531 644 518 690 q 557 594 540 607 q 563 668 558 599 l 563 678 q 574 633 583 646 q 607 572 582 610 q 613 611 614 586 q 613 651 613 660 l 613 661 q 635 603 619 650 q 651 543 650 556 l 657 543 q 664 585 664 560 q 663 628 663 625 q 676 596 661 617 q 686 560 690 575 q 696 540 696 557 q 708 521 696 522 q 714 561 714 536 q 713 601 714 610 l 714 611 q 733 556 729 599 q 758 499 738 513 q 764 538 764 514 q 764 578 764 588 l 764 589 q 796 479 796 528 q 803 460 796 464 l 808 460 l 814 557 q 826 526 814 546 q 839 494 839 507 q 836 482 839 489 q 849 417 849 458 q 819 253 849 356 m 204 578 q 182 628 182 611 l 176 790 l 179 790 q 193 779 176 790 q 206 685 206 743 q 204 578 206 568 m 154 600 q 137 634 136 604 q 125 672 138 664 q 122 692 122 682 q 131 731 122 706 q 140 769 140 756 q 136 790 140 779 l 139 790 q 154 779 135 790 l 154 600 m 103 617 q 85 699 85 646 q 97 790 85 744 q 104 711 104 761 q 103 664 104 703 q 103 617 103 635 m 53 639 l 47 774 l 53 639 m 204 57 l 182 22 q 176 96 176 49 q 176 185 176 189 q 191 210 186 189 q 199 235 196 231 q 204 156 204 207 q 204 57 204 53 m 154 33 l 142 22 q 143 32 143 28 q 134 74 143 47 q 125 117 125 101 q 136 151 125 122 q 136 186 136 150 q 149 213 136 206 q 154 143 154 183 l 154 118 q 154 33 154 17 m 103 22 q 85 78 85 39 q 86 151 85 160 q 99 171 99 156 q 97 196 99 183 q 104 126 104 168 l 104 107 q 103 22 104 6 m 53 46 l 47 39 l 47 174 l 53 46 m 719 386 q 722 400 722 393 q 714 425 722 410 l 719 386 m 668 353 l 668 375 q 681 401 681 386 q 672 433 681 414 q 663 460 664 451 l 668 353 m 629 369 q 635 401 635 385 q 613 476 635 436 l 618 336 q 619 356 618 346 q 629 369 621 365 z "},"?":{"ha":974,"x_min":47,"x_max":926,"o":"m 926 700 l 926 722 q 926 700 926 722 m 869 606 l 869 986 q 876 794 876 888 q 869 606 876 703 m 819 554 l 819 1036 q 832 794 832 921 q 819 554 832 669 m 792 628 q 778 578 782 610 q 769 526 772 536 l 764 532 q 769 949 769 624 l 769 1075 q 793 869 793 997 q 792 628 793 604 m 753 650 q 741 608 740 639 q 731 567 742 576 l 731 553 q 726 529 732 543 q 719 504 719 510 l 714 510 q 719 576 719 536 l 719 656 l 708 667 q 692 538 708 624 q 675 403 675 453 q 668 386 675 390 q 664 461 660 415 q 669 535 669 533 q 663 583 669 561 q 651 569 654 582 q 646 543 649 556 q 629 475 628 524 q 618 403 631 422 q 625 372 625 390 q 618 342 625 372 q 614 418 610 372 q 619 494 619 493 q 613 543 619 522 q 581 476 586 506 q 579 403 579 469 q 568 336 579 360 l 563 336 q 568 421 568 369 l 568 515 l 557 526 q 539 454 539 500 q 540 378 540 417 l 539 353 l 528 347 l 528 336 q 517 401 517 360 q 518 469 517 435 l 517 493 l 506 504 q 501 411 501 492 q 478 342 501 361 l 467 403 q 453 372 458 396 q 439 342 449 349 q 421 474 421 392 q 422 628 421 621 q 456 700 436 651 q 461 668 464 688 q 456 636 456 636 q 467 611 456 636 l 467 615 q 480 658 465 631 q 494 700 494 685 l 506 711 q 507 824 507 699 q 489 918 507 885 l 467 901 l 467 868 q 458 896 463 874 q 444 918 456 914 q 415 835 415 867 q 417 818 415 826 q 417 907 403 863 l 394 918 q 375 850 376 896 q 367 779 372 796 q 367 907 353 843 l 356 918 l 343 907 q 340 874 343 900 q 338 840 336 853 q 327 804 326 832 q 315 768 328 776 q 311 813 307 785 q 317 858 317 858 q 304 896 317 881 l 293 885 l 296 867 q 276 768 296 817 q 268 796 276 781 q 260 821 260 811 q 265 846 260 832 l 254 857 q 243 844 246 854 q 243 825 242 838 q 244 807 244 808 q 240 788 244 801 q 238 768 235 775 l 221 790 l 221 969 q 232 1036 233 978 q 244 1065 243 1040 q 260 1092 244 1089 q 253 1025 253 1051 q 265 963 253 986 q 275 1036 271 1018 q 304 1103 283 1078 q 304 1061 304 1106 q 315 1025 304 1036 q 321 1064 322 1031 q 337 1088 331 1068 q 356 1114 343 1108 q 354 1082 354 1115 q 367 1058 354 1063 q 380 1094 372 1076 q 406 1114 388 1113 q 417 1086 407 1093 q 433 1114 419 1097 q 461 1103 454 1113 q 489 1114 469 1113 l 511 1097 l 517 1114 q 531 1118 525 1118 q 547 1100 540 1118 q 557 1075 554 1078 q 568 1103 567 1082 l 563 1108 l 579 1114 q 607 1047 593 1093 q 618 1103 619 1051 l 613 1108 l 618 1114 q 641 1072 631 1092 q 651 1018 651 1051 q 663 997 651 1000 q 663 1097 678 1047 l 668 1103 q 680 1078 679 1097 q 692 1053 681 1058 q 690 1031 690 1060 q 703 1014 690 1018 q 701 963 701 1024 q 708 924 701 939 l 719 935 l 719 1097 q 740 971 740 1032 q 753 940 740 951 l 753 650 m 210 1069 q 204 918 203 1026 q 193 768 206 821 l 182 779 l 182 992 q 193 1033 193 1003 q 204 1075 193 1064 l 210 1069 m 160 1047 l 154 768 l 142 779 q 142 922 142 760 q 154 1053 142 1003 l 160 1047 m 108 1008 l 103 768 q 92 847 92 803 q 97 931 92 875 q 103 1014 103 986 l 108 1008 m 53 807 l 47 940 l 53 807 m 411 353 q 406 342 404 346 l 394 342 q 382 481 382 394 q 383 639 382 651 q 397 659 390 643 q 411 678 403 675 q 404 515 404 599 q 411 353 404 432 m 361 656 q 356 407 356 604 l 356 374 l 356 342 q 342 501 342 417 q 356 661 342 586 l 361 656 m 304 353 q 299 501 299 424 q 304 650 299 579 q 311 501 311 579 q 304 353 311 424 m 668 79 q 663 132 663 103 q 668 185 663 161 q 675 132 675 161 q 668 79 675 103 m 629 163 q 631 122 631 165 q 618 90 631 100 q 625 60 625 78 q 618 28 625 42 q 614 118 614 79 l 614 146 q 618 235 614 185 q 623 198 625 225 q 629 163 621 171 m 579 39 q 568 22 568 25 l 563 22 q 568 196 568 61 l 568 225 l 568 247 q 579 151 579 211 q 579 39 579 31 m 539 39 l 536 40 q 528 33 533 38 l 528 22 l 511 39 q 518 135 518 85 q 511 229 518 185 l 522 247 l 539 224 l 539 39 m 500 57 q 489 22 492 53 l 486 22 q 472 33 490 22 q 474 58 474 29 q 467 79 474 72 q 450 22 446 56 l 447 24 q 439 17 447 24 q 421 129 421 63 q 433 247 421 186 q 453 221 449 244 q 467 185 458 192 q 472 217 472 193 q 483 247 472 240 q 501 163 501 218 q 500 57 501 44 m 411 39 l 400 22 q 382 107 382 51 q 383 213 382 225 q 394 247 393 218 l 411 229 q 404 135 404 185 q 411 39 404 85 m 361 22 l 343 39 q 343 151 343 31 q 356 247 343 211 l 361 240 q 354 132 354 189 q 361 22 354 75 m 304 39 q 299 132 299 83 q 304 224 299 181 q 311 132 311 181 q 304 39 311 83 m 260 107 l 254 101 l 249 163 q 261 140 261 158 q 260 107 261 101 m 675 868 l 668 874 q 669 804 669 876 l 669 785 q 663 722 669 749 l 668 717 q 668 786 668 703 l 668 806 q 675 868 668 842 m 629 857 q 621 881 621 864 q 618 901 621 897 q 613 886 613 894 q 617 868 613 879 q 621 850 621 857 q 619 845 621 849 q 618 840 618 842 l 618 689 q 624 696 624 692 q 620 703 624 699 q 617 711 617 708 q 631 781 631 758 q 629 857 631 863 m 590 851 q 578 882 578 857 q 568 913 579 907 l 563 907 q 568 789 568 851 q 563 672 568 728 l 568 667 q 579 697 578 676 q 579 729 579 713 l 579 739 q 590 789 590 757 q 590 851 590 856 m 551 829 q 540 881 540 838 q 522 913 540 907 l 511 661 l 517 656 q 539 700 521 672 q 536 721 536 711 q 545 764 536 736 q 554 807 554 792 q 551 829 554 818 z "},"@":{"ha":1289,"x_min":47,"x_max":1242,"o":"m 1242 511 l 1242 532 q 1242 511 1242 532 m 1194 439 l 1194 417 l 1189 797 q 1197 704 1188 765 q 1206 613 1206 643 q 1200 553 1206 582 q 1194 439 1197 540 m 1158 438 q 1147 410 1147 429 q 1149 378 1147 393 l 1147 369 l 1143 881 q 1160 675 1160 800 q 1158 438 1160 410 m 1117 443 q 1109 392 1117 435 q 1101 333 1101 349 l 1096 328 l 1096 494 l 1101 494 l 1106 725 l 1096 735 l 1096 928 q 1103 863 1096 922 q 1106 797 1108 824 l 1117 788 l 1117 443 m 1081 464 q 1069 419 1068 451 q 1060 375 1071 388 l 1054 303 l 1049 428 l 1060 438 q 1064 597 1064 513 q 1049 964 1064 717 q 1081 550 1085 746 l 1081 464 m 1147 182 l 1143 276 l 1147 182 m 1111 261 l 1096 131 l 1096 276 l 1111 261 m 1060 208 l 1054 104 q 1047 182 1047 150 q 1060 256 1047 228 q 1053 265 1053 258 q 1060 276 1053 274 q 1069 233 1069 236 q 1060 208 1069 218 m 1022 339 q 1010 311 1014 329 q 1001 282 1003 283 l 1003 351 q 997 407 1003 385 q 972 316 994 403 q 949 225 949 229 q 956 193 949 225 q 968 235 965 203 q 986 276 971 268 q 988 213 986 281 q 976 151 988 174 q 978 139 978 144 q 968 104 978 126 q 960 68 958 82 l 950 167 q 939 139 939 165 q 935 119 939 125 q 924 88 933 106 q 908 57 908 58 q 908 99 908 54 q 897 131 908 122 q 887 88 900 110 q 861 47 874 67 q 861 81 861 44 q 850 104 861 97 q 814 36 846 60 l 808 74 q 778 36 783 61 l 767 36 l 757 68 q 725 36 757 47 l 710 57 q 679 35 696 35 q 663 47 672 35 l 638 36 l 626 47 l 600 36 l 579 57 l 569 47 l 575 42 l 569 36 l 528 74 q 522 60 519 68 q 528 46 528 46 q 517 36 528 38 q 500 64 515 47 q 486 94 485 81 q 476 74 474 88 q 481 49 481 43 q 475 36 481 43 q 439 119 458 67 q 428 101 428 114 q 431 84 428 96 q 435 67 435 72 q 428 47 435 54 q 404 103 417 75 q 392 161 390 136 q 382 57 381 144 q 369 95 381 71 q 358 133 358 119 q 361 146 358 140 q 347 175 351 153 q 344 208 346 192 l 335 199 l 340 78 l 329 83 q 293 271 328 100 l 299 276 q 286 544 286 390 q 293 824 286 643 q 303 865 304 835 q 314 907 303 896 q 313 922 313 914 q 321 964 313 939 q 335 1006 332 996 l 329 1017 l 335 1021 l 340 1017 q 340 892 326 954 q 350 913 349 894 q 382 1026 354 942 l 376 1032 l 382 1038 q 383 988 386 1022 q 386 938 381 954 q 402 971 396 946 q 407 1011 408 996 q 428 1047 422 1017 q 433 1022 436 1038 q 428 996 428 996 q 439 975 428 982 q 454 1015 446 985 q 475 1058 463 1046 q 481 1038 483 1050 q 475 1015 475 1015 q 486 1000 475 1007 q 500 1032 486 1003 q 522 1058 510 1050 q 526 1046 529 1053 q 522 1032 522 1033 q 533 1021 522 1025 q 549 1046 540 1033 q 569 1058 557 1058 l 579 1042 q 594 1051 586 1043 q 610 1060 603 1060 q 626 1047 618 1060 l 653 1058 l 663 1047 q 694 1057 685 1057 q 703 1044 703 1057 q 715 1032 704 1031 l 721 1058 l 751 1038 l 757 1021 l 767 1038 l 767 1058 q 792 1029 781 1049 q 808 996 807 997 q 814 1047 815 1004 q 838 1008 817 1040 q 850 964 853 985 l 856 964 l 861 1038 q 888 975 874 1017 q 892 949 892 971 q 903 938 892 939 l 908 1026 q 922 992 908 1024 q 931 957 931 972 q 929 943 931 950 q 942 919 936 940 q 950 892 946 906 l 956 1011 q 963 977 960 1001 q 976 943 967 953 l 974 926 q 986 896 974 903 q 989 849 983 878 q 997 803 996 811 l 1007 797 l 1013 839 l 1001 850 l 1001 990 q 1044 590 1044 849 q 1022 339 1044 578 m 1022 151 q 1010 118 1014 140 q 1001 83 1003 86 q 1001 118 1001 101 q 1018 276 1001 196 l 1022 151 m 293 979 q 283 844 293 935 q 272 708 272 754 l 261 699 l 261 396 q 272 332 272 383 q 280 269 272 313 q 288 203 288 226 l 288 104 q 285 123 279 110 q 278 140 292 136 l 279 161 q 271 203 279 175 q 261 244 263 232 q 246 404 254 325 q 238 564 238 497 q 288 964 238 792 q 283 983 283 972 q 288 990 283 988 q 293 979 293 979 m 246 949 q 240 839 246 915 q 236 729 235 769 l 225 719 l 225 375 l 236 365 l 231 360 q 242 250 242 318 q 240 190 242 238 q 240 131 240 153 q 236 161 239 132 l 240 167 q 231 189 231 175 q 231 213 231 211 q 208 481 208 307 q 210 624 208 501 q 210 767 211 710 l 214 767 q 240 964 215 781 q 246 949 246 949 m 193 172 q 181 300 192 197 q 171 429 171 379 q 172 474 171 453 l 163 485 l 163 615 l 172 625 l 172 782 l 183 792 l 182 814 q 186 871 182 836 q 193 928 193 917 l 196 843 q 193 671 196 781 q 188 499 188 549 q 193 336 188 461 q 193 172 197 235 m 151 224 l 147 219 q 139 318 147 225 q 136 417 133 378 l 126 428 l 126 672 l 136 683 l 135 715 q 139 799 135 747 q 147 881 146 864 q 151 224 144 661 m 100 276 q 89 549 89 406 q 100 824 89 692 l 100 276 m 53 369 q 47 549 47 454 q 53 729 47 642 l 53 369 m 1022 663 q 1013 699 1013 676 q 1015 728 1013 708 q 1018 757 1018 747 q 1013 788 1018 774 q 1013 758 1013 790 q 1001 729 1013 738 q 1001 581 1001 742 l 1001 526 q 1007 407 1001 461 q 1011 526 1011 428 q 1017 563 1011 539 q 1024 600 1024 586 q 1022 663 1024 669 m 976 453 q 976 685 976 426 q 956 881 976 806 q 954 840 954 886 q 965 808 954 818 l 965 521 q 960 494 965 514 q 954 463 954 474 q 956 396 954 381 q 965 425 965 403 q 976 453 964 447 m 939 474 l 940 554 q 908 896 943 758 l 914 813 l 918 818 q 924 700 924 764 q 919 550 924 646 q 914 401 914 446 l 918 396 q 928 435 929 406 q 939 474 928 464 m 808 417 l 804 688 l 808 417 m 772 449 q 772 538 772 447 l 772 576 q 767 651 772 622 l 767 474 q 756 440 756 464 q 763 407 756 422 q 761 431 761 403 q 772 449 761 444 m 731 646 l 721 657 l 725 663 q 721 672 725 668 l 715 667 q 721 539 721 606 q 715 411 721 474 l 721 407 q 732 518 732 449 q 731 646 732 657 m 694 474 q 694 538 694 475 l 694 574 q 685 667 690 604 l 683 672 l 674 672 l 668 401 l 674 396 q 684 435 685 406 q 694 474 683 464 m 903 490 l 903 572 q 861 917 906 790 q 861 858 861 922 q 850 813 861 829 q 846 860 846 819 q 814 928 846 858 l 808 854 l 804 854 q 767 933 797 894 q 768 903 768 933 q 763 881 768 889 q 725 938 753 901 q 719 922 721 935 q 710 907 718 910 q 685 939 694 939 q 673 929 678 939 q 663 917 668 919 q 647 936 657 936 q 633 931 643 936 q 617 926 624 926 l 600 938 q 579 907 599 938 q 575 933 568 914 l 564 938 l 538 907 l 543 901 l 528 892 q 528 933 519 899 q 497 903 506 929 q 486 860 492 882 q 475 881 475 868 q 478 900 475 888 q 481 918 481 913 q 475 933 481 926 q 439 813 454 908 l 428 824 l 428 917 q 421 894 425 913 q 407 871 417 875 q 382 535 382 728 q 386 344 382 450 q 397 305 399 335 q 407 265 396 275 l 406 247 q 433 182 404 219 l 428 250 q 419 272 428 258 q 411 293 411 285 q 413 303 411 297 q 402 351 401 315 q 392 401 403 388 q 392 597 392 401 q 407 725 392 667 l 413 725 l 413 771 q 421 791 418 775 q 433 808 424 807 q 433 639 436 743 q 428 469 428 507 q 433 372 428 468 q 433 286 438 296 q 449 221 442 254 q 481 161 461 183 q 481 192 483 174 q 475 222 475 215 q 486 244 475 235 q 495 216 486 236 q 501 182 504 196 l 528 161 q 521 186 521 174 q 533 208 521 186 q 544 185 542 203 q 558 161 546 168 l 575 167 l 569 172 l 579 188 q 599 161 582 161 q 715 178 704 161 l 721 161 q 743 174 733 161 q 763 199 753 186 q 767 161 771 188 q 792 186 779 174 q 804 214 806 199 q 814 172 815 213 l 825 172 l 825 182 q 842 209 839 188 q 856 235 846 231 l 867 172 q 876 206 867 188 q 892 240 885 224 l 890 251 q 897 274 890 260 q 904 297 904 289 q 897 313 904 306 q 888 281 900 297 q 871 250 874 258 l 865 250 q 850 297 857 250 q 842 251 850 251 q 823 260 835 251 q 804 268 811 268 q 783 250 792 268 q 767 303 776 254 l 768 289 q 746 250 768 256 q 729 278 733 256 q 725 313 728 294 q 704 250 726 250 l 700 250 l 689 324 l 690 314 q 688 286 690 304 q 683 261 685 268 l 674 250 l 668 250 q 653 286 660 250 q 640 269 644 283 q 626 250 635 254 l 617 261 q 622 268 622 264 q 606 286 622 278 l 607 278 q 590 250 608 263 q 575 271 579 254 q 569 297 571 294 l 569 265 l 549 250 q 533 276 526 263 q 522 260 525 274 q 510 247 518 247 l 501 250 l 501 254 q 492 283 501 265 q 483 311 483 301 q 486 324 483 318 q 479 306 479 315 q 482 287 479 296 q 485 275 485 278 q 475 250 485 267 q 451 282 460 256 q 439 324 442 318 q 432 522 432 454 q 440 636 432 560 q 449 749 449 713 q 460 771 449 767 l 457 779 q 467 799 457 788 q 475 818 476 810 q 486 786 486 806 q 483 759 486 776 q 479 732 479 742 q 486 708 479 732 l 486 750 q 498 784 494 760 q 511 818 501 808 q 532 803 532 817 q 529 787 532 799 q 526 769 526 775 q 533 756 526 760 q 538 761 538 756 q 533 767 538 767 q 558 818 539 806 q 579 792 574 817 q 596 818 585 811 l 621 792 l 621 803 q 643 819 632 819 q 658 792 651 819 q 668 756 664 774 q 668 790 668 749 q 674 818 668 808 q 704 767 697 811 q 704 793 704 765 q 721 818 704 811 q 735 797 732 814 q 742 771 736 776 l 739 779 q 749 799 739 788 q 757 818 758 810 q 769 803 765 815 q 778 782 774 792 l 778 786 q 785 803 778 793 q 793 818 793 813 q 811 803 804 817 q 825 782 819 785 l 824 803 q 829 818 824 813 l 850 803 q 851 694 851 804 q 846 665 851 685 q 840 636 840 644 l 846 396 q 856 428 843 421 l 856 740 q 867 757 864 746 q 865 778 867 764 q 863 799 863 793 q 882 818 863 815 q 888 719 888 779 l 888 604 l 876 594 l 876 396 q 892 454 892 404 q 903 490 892 479 m 944 324 q 924 265 935 311 q 907 226 907 254 q 914 182 907 211 q 918 210 918 188 q 929 229 918 225 q 942 275 931 242 q 950 321 950 304 q 944 349 950 336 l 944 324 m 658 494 l 653 615 q 648 644 647 622 q 638 672 649 665 q 626 632 625 660 q 621 589 626 600 q 611 639 611 596 q 596 672 611 665 q 589 653 589 665 q 589 632 588 646 q 590 611 590 615 q 579 578 590 590 q 569 627 568 592 q 558 672 571 663 q 548 633 547 663 q 538 594 549 604 l 538 449 q 547 404 547 443 l 549 396 l 564 396 l 564 407 q 579 453 563 432 q 590 443 590 449 q 587 431 590 439 q 583 419 583 424 q 585 411 583 419 q 597 396 578 396 l 600 396 l 600 411 q 612 459 613 425 q 617 506 611 493 l 621 506 l 632 396 q 647 458 647 406 q 658 494 647 483 m 528 411 q 522 599 522 456 l 522 672 q 512 644 511 667 q 501 615 513 621 q 500 494 500 629 q 517 396 500 431 q 528 411 517 396 m 475 396 q 481 531 481 460 q 475 663 481 601 q 476 642 476 669 q 465 625 476 629 q 464 503 464 635 q 475 396 464 436 m 386 901 l 382 907 q 339 536 338 769 l 340 449 q 351 400 350 431 q 350 349 350 374 l 350 333 q 361 304 361 325 q 360 272 360 289 l 361 265 q 382 188 367 239 q 382 242 382 175 q 376 292 382 269 q 366 336 365 303 q 356 381 367 369 l 356 642 l 365 651 q 376 775 367 692 q 386 901 386 858 m 340 224 q 340 243 340 219 q 335 256 340 251 q 331 308 332 267 q 319 360 331 342 l 317 440 q 326 656 315 515 q 340 871 340 804 l 335 881 l 329 871 l 331 858 q 326 827 331 850 q 324 792 321 804 q 314 735 313 776 q 303 678 315 693 l 303 417 q 314 376 314 403 q 313 333 314 354 l 314 324 q 324 284 325 314 q 335 244 324 254 q 329 224 339 229 l 335 219 l 340 224 z "},"A":{"ha":1236,"x_min":47,"x_max":1189,"o":"m 1053 217 l 1053 103 q 1040 3 1053 40 l 1029 14 l 1029 556 l 1040 229 l 1053 217 m 1094 21 q 1082 3 1082 7 l 1076 8 q 1083 107 1083 53 q 1079 210 1083 142 q 1075 314 1075 279 q 1082 413 1075 369 l 1082 253 l 1094 240 l 1094 21 m 1189 74 l 1183 128 l 1189 97 l 1189 74 m 1136 14 l 1129 271 l 1136 14 m 1006 3 l 988 14 l 981 63 q 964 3 963 54 l 946 3 l 933 211 l 928 211 l 922 14 l 910 3 q 897 51 900 25 q 897 103 896 64 q 899 154 899 150 l 897 175 q 885 201 888 179 q 874 222 883 222 l 868 3 q 857 96 857 19 q 849 162 857 104 q 839 222 840 219 l 826 222 q 819 115 819 182 q 815 8 821 38 q 817 40 817 24 q 806 130 817 69 q 797 222 796 190 l 774 222 l 767 81 l 761 217 l 482 222 q 469 133 468 208 q 463 172 463 150 l 469 211 l 440 222 l 428 211 l 422 21 q 415 122 414 54 q 410 222 417 190 l 403 224 q 390 204 394 224 q 381 181 386 185 l 382 88 q 368 3 383 18 q 362 113 361 39 q 356 222 363 186 l 344 222 q 339 78 339 192 l 339 50 q 324 26 324 49 q 326 3 324 17 l 314 3 q 308 222 317 76 l 303 222 q 297 132 297 204 q 290 63 297 119 q 279 3 282 6 q 261 50 261 14 q 256 104 260 92 q 244 60 244 92 q 249 14 244 40 l 238 3 l 219 26 l 217 86 q 224 225 214 136 q 233 363 233 322 q 231 413 233 389 l 238 413 l 256 740 l 254 463 q 261 222 254 339 l 267 222 q 274 271 274 250 q 274 319 274 271 q 272 350 274 317 q 272 369 272 350 l 272 383 l 279 383 l 290 704 l 303 717 l 303 883 q 308 618 310 793 q 314 353 308 438 l 321 353 l 332 686 l 344 699 l 344 853 l 356 865 l 356 739 q 363 496 356 593 l 368 496 q 378 635 367 544 q 389 769 389 726 q 386 817 389 794 l 399 829 q 397 872 397 849 q 401 974 397 900 q 404 1074 406 1038 q 410 850 411 999 q 417 626 410 701 l 422 626 l 433 960 q 446 1017 444 972 q 458 1074 447 1061 l 458 1097 q 464 1024 464 1064 q 458 928 464 997 q 456 831 454 867 l 458 782 l 469 769 q 475 874 475 792 q 483 975 475 903 q 500 1067 493 1058 l 497 1081 q 511 1108 497 1104 q 517 907 508 1042 l 524 907 q 529 983 529 925 q 542 1056 529 1035 q 538 1081 538 1071 q 553 1103 538 1101 q 571 1025 567 1093 q 589 1103 579 1032 q 603 1090 594 1103 q 618 1078 613 1078 l 624 1079 l 624 1088 q 642 1108 624 1111 q 653 1032 653 1093 q 665 1007 653 1013 l 678 1108 q 696 1054 696 1103 q 707 1019 696 1029 q 714 865 704 968 l 719 865 q 725 1071 725 904 l 725 1108 q 756 918 750 1035 q 761 722 756 915 l 767 722 l 774 1097 q 793 1024 793 1072 q 785 936 793 1017 l 797 925 l 797 758 l 808 746 l 808 654 q 815 585 808 614 l 826 597 l 826 1067 q 831 1025 831 1050 q 826 967 831 1000 l 839 954 l 839 788 l 850 775 l 856 454 l 868 443 l 874 972 q 897 485 885 835 l 910 472 l 910 374 q 915 300 910 331 l 922 300 l 928 829 l 939 503 l 951 490 l 951 336 l 964 324 q 963 232 963 333 q 969 157 963 186 l 981 169 q 975 433 975 299 q 981 699 975 569 l 981 532 l 993 519 l 993 371 l 1006 360 q 1006 228 1001 307 q 1011 96 1011 124 q 1006 3 1011 44 m 207 26 l 189 3 l 178 14 q 185 139 185 74 q 178 264 185 204 l 189 276 l 189 443 l 201 454 l 201 603 l 207 26 m 154 3 l 149 3 l 149 14 q 139 63 149 32 q 129 107 129 93 q 142 146 129 128 l 149 461 q 154 269 154 378 l 154 3 m 100 8 q 101 32 101 1 q 89 50 101 46 q 88 118 88 44 q 100 175 88 156 l 100 329 q 107 169 107 251 q 100 8 107 86 m 53 44 l 47 188 l 53 44 m 749 431 l 750 436 q 738 461 750 451 l 738 644 l 725 657 l 719 829 q 718 769 718 801 q 722 654 718 731 q 726 539 726 578 q 719 436 726 483 q 732 431 722 431 l 749 431 m 790 436 q 792 468 792 435 q 779 490 792 483 l 774 675 l 774 431 l 779 431 q 790 436 788 431 m 832 436 l 826 431 l 826 474 q 832 436 826 449 m 696 431 l 696 603 l 683 615 q 683 663 683 615 l 683 711 q 690 793 683 761 l 683 800 l 678 793 l 683 788 l 683 785 q 672 758 683 767 l 672 431 l 696 431 m 654 431 q 657 482 657 456 q 649 586 657 517 q 640 690 640 656 q 649 764 640 729 l 631 788 q 632 656 632 803 q 613 543 632 585 l 600 561 q 607 667 607 615 q 589 817 607 757 q 590 763 590 792 q 583 608 590 729 q 583 454 579 513 l 571 443 q 565 672 565 485 q 558 722 565 689 q 551 772 551 756 q 553 801 551 781 q 554 833 556 822 l 553 853 q 529 431 550 713 l 654 431 m 511 431 l 511 871 q 500 514 497 568 q 486 476 486 503 q 488 431 486 419 l 511 431 m 458 431 q 464 579 464 503 q 458 728 464 657 l 458 543 q 444 493 444 526 l 444 432 q 446 431 446 426 l 458 431 m 410 431 l 404 561 l 410 431 z "},"B":{"ha":1029,"x_min":47,"x_max":982,"o":"m 928 775 l 922 883 l 928 775 m 875 663 q 868 829 868 743 q 875 996 868 915 l 875 663 m 839 693 q 826 656 828 685 q 821 621 825 626 l 821 1043 q 826 1000 826 1038 q 839 967 826 975 q 832 829 832 900 q 839 693 832 758 m 975 163 l 975 461 q 982 314 982 393 q 975 163 982 235 m 940 199 q 928 154 928 183 q 929 106 928 131 l 928 92 l 922 526 q 942 378 942 472 q 940 199 942 178 m 899 229 q 886 160 888 211 q 875 92 885 108 l 875 50 l 868 68 q 871 257 868 125 q 874 446 872 322 l 875 568 q 881 508 874 547 q 888 451 888 469 q 886 431 888 440 l 899 419 l 899 229 m 844 172 q 833 110 844 131 q 832 85 832 115 q 839 68 832 74 q 826 36 826 63 l 826 32 l 821 585 q 831 545 826 578 q 844 503 836 513 q 842 464 842 483 q 851 385 842 438 q 860 307 860 333 q 852 240 860 285 q 844 172 844 194 m 797 74 q 785 47 788 69 q 774 21 782 25 l 774 8 q 767 43 767 8 q 770 76 767 54 q 774 110 774 99 q 761 151 774 133 q 726 3 757 71 l 714 81 q 685 3 707 71 l 665 3 l 667 22 q 660 50 668 40 q 643 21 658 49 q 618 3 632 1 l 607 21 q 576 1 599 1 q 422 3 529 1 q 267 3 318 4 l 261 32 l 256 8 l 232 3 l 219 21 l 225 1090 l 256 1090 l 250 1079 l 261 1067 l 274 1097 l 493 1097 l 506 1085 q 536 1099 511 1099 l 547 1097 l 553 1079 l 565 1085 l 565 1097 l 572 1100 q 608 1049 588 1100 q 618 1097 621 1049 l 642 1085 q 639 1075 639 1081 q 646 1060 639 1069 q 653 1046 653 1051 q 647 1038 653 1042 l 654 1007 l 660 1007 q 665 1097 667 1024 q 688 1056 682 1088 q 701 1007 696 1017 l 701 958 q 714 925 701 933 q 719 1058 719 953 l 719 1085 q 731 1056 728 1081 q 743 1025 735 1031 l 743 978 q 756 936 743 950 l 756 717 q 743 669 744 707 q 732 621 742 631 l 732 615 q 745 562 732 597 q 758 510 758 526 q 756 490 758 500 l 761 485 l 774 496 q 767 636 767 558 q 770 780 767 685 q 774 924 774 875 q 768 1061 774 1000 l 774 1067 q 785 972 788 1000 l 797 960 l 797 699 q 785 660 786 692 q 774 621 783 628 l 774 615 q 783 581 774 599 q 797 550 796 558 q 806 474 804 518 q 806 390 807 439 q 804 313 804 336 q 797 74 804 190 m 201 3 l 199 1 q 185 10 192 1 q 178 26 178 19 l 178 1074 q 189 1087 185 1075 q 196 1099 193 1099 l 201 1097 l 201 3 m 149 3 q 136 53 136 10 q 131 81 136 71 l 125 1014 q 136 1064 136 1010 q 149 1097 136 1086 l 154 1090 l 149 3 m 101 14 q 81 1033 81 43 q 90 1053 81 1040 q 99 1074 99 1067 q 94 1085 99 1079 l 101 14 m 53 44 l 47 44 l 47 1056 l 53 1056 l 53 44 m 672 717 l 665 858 l 672 717 m 631 835 q 621 860 621 843 q 618 883 621 878 l 618 686 l 624 693 l 618 699 q 631 761 631 721 l 631 835 m 590 793 q 576 835 590 821 q 583 853 583 842 q 582 876 583 885 q 567 889 569 889 l 565 889 l 571 675 q 583 704 582 683 q 582 738 582 657 q 586 765 582 747 q 590 793 590 783 m 714 543 l 714 646 q 708 728 714 697 q 713 699 713 714 q 704 646 713 681 q 696 593 696 611 q 714 543 696 564 m 540 686 l 540 876 q 517 894 519 893 q 518 799 518 914 l 518 769 q 511 681 518 719 q 522 674 518 674 q 540 686 528 674 m 660 574 l 660 644 q 653 633 653 642 q 660 621 653 624 q 649 601 649 610 q 660 574 649 597 m 499 699 q 500 806 500 686 q 482 894 500 864 q 475 896 478 896 q 464 883 468 896 q 457 865 458 867 q 445 880 449 864 q 436 896 442 896 q 428 894 432 896 l 422 675 l 446 675 l 446 694 q 456 704 446 704 q 464 678 464 704 l 464 675 q 475 672 469 672 q 487 684 479 672 q 499 699 494 696 m 404 675 l 404 793 q 399 894 404 854 l 386 894 l 381 675 l 404 675 m 357 675 q 357 733 357 675 l 357 793 q 350 894 357 854 q 338 790 338 856 q 344 675 338 747 l 357 675 m 774 300 l 774 383 q 767 339 767 365 q 774 300 767 314 m 303 699 m 726 253 m 685 240 l 685 361 q 665 461 685 426 l 672 217 q 685 240 672 235 m 642 246 l 642 425 q 618 461 639 442 l 618 204 l 631 204 q 629 226 629 203 q 642 246 629 242 m 600 258 q 599 288 599 271 q 601 332 599 303 q 603 376 603 361 q 571 467 603 440 l 558 401 q 547 440 547 407 q 531 467 547 467 q 519 456 526 467 q 506 443 511 444 q 479 468 506 468 l 429 468 q 428 467 425 467 l 422 204 l 475 204 q 511 222 504 204 q 517 204 517 219 l 526 204 q 547 219 543 204 l 547 247 q 558 276 547 269 q 564 214 563 269 l 565 204 l 572 204 q 588 229 583 204 q 600 258 593 254 m 404 204 l 399 467 l 386 467 l 381 204 l 404 204 m 357 204 l 357 461 l 339 461 l 344 204 l 357 204 m 303 204 l 297 461 l 303 204 z "},"C":{"ha":1129,"x_min":47,"x_max":1082,"o":"m 1035 876 m 993 871 q 981 847 978 857 l 975 1056 q 993 975 993 1029 l 993 871 m 951 1001 l 951 931 q 939 871 951 892 l 939 847 l 926 858 l 926 1074 q 939 1031 939 1068 q 951 1001 939 1010 m 1082 133 l 1075 204 l 1082 133 m 1035 97 m 993 86 q 981 71 982 82 l 981 44 q 974 156 974 93 q 981 271 974 217 l 993 258 l 993 86 m 910 235 l 910 196 q 879 14 910 53 l 868 110 q 838 8 863 104 l 826 3 l 826 35 q 814 63 826 54 q 778 3 811 29 l 779 13 q 761 39 779 39 q 729 1 746 1 q 713 21 719 1 q 676 0 707 0 q 571 32 572 0 l 564 3 l 558 1 q 522 50 532 1 q 508 26 508 49 q 511 3 508 17 q 482 31 492 8 q 463 68 468 63 q 457 54 457 61 q 460 38 457 49 q 464 21 464 26 q 457 8 464 15 q 421 110 433 36 l 415 110 q 410 14 408 92 l 392 39 l 394 46 q 389 65 394 53 q 383 83 383 76 q 386 92 383 88 q 368 163 372 100 q 354 104 354 140 q 363 39 354 82 l 356 32 l 350 39 q 353 49 353 43 q 346 70 353 57 q 338 90 339 83 q 321 222 338 96 l 314 222 q 308 74 308 197 l 308 50 l 281 181 q 267 313 265 253 l 261 313 q 254 235 254 268 q 254 157 254 235 q 256 111 254 163 q 256 81 256 111 q 219 806 226 310 q 232 849 232 821 q 231 865 232 854 l 231 881 q 243 925 231 910 l 242 943 q 256 1025 243 954 q 261 793 251 947 l 267 793 q 303 1056 271 931 q 309 969 310 1026 q 314 883 308 911 q 329 947 326 910 q 332 1014 332 993 q 350 1067 347 1029 l 356 1074 l 363 1067 q 356 1001 356 1026 q 368 942 356 964 q 382 1018 368 967 q 404 1097 401 1086 l 415 996 q 457 1097 431 1036 q 463 1075 465 1089 q 457 1051 460 1058 q 469 1038 457 1043 q 511 1108 485 1090 q 510 1075 510 1113 q 522 1056 510 1058 q 558 1108 532 1100 l 571 1079 q 636 1108 576 1104 q 656 1097 643 1097 q 673 1102 661 1097 q 690 1107 685 1107 q 713 1085 706 1107 l 725 1108 l 754 1085 l 761 1067 l 772 1085 l 772 1103 q 801 1075 790 1097 l 803 1072 q 819 1038 808 1061 q 826 1108 826 1050 q 861 967 853 1083 l 868 967 l 874 1097 q 901 1022 889 1085 q 911 936 911 974 q 897 876 911 899 l 897 847 q 868 918 865 879 q 856 893 856 911 q 858 864 857 878 l 844 847 l 844 853 q 826 876 844 865 l 808 847 l 772 889 l 767 847 l 749 875 q 725 889 740 889 l 713 876 l 719 865 l 713 858 q 690 889 706 890 l 683 889 l 665 871 q 653 890 661 890 q 635 880 647 890 q 618 869 624 869 q 600 889 607 869 l 594 889 q 581 874 586 889 q 571 853 574 854 l 576 835 l 571 829 l 571 861 q 558 889 571 882 q 529 853 539 885 q 535 842 535 849 q 522 824 535 833 l 522 775 l 511 889 q 479 806 479 838 q 481 788 479 796 q 468 733 468 768 q 469 688 468 707 q 469 675 469 671 q 464 746 460 701 q 469 818 467 772 q 457 876 471 850 q 441 835 447 868 q 428 793 435 801 q 421 553 421 676 q 428 313 421 429 q 441 270 435 304 q 457 229 447 236 l 469 240 q 466 322 472 268 q 461 401 460 376 l 463 431 q 472 321 471 331 q 511 222 482 256 l 517 329 q 522 292 522 324 q 535 258 522 267 q 553 217 536 226 l 571 229 l 571 271 q 594 217 574 249 q 613 233 601 233 q 630 228 618 233 q 647 222 642 222 q 665 235 658 222 l 683 217 l 719 246 l 725 217 q 767 271 740 221 l 772 222 q 803 271 790 226 l 808 271 q 820 251 818 271 q 826 229 822 232 q 842 249 833 232 q 856 271 850 267 q 860 257 863 265 q 856 240 857 249 q 868 229 856 232 q 883 249 875 232 q 897 271 892 267 q 910 235 894 242 m 951 92 q 936 58 940 83 q 926 21 931 28 l 926 258 l 939 271 q 951 188 951 239 l 951 92 m 208 140 q 201 121 208 125 q 203 157 203 131 q 189 188 203 178 q 190 240 190 181 q 178 282 190 267 q 183 454 175 340 q 171 540 171 486 q 171 558 171 558 q 172 590 172 592 l 172 639 l 183 651 q 178 728 178 676 l 178 824 q 190 877 188 835 q 201 931 192 919 l 201 983 q 206 563 201 925 q 208 140 208 321 m 154 175 q 144 285 154 179 q 142 394 139 349 l 131 407 l 131 699 l 142 710 l 149 931 l 154 175 m 100 235 q 101 311 101 260 l 101 314 q 95 346 101 325 q 89 378 89 367 l 89 740 q 101 797 101 761 q 101 861 101 861 q 100 875 101 872 q 100 871 100 878 l 100 235 m 53 347 l 47 769 l 53 347 m 410 258 l 410 847 q 401 819 410 838 q 392 790 392 800 q 397 769 392 779 q 385 582 385 697 q 386 479 385 550 q 386 378 388 411 q 397 363 394 372 q 397 342 399 353 q 394 322 396 336 q 402 290 394 311 q 410 258 410 269 m 363 294 q 356 553 356 421 q 363 811 356 685 l 356 817 l 350 811 q 357 774 357 790 q 344 740 357 751 l 344 535 q 350 415 344 494 q 356 294 356 335 l 356 288 l 363 294 m 308 371 l 303 758 l 308 371 m 256 478 l 249 615 l 256 478 z "},"D":{"ha":1129,"x_min":47,"x_max":1082,"o":"m 1082 318 l 1075 769 l 1082 318 m 1040 347 l 1028 336 q 1035 276 1035 308 q 1028 217 1035 243 l 1028 871 q 1035 808 1035 842 q 1028 746 1035 775 l 1040 722 l 1040 347 m 993 240 q 979 201 979 228 q 981 157 979 144 l 975 942 q 999 478 999 721 q 993 240 999 358 m 951 246 q 939 199 940 236 q 926 151 938 161 l 926 104 l 921 139 l 921 949 q 926 983 921 967 l 926 951 q 939 925 926 932 q 938 878 938 931 q 951 835 938 849 q 953 660 951 810 q 953 414 954 544 l 951 246 m 910 271 q 897 217 899 258 q 885 163 896 175 l 879 74 q 873 185 872 111 q 868 294 874 260 l 861 294 q 856 229 856 279 q 844 169 854 185 l 850 128 q 838 94 840 122 q 826 63 835 67 l 826 44 q 818 117 818 79 q 826 193 818 153 l 814 204 q 800 111 817 165 l 772 21 l 772 86 q 767 139 772 119 q 754 104 754 136 q 742 58 754 94 q 725 14 731 21 l 713 104 q 699 55 706 93 q 678 3 693 17 q 672 36 672 7 q 660 63 672 56 q 646 29 646 32 q 624 3 636 10 l 625 10 q 606 39 625 39 q 576 1 585 1 q 558 21 564 1 q 526 1 550 1 q 504 8 515 1 q 428 1 463 1 q 350 1 392 0 l 272 3 l 261 21 l 256 3 l 250 3 q 218 25 218 3 l 218 69 q 207 81 214 76 q 201 3 200 65 l 178 14 l 172 1038 q 178 1074 176 1046 q 196 1097 178 1097 l 201 1097 q 200 1047 200 1104 q 214 1014 200 1025 q 219 1057 219 1022 q 231 1097 221 1088 l 540 1097 l 558 1079 q 576 1099 564 1099 q 597 1078 585 1099 q 613 1056 610 1057 l 618 1097 q 660 1025 661 1054 q 671 1085 672 1033 q 699 1044 693 1076 q 713 996 706 1004 q 719 1085 719 1013 q 754 960 757 1015 l 767 954 q 772 1051 772 971 l 772 1067 q 814 894 806 1013 l 826 907 l 819 1043 q 835 1005 829 1033 q 850 967 842 976 l 849 940 q 853 867 847 910 q 861 793 861 804 l 868 793 q 874 990 874 832 l 874 1025 l 890 922 q 897 817 900 863 l 910 806 l 910 271 m 154 3 l 136 3 l 131 1056 q 136 1078 136 1058 q 149 1097 136 1097 l 154 1097 l 154 3 m 100 3 q 89 56 94 29 l 100 3 m 47 21 m 879 472 l 874 615 l 879 472 m 826 329 l 826 769 q 819 547 819 663 q 826 329 819 433 m 772 264 q 786 549 786 400 q 772 829 786 697 l 772 264 m 744 592 q 719 858 744 756 l 725 235 q 729 267 722 249 q 736 294 736 286 q 744 592 744 324 m 694 288 q 701 547 701 415 q 694 806 701 679 q 683 844 685 811 q 671 883 682 876 l 665 876 q 672 779 672 831 q 665 681 672 726 l 660 681 q 654 746 654 694 q 642 811 654 793 l 643 824 q 638 850 643 829 q 636 876 633 867 q 618 889 628 890 l 618 833 q 613 793 618 810 l 606 793 q 597 847 601 819 q 576 894 590 882 q 564 883 564 892 q 567 870 564 879 q 571 857 571 861 q 558 842 571 847 q 547 868 558 849 q 535 894 535 888 q 526 896 531 896 q 517 884 521 896 q 511 871 513 872 q 476 894 486 894 q 457 883 464 894 q 432 894 449 894 l 428 894 l 421 211 q 476 204 444 204 l 499 204 l 499 217 l 511 222 l 517 204 l 540 204 q 558 253 547 221 q 571 204 571 250 q 606 306 596 214 l 613 306 l 624 204 q 660 419 654 293 l 671 407 q 665 222 674 344 l 671 217 q 683 252 681 222 q 694 288 685 282 m 410 211 l 404 894 l 386 894 l 386 204 l 396 204 q 410 211 410 204 m 356 204 l 356 211 l 344 204 l 356 204 m 308 211 l 303 894 l 297 894 l 290 204 l 297 204 q 308 211 303 206 m 256 204 q 249 889 254 304 l 256 204 z "},"E":{"ha":875,"x_min":47,"x_max":828,"o":"m 774 936 m 732 918 q 719 900 718 904 l 714 907 q 721 1001 722 951 l 719 1097 q 732 1014 732 1067 l 732 918 m 690 931 q 678 900 676 921 l 667 900 l 667 1097 l 678 1097 q 690 1019 690 1068 l 690 931 m 774 472 l 768 626 l 774 472 m 732 485 q 719 453 719 479 l 719 449 l 714 454 q 721 550 721 499 q 714 644 721 600 q 733 575 733 624 q 732 485 733 474 m 690 597 l 690 572 q 678 449 690 542 l 667 449 l 667 644 l 678 644 l 678 618 q 690 597 678 603 m 643 467 q 633 458 642 467 q 618 449 625 449 l 613 644 l 618 644 q 643 633 633 646 q 636 607 636 621 q 642 574 636 596 q 649 540 649 551 q 636 508 649 522 q 643 490 643 501 l 643 467 m 643 8 l 618 3 l 613 21 l 618 26 l 607 39 l 601 3 l 268 3 l 263 21 l 250 14 l 250 3 l 239 0 q 223 15 231 0 q 214 32 215 31 l 221 1074 q 243 1099 221 1099 l 250 1097 l 256 1079 l 268 1085 l 268 1097 l 594 1097 l 607 1049 l 618 1061 l 613 1090 l 636 1097 l 643 1074 l 636 1067 q 650 1003 650 1043 q 643 931 650 975 l 636 925 l 643 907 l 618 900 q 611 924 611 908 q 613 942 611 932 l 618 949 l 607 960 l 594 900 q 501 901 604 901 q 422 894 453 901 q 415 785 415 840 l 417 657 q 472 644 438 644 q 532 646 501 644 l 547 644 l 553 626 l 565 633 l 565 644 l 569 644 q 601 633 601 644 l 601 467 l 589 449 l 565 449 l 560 467 l 547 461 l 547 449 l 422 449 q 415 335 415 393 l 417 204 l 594 199 l 607 169 l 618 181 l 613 193 l 636 199 q 650 107 650 158 q 636 14 650 56 l 643 8 m 821 50 l 821 146 q 828 97 828 124 q 821 50 828 71 m 774 14 l 768 188 q 767 179 767 183 q 776 138 767 165 q 786 96 786 110 q 774 63 786 78 l 774 14 m 732 14 l 719 3 l 714 8 q 721 104 721 49 q 719 171 721 111 q 719 199 719 185 l 732 188 l 732 14 m 690 78 q 678 3 690 29 l 667 3 l 667 199 q 690 78 690 200 m 203 3 l 185 3 q 165 475 164 63 l 167 990 q 172 1021 167 1000 q 176 1051 176 1042 q 172 1079 176 1064 l 196 1097 l 203 3 m 149 3 q 131 50 131 4 l 125 1043 q 137 1071 133 1049 q 149 1097 140 1093 l 149 3 m 101 3 q 81 1046 81 31 q 90 1066 81 1053 q 99 1085 99 1079 q 96 1097 99 1090 l 101 3 m 53 32 l 47 32 l 47 1067 l 53 1067 l 53 32 m 399 651 q 406 772 406 708 q 399 894 406 836 l 386 894 q 381 772 381 836 q 386 651 381 708 l 399 651 m 357 663 q 350 774 350 715 q 357 883 350 831 l 346 894 q 339 772 339 836 q 346 651 339 708 l 357 663 m 304 681 l 297 889 l 304 681 m 244 889 m 404 204 l 404 443 l 381 443 l 381 204 l 404 204 m 357 211 q 350 324 350 264 q 357 436 350 383 q 344 443 354 443 l 339 443 l 339 204 l 346 204 q 357 211 354 204 m 304 229 l 297 443 l 304 229 m 250 204 l 250 443 q 243 324 243 386 q 250 204 243 261 z "},"F":{"ha":826,"x_min":47,"x_max":779,"o":"m 779 936 m 738 918 l 732 918 q 725 913 729 917 l 725 900 q 718 997 718 943 q 725 1097 718 1050 q 738 1015 738 1067 l 738 918 m 696 931 q 683 900 682 921 l 671 900 l 671 1097 l 683 1097 l 683 1081 q 690 1067 683 1071 l 696 931 m 779 514 l 774 597 l 779 514 m 725 461 q 718 547 718 499 q 725 639 718 597 l 725 461 m 683 461 l 671 449 l 671 644 l 678 644 q 683 560 683 611 l 683 510 q 683 461 683 461 m 636 644 q 643 543 643 582 q 629 449 643 486 l 624 449 l 618 644 l 636 644 m 653 1056 q 654 988 654 1067 q 642 931 654 950 l 642 900 l 618 900 l 618 935 q 613 960 618 950 q 600 900 599 953 q 503 901 608 901 q 428 894 457 901 q 421 785 421 851 l 421 657 q 478 644 443 644 q 535 646 506 644 l 553 644 l 558 610 l 571 626 l 571 644 l 594 644 q 601 543 601 582 q 588 449 601 486 l 571 449 l 572 464 q 558 490 572 485 l 558 482 q 514 446 558 446 q 481 449 503 446 q 449 451 460 451 q 428 449 436 451 l 433 449 l 426 44 l 421 44 q 416 244 415 110 q 410 449 417 379 l 386 449 l 381 56 q 368 8 367 51 q 362 228 361 81 q 356 449 363 375 l 344 449 l 339 86 q 326 46 328 76 q 321 3 325 11 q 315 225 314 76 q 308 449 315 374 l 290 449 q 285 228 285 376 q 279 3 286 79 l 261 14 l 261 246 q 256 449 261 367 l 243 436 l 238 3 q 219 25 219 7 l 219 57 l 214 81 q 201 44 199 71 l 207 39 q 196 3 193 29 l 178 14 l 172 1038 q 201 1097 172 1093 l 201 1043 q 214 1014 201 1021 q 219 1053 221 1022 q 223 1092 218 1083 q 239 1099 228 1100 l 256 1097 l 261 1079 l 272 1085 l 272 1097 l 594 1097 q 599 1066 599 1090 q 613 1038 600 1042 q 618 1097 619 1049 l 642 1097 l 640 1082 q 653 1056 640 1061 m 154 3 l 136 8 q 142 21 142 14 q 136 36 142 26 q 131 51 131 46 l 131 1056 q 143 1067 143 1058 q 140 1078 143 1069 q 136 1090 136 1086 q 147 1097 136 1097 l 154 1097 l 154 3 m 107 8 l 100 3 l 89 32 l 89 1067 l 100 1097 l 107 1090 l 103 283 q 107 8 101 14 m 53 21 l 47 1074 l 53 21 m 404 651 q 410 772 410 708 q 404 894 410 836 l 392 894 q 385 772 385 836 q 392 651 385 708 l 404 651 m 350 651 q 357 772 357 708 q 350 894 357 836 q 343 772 343 836 q 350 651 343 708 m 303 651 q 310 772 310 708 q 303 894 310 836 q 290 779 290 850 q 297 651 290 732 l 303 651 m 256 681 l 249 889 l 256 681 z "},"G":{"ha":1278,"x_min":47,"x_max":1231,"o":"m 1178 847 l 1171 942 l 1178 847 m 1129 800 l 1124 1001 q 1133 863 1133 883 q 1129 800 1133 829 m 1088 811 l 1076 800 l 1069 1032 q 1089 933 1089 999 q 1088 811 1089 797 m 1046 811 l 1035 800 l 1022 817 l 1022 1056 q 1047 907 1047 957 q 1047 890 1047 890 q 1046 860 1046 860 l 1046 811 m 1231 313 l 1225 306 l 1225 615 l 1231 313 m 1189 329 q 1176 278 1178 311 q 1178 224 1178 251 l 1178 204 q 1171 419 1171 307 q 1178 639 1171 533 q 1190 494 1190 583 q 1189 413 1190 469 q 1189 329 1188 357 m 1147 371 l 1136 360 l 1138 325 q 1129 146 1132 265 l 1124 644 q 1136 610 1136 642 q 1142 592 1136 597 q 1149 489 1149 550 q 1149 469 1149 469 q 1147 431 1147 432 l 1147 371 m 1106 431 l 1094 419 q 1094 349 1094 419 l 1094 279 q 1088 157 1094 206 q 1076 132 1076 150 l 1076 92 l 1069 644 l 1088 644 l 1088 631 q 1098 549 1088 603 q 1108 468 1108 496 q 1106 431 1108 449 m 707 449 l 696 449 l 696 471 q 683 490 696 485 l 683 557 q 696 615 683 594 l 696 644 l 707 644 l 707 449 m 660 644 q 653 547 653 604 q 654 478 653 540 q 654 449 654 463 q 651 469 653 458 q 642 485 649 481 l 642 569 q 654 644 642 618 l 660 644 m 1022 63 l 1017 68 q 1024 158 1024 114 l 1022 264 l 1011 276 q 975 44 1006 154 q 969 119 968 68 q 963 193 969 169 l 957 193 l 949 104 q 921 21 943 49 q 915 63 915 38 q 921 121 915 88 l 910 133 q 892 50 901 106 q 881 25 881 50 q 868 8 881 11 q 869 53 869 1 q 856 92 869 82 q 821 3 856 67 l 808 63 q 794 25 801 56 q 767 3 789 1 l 761 26 q 719 1 743 1 l 714 3 l 707 21 q 682 3 703 3 l 647 3 l 613 21 l 607 3 l 571 21 l 565 39 l 553 21 l 553 3 l 547 1 q 530 19 539 1 q 517 39 521 36 l 524 50 l 511 63 q 506 3 504 51 q 481 49 496 13 q 457 92 467 85 l 451 8 q 429 69 440 31 q 410 133 415 119 q 399 101 399 121 q 401 74 399 92 q 404 47 404 57 l 399 21 q 388 63 400 35 q 375 106 375 92 q 363 193 375 93 l 357 193 l 350 44 q 338 81 342 50 q 326 121 335 113 q 328 157 328 118 q 315 188 328 178 l 315 239 q 308 276 315 261 l 297 264 l 297 74 q 267 394 271 239 l 256 407 l 250 104 q 225 360 224 175 l 214 371 l 214 740 l 225 751 q 224 783 224 767 q 229 863 224 807 q 232 942 233 913 q 244 967 242 935 q 243 1001 244 969 q 249 850 250 951 q 256 699 249 749 l 267 710 l 267 744 q 297 1038 267 925 l 303 1032 q 296 933 296 985 q 303 835 296 882 l 308 835 q 350 1067 310 910 l 350 979 q 357 913 350 939 q 372 972 367 931 q 386 1032 376 1014 l 383 1042 q 392 1060 383 1049 q 400 1076 400 1071 q 399 1085 400 1081 q 404 1061 404 1076 q 401 1035 404 1053 q 399 1010 399 1018 q 410 978 399 989 q 429 1039 421 992 q 451 1097 436 1082 l 451 1050 q 464 1019 451 1028 q 478 1063 469 1028 q 499 1103 485 1092 q 504 1072 504 1100 q 517 1049 504 1051 l 525 1083 q 547 1108 532 1104 l 546 1100 q 565 1067 544 1068 l 600 1108 l 613 1085 q 632 1107 619 1107 q 661 1096 646 1096 l 683 1108 l 707 1097 q 722 1111 714 1111 q 741 1101 729 1111 q 757 1092 753 1092 q 767 1108 765 1092 q 808 1067 790 1096 l 814 1103 q 863 1049 826 1099 l 868 1097 q 904 1019 890 1083 l 910 1014 q 918 1033 917 1021 q 917 1058 919 1042 q 914 1081 914 1075 l 915 1090 l 921 1097 q 957 967 954 1033 l 963 967 l 969 1074 q 985 1038 969 1071 q 994 1000 994 1015 q 993 983 994 992 l 1004 972 l 1004 817 q 992 804 992 819 q 993 800 992 801 q 982 828 982 800 q 969 847 982 846 q 959 826 969 840 q 949 808 949 813 q 951 800 949 804 q 935 813 939 799 q 933 835 931 822 q 928 864 929 838 q 915 876 926 876 q 910 800 908 863 q 893 813 897 799 q 892 835 889 822 l 883 867 q 868 894 876 889 q 863 800 861 876 q 843 853 851 808 q 814 907 835 899 q 808 829 807 893 q 794 874 797 868 q 767 907 783 901 l 761 858 q 719 907 744 907 l 707 900 l 707 876 l 689 907 l 665 900 l 665 889 q 636 907 651 907 l 631 907 l 618 871 l 618 875 q 596 908 618 908 q 577 885 581 908 q 565 858 574 861 l 565 817 l 553 907 q 518 828 526 888 q 511 735 515 808 l 511 828 q 506 894 511 867 q 476 831 481 875 q 475 758 475 817 l 464 746 l 464 347 q 476 288 476 331 q 482 229 476 240 l 506 211 l 511 360 q 518 272 517 281 q 553 199 526 217 q 558 276 560 213 q 571 228 568 235 q 607 199 582 201 l 613 240 l 631 199 l 660 217 q 676 197 664 197 l 683 199 l 701 229 l 701 224 q 717 197 701 197 l 725 199 l 756 246 l 756 271 l 767 199 q 801 267 796 219 q 803 347 803 272 q 809 270 810 321 q 814 199 808 219 q 844 329 846 203 l 850 329 q 857 379 857 353 l 856 443 l 826 449 l 821 461 l 785 449 q 771 489 774 457 q 767 532 769 500 l 756 449 l 731 454 q 733 479 729 460 q 725 503 735 494 q 725 514 725 514 q 724 557 724 546 q 738 610 724 590 l 731 639 l 761 644 q 756 579 764 622 l 767 568 q 772 611 772 574 q 785 644 772 635 l 1004 644 l 1011 626 l 1022 644 l 1046 644 q 1053 407 1053 529 q 1022 63 1053 167 m 607 472 l 600 626 l 607 472 m 196 146 q 186 238 193 167 q 183 329 182 281 l 172 342 l 172 769 l 183 782 l 190 960 l 196 146 m 149 204 q 129 475 129 308 q 131 631 129 522 q 131 788 132 735 q 143 842 143 807 l 143 900 l 149 204 m 94 300 q 88 554 88 421 q 94 811 88 686 l 94 300 m 47 490 m 1022 389 l 1022 443 q 1015 415 1015 432 q 1022 389 1015 400 m 975 300 m 933 443 l 921 443 q 915 343 915 396 q 921 246 915 289 l 921 288 q 935 360 935 315 q 933 443 935 454 m 892 443 l 868 443 l 874 229 q 879 306 875 254 q 893 369 893 333 q 892 443 893 453 m 451 229 l 451 883 q 428 769 449 842 l 428 469 q 451 229 428 276 m 404 258 l 399 818 q 386 788 399 796 l 386 633 q 380 601 386 622 q 374 569 374 581 q 380 464 374 535 q 386 358 386 393 q 404 258 386 290 m 344 306 l 344 800 q 346 729 346 808 q 333 668 346 690 q 339 553 339 614 q 333 436 339 492 q 346 376 346 415 q 346 315 346 315 q 344 301 346 304 q 344 306 344 299 m 303 407 q 296 556 296 478 q 303 704 296 633 l 297 710 l 297 401 l 303 407 z "},"H":{"ha":1236,"x_min":47,"x_max":1189,"o":"m 1183 81 l 1189 110 q 1183 81 1189 83 m 1135 14 l 1129 1097 l 1135 14 m 1093 21 l 1082 3 l 1075 8 l 1082 1108 l 1093 1074 l 1093 21 m 1051 32 q 1043 17 1043 28 q 1046 3 1043 11 l 1028 14 l 1028 1097 l 1040 1108 l 1046 1097 q 1040 1090 1040 1094 q 1051 1074 1040 1085 l 1051 32 m 1010 1049 l 1004 3 l 986 3 l 988 10 q 968 50 989 38 q 963 26 965 47 q 951 3 960 6 q 938 225 936 83 q 933 449 939 383 l 926 449 l 921 14 l 910 3 l 897 21 l 897 254 q 892 449 897 371 l 868 436 l 868 3 l 861 3 q 856 139 856 81 q 850 449 856 285 l 826 449 q 819 315 819 378 q 814 8 819 172 q 815 53 815 3 q 803 86 815 75 q 796 449 806 207 l 772 449 q 767 110 767 379 l 767 50 l 761 443 l 481 449 l 469 436 q 475 92 467 322 l 469 86 q 473 190 469 121 q 476 293 476 258 q 446 450 476 453 l 428 449 l 433 449 l 426 14 l 421 14 q 415 231 415 86 q 410 449 415 376 l 386 449 l 381 21 l 368 3 q 361 218 361 110 q 368 436 361 325 l 344 449 l 344 314 q 326 3 344 24 l 321 3 q 315 226 314 78 q 308 449 315 375 l 303 449 q 297 231 296 385 q 285 14 299 93 l 290 8 l 272 3 l 274 10 q 256 50 274 38 q 250 27 253 49 q 238 3 247 6 l 219 39 l 231 1103 l 249 1090 l 256 1056 q 272 1083 267 1061 q 279 1108 276 1106 l 290 1097 q 285 1085 285 1093 q 303 651 285 864 l 308 651 l 314 1097 l 326 1108 l 326 1106 q 339 1074 326 1081 l 339 657 l 350 644 l 368 663 q 361 886 361 772 q 368 1108 361 1000 q 382 990 379 1094 q 382 794 383 935 l 381 657 l 404 644 l 415 657 l 415 1097 q 412 978 415 1057 q 408 858 408 899 q 454 644 408 644 l 457 644 l 469 657 l 469 1025 l 475 1019 q 468 856 468 943 l 469 657 l 481 644 l 749 644 l 761 657 q 760 875 760 635 q 767 1056 760 983 l 767 657 l 790 644 l 803 657 l 803 1019 q 815 1056 815 1031 q 814 1097 815 1044 l 819 657 l 844 644 l 856 657 l 856 1097 l 868 1108 l 868 657 l 885 644 l 897 657 q 897 775 899 688 l 896 893 q 910 1108 894 1015 l 921 1097 l 921 853 q 926 651 921 732 l 933 651 l 944 1103 l 954 1103 q 963 1072 963 1104 q 968 1056 963 1060 q 986 1083 982 1060 q 999 1108 990 1107 l 1010 1049 m 207 14 l 196 3 l 183 21 l 189 1103 l 207 1090 l 207 14 m 154 3 l 149 3 l 142 1097 l 154 1108 l 154 3 m 107 14 l 100 8 q 101 53 101 6 q 89 86 101 75 l 89 1025 q 100 1097 101 1036 l 107 14 m 53 50 l 47 1056 l 53 50 z "},"I":{"ha":522,"x_min":47,"x_max":475,"o":"m 475 86 l 469 1038 l 475 86 m 426 8 l 421 8 l 421 1110 l 426 1110 l 426 8 m 385 26 l 367 3 l 367 1115 l 385 1092 l 385 26 m 343 32 l 331 3 l 313 14 l 319 821 q 313 1104 319 1089 l 325 1115 l 343 1086 l 343 32 m 303 57 q 294 34 303 49 q 285 13 285 19 q 288 3 285 8 l 269 8 q 275 18 275 11 q 251 50 275 36 l 240 3 l 222 32 l 222 1086 q 233 1122 238 1094 q 249 1097 244 1118 q 251 1068 250 1083 q 278 1111 278 1093 q 276 1122 278 1117 q 288 1104 288 1121 q 294 1079 289 1083 q 300 568 294 1038 q 303 57 303 333 m 197 3 l 179 21 l 179 1097 l 197 1115 l 197 3 m 156 3 l 138 14 l 138 1104 l 150 1115 l 156 3 m 101 8 l 89 171 l 101 1110 l 101 8 m 47 50 l 53 81 q 47 50 53 54 z "},"J":{"ha":835,"x_min":47,"x_max":788,"o":"m 788 135 l 782 1097 l 788 135 m 746 158 q 732 119 732 146 q 733 75 733 96 l 728 1115 l 746 1086 l 746 158 m 704 193 q 692 165 704 171 l 692 111 q 679 68 692 83 l 685 39 l 679 32 l 679 1122 q 692 1103 690 1122 q 697 1079 693 1083 l 704 193 m 661 224 q 649 194 661 201 q 650 131 650 203 q 638 81 650 99 l 643 44 l 631 14 q 624 136 624 56 q 619 256 625 217 l 613 256 q 606 125 608 146 q 576 3 597 42 l 571 3 q 578 57 578 26 q 571 111 578 86 q 553 58 561 107 q 529 3 544 10 l 517 63 q 501 25 511 57 q 474 1 494 1 l 468 3 l 463 26 l 444 3 q 425 8 436 8 q 408 7 419 8 q 392 6 397 6 q 367 21 374 6 l 360 3 q 318 39 336 1 l 306 26 l 313 3 l 308 1 q 269 81 286 1 l 264 81 q 257 46 256 81 l 258 3 q 237 40 246 13 q 222 75 228 67 l 222 238 l 233 249 q 258 213 240 217 q 265 231 263 215 q 276 249 268 246 q 290 224 281 246 q 313 201 299 203 l 318 238 l 313 243 l 318 249 q 331 226 328 247 q 349 201 335 204 l 360 213 l 354 225 l 367 238 l 390 201 l 408 231 l 408 1079 l 421 213 l 432 201 l 450 219 l 450 1068 q 461 1076 460 1071 q 461 1089 463 1081 q 458 1101 458 1099 q 463 1110 458 1107 l 463 213 l 486 201 l 493 1038 q 499 1085 499 1043 l 511 1115 l 517 207 l 529 201 q 551 568 551 354 q 546 836 551 657 q 540 1104 540 1015 l 558 1115 l 571 1104 l 565 274 l 576 243 l 583 1097 l 594 1115 q 607 1069 607 1110 q 619 1038 607 1046 q 638 1115 622 1064 q 649 1099 649 1115 q 656 1074 647 1078 l 661 224 m 204 8 q 178 114 178 43 q 181 182 178 115 q 179 249 182 221 l 197 249 q 204 138 204 206 l 204 8 m 156 32 q 132 189 132 64 l 138 249 l 156 249 l 156 32 m 101 50 q 89 163 89 101 q 96 249 89 207 q 101 163 101 217 l 101 50 m 53 93 l 47 231 l 53 93 z "},"K":{"ha":1089,"x_min":47,"x_max":1042,"o":"m 986 1086 m 950 942 q 939 918 939 935 l 939 881 l 932 1115 q 951 1040 951 1092 q 950 942 951 931 m 908 960 l 903 960 l 890 826 l 885 1122 q 908 1008 908 1088 l 908 960 m 868 1008 q 854 971 868 983 l 849 839 q 836 813 836 832 q 838 782 836 797 l 836 772 l 831 1086 q 842 1115 844 1097 q 854 1074 854 1111 q 861 1041 854 1063 q 868 1008 868 1019 m 1042 21 q 1035 104 1035 60 q 1042 189 1035 149 l 1042 21 m 1004 39 q 993 6 993 33 l 993 3 l 986 249 q 1000 143 1000 211 q 1004 39 999 64 m 950 3 l 932 3 q 939 76 939 35 q 935 153 939 101 q 932 229 932 204 q 939 303 932 271 q 936 281 936 292 q 945 234 936 265 q 954 188 954 203 q 950 165 954 176 q 964 99 964 138 q 957 51 964 82 q 950 3 950 19 m 921 68 q 910 22 910 63 q 900 7 910 7 l 890 8 q 897 17 897 13 q 891 26 897 19 q 885 39 885 32 l 885 351 q 921 68 896 257 m 867 207 l 867 67 q 860 3 867 35 q 842 42 843 7 q 831 81 842 76 q 818 3 829 79 q 794 104 794 22 q 782 140 794 135 l 776 3 l 758 14 l 761 32 q 753 56 761 40 q 746 81 746 72 q 751 99 746 89 q 733 194 747 131 l 728 194 q 722 36 722 164 l 722 8 q 697 117 719 46 l 700 142 q 690 199 700 161 q 679 256 679 236 l 674 256 q 667 194 667 229 q 672 119 667 176 q 674 44 676 72 q 638 297 643 157 l 625 310 l 619 97 q 611 143 621 114 q 601 186 601 172 q 607 213 601 200 q 596 258 596 224 q 583 303 596 293 q 585 338 585 301 q 571 357 585 354 q 564 261 564 308 q 571 165 564 214 l 565 158 l 565 154 l 560 165 l 565 207 q 553 249 554 215 q 542 292 553 282 l 535 411 l 524 424 l 517 207 q 495 340 499 249 q 475 472 492 431 l 469 472 q 464 293 469 435 l 463 267 l 454 331 q 451 393 449 369 q 433 465 439 401 l 421 454 l 421 44 q 414 172 414 107 q 421 303 414 236 q 408 349 408 314 q 397 393 408 383 l 397 425 q 390 454 397 444 l 379 442 l 379 211 q 367 8 379 88 l 367 375 q 353 406 357 382 q 349 442 351 424 l 336 429 q 343 271 343 367 l 343 86 q 331 44 331 78 q 318 3 331 11 q 313 253 311 76 q 300 501 314 413 l 294 501 q 288 253 288 419 q 282 3 289 86 l 271 3 q 265 242 264 82 q 258 483 265 403 l 253 483 l 246 21 l 235 3 l 228 3 l 217 68 q 197 3 200 57 l 179 14 l 181 32 q 168 57 182 50 l 174 1061 q 179 1103 176 1064 q 192 1117 181 1117 l 197 1115 q 201 1074 199 1113 q 217 1038 203 1047 q 222 1082 222 1047 q 235 1122 222 1113 q 247 1046 244 1096 q 249 956 250 1003 l 246 875 q 253 689 246 764 l 258 689 q 265 902 265 760 q 271 1115 264 1044 l 282 1115 q 288 895 289 1042 q 294 676 288 749 l 300 676 q 313 863 313 753 l 313 1115 q 332 1093 329 1117 q 342 781 333 1081 l 343 731 q 367 911 364 742 q 367 1110 367 911 q 372 1083 372 1107 q 385 1061 372 1067 q 378 890 378 975 q 385 718 378 804 q 414 853 410 731 q 413 1008 413 822 q 421 1079 413 1051 q 426 707 418 956 q 457 899 442 713 q 463 799 464 865 q 469 700 463 732 q 486 775 486 706 q 501 869 486 803 q 511 965 515 931 q 517 857 518 929 q 524 749 517 785 l 535 761 l 542 881 l 547 881 l 547 888 q 556 935 547 904 q 565 981 565 965 q 560 1007 565 994 l 565 1014 l 571 1007 q 565 914 565 975 l 565 821 l 578 808 l 578 815 q 599 944 578 854 q 614 1074 618 1026 l 619 1079 l 619 1053 q 625 863 619 964 l 632 863 l 668 1110 q 675 1067 675 1090 q 672 1022 675 1051 q 668 978 668 993 q 679 924 668 947 q 693 1021 685 943 q 715 1115 700 1082 q 722 1046 724 1093 q 728 978 721 999 q 740 1028 740 985 q 751 1061 740 1053 l 746 1092 l 764 1115 q 776 1072 776 1106 q 782 1025 776 1035 q 794 1086 796 1033 l 788 1092 l 806 1115 l 818 1104 q 811 1011 811 1057 q 818 917 811 964 q 806 878 807 910 q 794 839 806 847 l 796 819 q 792 785 797 810 q 786 750 786 761 q 788 731 786 740 l 782 725 l 782 831 q 776 917 782 888 q 756 843 768 915 q 744 754 744 778 q 746 736 744 742 q 733 671 732 728 q 727 772 726 704 q 722 869 728 839 l 710 857 l 704 749 q 692 710 692 742 q 679 671 692 678 l 679 622 q 676 699 674 654 q 681 775 682 761 l 679 803 l 668 815 q 647 701 665 782 q 631 586 631 628 q 650 496 631 536 l 647 471 q 658 419 647 454 q 668 364 669 383 l 679 375 q 674 568 683 440 q 699 443 688 522 l 715 315 l 722 315 l 728 515 q 738 471 728 500 q 747 428 747 442 q 740 400 747 413 q 752 360 751 392 q 764 321 753 329 l 764 290 q 769 261 764 271 l 782 274 l 782 465 q 787 428 789 457 q 794 393 785 400 q 793 361 793 397 q 806 333 793 342 l 813 213 l 824 201 l 831 406 q 847 314 832 388 q 854 219 858 260 l 867 207 m 156 3 l 138 3 l 138 13 q 125 50 138 35 l 132 1038 q 125 1060 125 1049 q 135 1092 125 1072 q 150 1122 149 1117 l 156 3 m 101 3 l 89 57 l 101 3 m 47 1097 m 619 424 l 619 633 q 614 754 619 699 l 614 717 q 601 689 614 697 q 608 671 608 682 q 607 646 608 644 q 594 596 594 626 q 607 544 594 564 l 607 538 q 601 501 608 524 q 614 462 614 493 q 619 424 614 431 m 571 700 l 565 707 l 560 700 q 561 678 561 690 q 556 626 561 661 q 551 575 551 592 q 553 550 551 563 q 567 519 567 542 q 565 483 567 497 q 571 700 563 557 m 517 538 l 511 653 l 517 538 z "},"L":{"ha":883,"x_min":47,"x_max":836,"o":"m 650 3 l 625 3 l 619 39 l 607 21 l 607 3 l 276 3 l 269 26 l 258 21 l 258 3 l 233 3 q 224 522 225 14 l 222 1097 l 233 1115 l 240 1115 l 251 1038 q 268 1078 264 1050 q 276 1122 271 1093 q 294 1068 294 1115 l 300 207 l 313 201 l 318 1122 q 331 1103 329 1122 q 336 1079 332 1083 l 342 207 l 360 201 l 367 1115 l 385 1086 l 385 207 l 408 201 l 421 213 l 426 207 l 607 201 l 613 171 q 626 188 622 171 q 638 204 631 204 l 650 201 q 663 124 663 172 q 650 3 663 22 m 836 50 l 831 147 l 836 50 m 794 75 l 782 8 l 782 189 l 794 75 m 746 14 l 733 3 q 728 100 728 46 q 733 201 728 154 l 746 189 l 746 14 m 704 21 l 701 21 q 692 14 699 21 l 692 3 l 679 3 l 679 201 q 697 188 689 201 q 704 165 704 175 l 704 21 m 210 8 l 192 3 q 181 525 182 17 l 179 1104 l 197 1115 l 210 8 m 156 3 l 138 14 l 132 1014 q 150 1115 132 1097 l 156 3 m 101 8 q 89 93 96 51 l 101 8 m 53 44 l 47 1079 l 53 44 z "},"M":{"ha":1564,"x_min":47,"x_max":1517,"o":"m 1378 21 l 1367 3 l 1360 3 l 1367 406 l 1378 393 l 1378 21 m 1421 8 l 1403 3 q 1408 218 1408 99 q 1403 460 1408 274 q 1400 701 1399 617 l 1403 826 l 1408 472 l 1421 460 l 1421 8 m 1475 75 q 1463 43 1463 67 q 1457 8 1461 15 l 1457 519 l 1463 153 q 1475 118 1475 142 l 1475 75 m 1511 50 l 1511 207 q 1517 131 1517 175 q 1511 50 1517 86 m 1335 57 l 1324 14 l 1329 3 l 1311 14 l 1306 63 q 1288 3 1283 38 l 1269 3 q 1263 180 1263 61 q 1257 357 1264 299 l 1251 357 l 1244 14 l 1233 3 q 1221 119 1221 49 q 1222 178 1221 132 q 1222 238 1224 215 l 1221 279 l 1208 292 q 1203 713 1211 432 l 1197 713 l 1190 3 q 1179 58 1182 28 q 1179 175 1181 99 l 1179 207 l 1167 219 q 1161 646 1169 361 l 1154 646 q 1142 328 1142 526 q 1136 8 1142 81 q 1125 394 1125 153 q 1113 617 1125 529 l 1107 617 l 1100 406 l 1089 393 l 1089 81 q 1083 364 1082 163 q 1071 646 1085 544 l 1064 646 l 1058 436 l 1046 424 l 1046 219 l 1028 689 l 1022 689 l 1017 478 l 1004 465 l 1006 396 q 1001 224 1007 325 l 992 50 l 992 713 l 981 718 l 974 508 l 963 496 q 968 297 960 429 l 956 285 l 956 75 q 944 8 943 65 q 938 276 938 97 q 932 544 939 456 l 919 532 q 926 339 917 468 l 914 321 l 914 117 q 901 58 901 100 q 896 3 901 17 q 890 179 889 61 q 883 357 890 297 l 878 357 q 860 50 876 271 l 854 3 l 836 14 l 836 111 q 829 183 836 150 l 824 183 l 811 3 l 793 3 l 788 39 l 769 21 l 769 3 l 751 3 q 745 93 744 32 q 739 183 746 154 l 733 183 q 728 38 728 158 l 728 14 l 715 3 q 703 74 703 19 q 692 147 703 129 q 685 357 694 218 l 679 357 l 674 3 l 667 3 q 644 272 649 118 l 638 544 l 631 544 q 625 276 625 456 q 619 8 625 97 q 601 496 596 246 l 589 508 q 583 718 592 579 l 576 718 l 571 50 l 558 465 l 547 478 l 547 594 q 540 689 547 651 l 535 689 l 522 219 l 517 424 l 504 436 l 506 551 q 499 646 506 607 l 493 646 q 481 406 481 547 q 482 283 481 379 q 482 163 483 208 l 481 86 l 475 393 l 463 406 l 463 522 q 457 617 463 579 l 444 604 q 451 589 451 597 q 439 556 451 572 q 433 285 439 463 q 426 22 426 107 l 426 8 l 414 640 l 403 646 l 396 219 l 385 207 l 378 3 l 372 707 l 360 713 l 354 292 l 342 279 l 336 3 l 318 14 l 318 203 q 313 357 318 296 l 306 357 q 303 204 300 301 l 306 50 l 294 3 l 276 3 l 276 18 q 258 63 276 42 q 253 22 253 57 q 233 3 253 1 l 228 32 l 228 333 l 240 346 l 246 1007 q 253 1050 246 1019 q 258 1097 261 1081 l 269 274 l 282 285 q 276 635 285 401 l 288 653 l 288 1014 q 300 1063 300 1024 q 313 1104 300 1093 l 306 1115 q 313 960 313 1032 l 313 739 q 318 586 313 675 l 324 586 q 333 821 325 669 q 342 1053 342 978 q 360 1122 342 1101 q 366 1008 367 1085 q 372 893 365 931 l 385 906 q 383 1022 383 892 q 403 1115 383 1082 l 426 1068 q 432 1086 432 1072 l 432 1107 q 442 1117 433 1117 l 450 1115 q 456 1079 456 1110 q 468 1061 456 1064 q 474 1101 474 1067 q 493 1115 474 1118 q 513 1050 510 1092 q 511 979 511 1088 l 517 924 l 529 935 l 529 1115 q 551 1029 547 1117 q 554 921 553 975 q 558 761 561 815 l 571 749 l 576 1115 q 601 967 599 1103 q 601 797 601 967 l 613 785 l 613 669 q 619 574 613 611 l 625 574 l 631 1097 q 643 914 643 1056 q 649 768 643 869 q 656 622 653 701 l 667 610 l 667 492 q 674 406 667 442 l 685 863 l 697 851 l 697 653 l 710 640 q 708 567 713 611 q 703 493 703 508 l 710 442 l 715 442 q 735 635 735 525 q 733 732 735 661 q 732 829 731 793 l 733 893 l 751 472 q 769 514 769 472 q 782 718 769 657 l 788 519 q 800 486 800 517 q 811 472 800 474 l 829 893 l 829 550 q 842 482 842 538 q 854 442 842 453 l 865 851 l 872 851 l 878 1038 l 890 406 l 901 418 q 896 604 904 481 q 910 708 910 646 q 908 792 910 756 q 908 815 908 822 l 919 826 l 919 936 q 926 1011 919 958 q 932 1086 933 1060 q 938 574 929 915 l 944 574 l 950 785 l 963 797 l 963 953 q 981 1115 963 1076 q 988 932 988 1051 q 992 749 986 807 l 1004 761 l 1003 808 q 1010 1074 1008 896 q 1022 1106 1022 1078 q 1035 1122 1022 1118 l 1040 1115 q 1035 1033 1035 1083 l 1035 935 l 1046 924 l 1053 1068 q 1064 1081 1063 1068 l 1065 1106 q 1075 1117 1065 1117 l 1082 1115 q 1088 1079 1088 1110 q 1100 1061 1088 1064 q 1106 1101 1106 1067 q 1125 1115 1106 1118 l 1136 1068 q 1161 1115 1157 1081 l 1172 1104 q 1178 1000 1179 1076 q 1190 893 1178 929 q 1197 1008 1197 931 q 1203 1122 1196 1085 q 1221 1086 1221 1122 q 1239 586 1221 783 l 1244 586 l 1251 1115 q 1263 1054 1263 1107 q 1275 1014 1263 1026 l 1275 653 l 1288 640 l 1288 443 q 1293 274 1288 342 l 1306 285 l 1299 1097 q 1319 936 1319 1035 q 1317 851 1319 928 q 1317 768 1317 851 l 1317 713 l 1329 700 l 1335 57 m 210 8 l 204 3 l 186 21 l 186 393 l 197 406 l 210 8 m 161 3 l 143 14 l 143 454 l 156 465 l 156 826 l 161 3 m 107 8 q 99 49 107 22 q 92 90 92 76 q 96 111 92 101 l 96 131 q 89 140 96 138 l 101 153 l 101 519 l 107 8 m 60 201 q 53 126 53 169 q 53 50 54 56 l 47 57 q 54 129 54 90 q 47 201 54 168 l 53 207 l 60 201 z "},"N":{"ha":1196,"x_min":47,"x_max":1149,"o":"m 1149 32 l 1143 1086 l 1149 32 m 1110 54 q 1101 34 1110 47 q 1092 14 1092 21 q 1094 3 1092 8 l 1089 1115 q 1110 54 1110 1088 m 1065 65 q 1056 34 1065 54 q 1046 3 1046 14 l 1040 1115 q 1053 1096 1051 1115 q 1058 1074 1054 1076 q 1063 569 1058 1001 q 1065 65 1065 281 m 1022 104 q 1010 8 1014 74 l 1004 3 l 986 26 l 986 1092 q 993 1106 986 1094 q 1003 1117 1000 1117 q 1017 1043 1004 1086 l 1022 104 m 974 14 l 963 3 q 947 32 943 10 q 950 50 950 49 l 938 81 q 933 48 933 74 q 919 14 932 22 l 919 3 l 914 3 q 902 78 914 28 q 890 153 890 128 l 883 153 l 878 3 q 865 38 865 4 q 860 57 865 50 q 848 135 860 83 q 836 213 836 186 l 829 213 q 828 125 824 182 q 831 36 832 65 l 829 3 q 804 143 814 57 l 788 285 l 782 285 l 772 56 q 765 133 772 74 q 751 194 757 192 l 754 221 q 743 285 754 242 q 733 351 732 328 l 721 339 l 721 104 q 722 143 721 111 q 710 176 722 167 l 692 411 l 679 424 l 674 165 q 649 393 663 240 q 637 440 636 404 q 625 483 638 476 q 619 275 619 444 l 619 238 l 607 382 q 594 430 594 393 q 583 478 594 467 q 589 544 581 501 l 576 556 l 565 544 q 572 421 572 486 q 565 297 572 356 q 553 447 568 351 q 536 597 536 551 q 522 628 536 621 l 511 375 l 504 514 q 493 563 493 525 q 481 610 493 600 q 482 653 482 604 q 468 689 482 681 q 463 571 463 635 q 468 436 463 508 q 432 682 457 518 l 421 671 l 421 496 l 408 508 l 403 646 l 390 658 l 390 314 q 372 3 389 19 l 360 640 l 349 646 l 342 44 q 328 21 328 39 q 331 3 328 13 l 318 3 l 318 635 l 306 640 l 300 50 q 288 19 288 50 q 282 3 288 7 q 267 42 272 11 q 251 81 261 72 l 240 3 l 222 26 l 222 1097 q 228 1106 225 1097 q 233 1115 231 1115 q 246 1081 246 1115 q 258 1050 246 1054 q 269 1085 258 1061 q 276 1122 279 1108 q 288 1089 288 1117 q 300 1056 289 1061 q 299 1010 299 1061 q 313 978 299 986 l 318 1122 q 331 1103 329 1122 q 336 1079 332 1083 q 344 1001 338 1060 q 349 924 350 954 l 360 911 l 367 1115 q 390 935 392 1069 q 402 889 403 925 q 414 844 401 853 l 426 1097 q 435 976 426 1053 q 444 857 443 890 q 457 814 457 846 q 463 767 457 778 l 475 779 q 468 908 468 842 q 475 1038 468 976 q 472 1013 472 1025 q 482 947 472 994 q 486 881 490 906 l 499 869 l 504 718 l 517 707 l 522 965 q 528 896 522 942 q 535 826 535 850 q 547 797 535 803 q 544 772 544 785 q 556 705 544 750 q 565 635 567 660 l 576 646 l 576 893 q 576 849 578 892 q 589 808 575 822 q 588 764 588 815 q 601 725 588 738 q 604 650 599 696 q 613 574 613 581 l 619 574 l 631 826 l 649 592 q 661 546 661 582 q 674 501 661 510 l 685 754 l 692 604 q 703 538 703 592 q 710 483 703 515 q 721 429 721 432 l 733 442 q 726 550 726 490 l 728 682 q 746 572 743 642 l 751 460 l 764 447 l 769 1086 l 775 635 l 788 622 l 786 594 q 792 528 785 574 q 800 460 797 494 l 806 460 l 811 1074 q 826 1099 826 1079 q 824 1115 826 1106 l 836 478 l 847 472 l 854 1068 q 865 1104 865 1072 q 878 1122 865 1118 l 878 496 l 890 490 l 896 1038 q 914 1115 910 1047 l 932 1092 l 938 418 l 950 429 l 944 1104 l 963 1115 l 974 1104 l 974 14 m 210 14 l 192 3 l 179 14 l 179 1104 l 192 1115 l 210 1092 l 210 14 m 156 3 q 140 15 144 6 q 140 36 139 24 q 143 57 143 57 q 138 69 143 61 q 132 81 132 76 l 132 1038 q 143 1064 143 1046 l 143 1094 l 150 1115 l 156 3 m 104 29 q 89 50 104 47 l 89 1068 q 101 1086 100 1072 l 101 1110 l 107 1104 l 104 29 m 53 44 l 47 1079 l 53 44 z "},"O":{"ha":1299,"x_min":47,"x_max":1251,"o":"m 1251 369 q 1244 553 1244 458 q 1251 736 1244 647 l 1251 369 m 1208 436 l 1203 261 l 1197 863 l 1208 436 m 1172 478 l 1161 465 l 1161 279 q 1147 236 1147 265 q 1149 199 1147 214 q 1149 189 1149 185 l 1149 935 q 1149 925 1149 939 q 1147 885 1147 908 q 1161 839 1147 854 l 1161 653 l 1172 640 l 1172 478 m 1118 303 q 1114 250 1119 285 q 1107 194 1107 210 q 1094 135 1107 143 l 1094 983 q 1117 644 1115 824 q 1118 303 1117 531 m 1076 321 q 1064 213 1074 303 q 1053 165 1063 199 q 1043 114 1043 132 q 1046 93 1043 103 l 1035 339 l 1022 328 l 1024 297 q 1017 147 1018 247 q 997 76 997 110 q 999 57 997 67 l 992 50 l 986 57 q 993 140 993 92 l 992 225 l 981 238 q 968 161 979 207 l 950 86 q 956 68 956 81 q 938 32 956 53 l 939 108 q 932 171 939 143 l 926 171 q 890 21 922 94 q 883 44 883 31 q 887 70 883 53 q 890 96 890 88 q 878 122 890 111 q 836 8 872 51 l 836 50 q 824 81 836 74 q 816 60 822 76 q 810 36 810 44 q 811 26 810 31 l 788 3 l 775 50 q 758 21 769 47 q 733 3 750 1 l 728 26 q 686 1 711 1 q 667 8 675 1 q 640 6 658 8 q 614 3 622 3 q 576 21 592 3 l 571 3 l 564 0 q 535 32 542 0 l 522 39 l 517 3 q 492 32 500 8 q 475 68 481 63 q 468 3 468 57 q 444 53 458 14 q 421 99 429 92 q 414 8 414 82 q 396 61 413 25 q 379 115 379 97 q 385 140 379 129 l 372 153 l 360 140 l 367 32 q 349 65 356 39 q 336 99 343 92 q 342 118 342 108 q 335 149 342 129 q 328 179 328 169 q 331 194 328 188 l 318 207 q 311 139 311 178 q 313 78 311 100 q 313 69 313 58 l 313 50 q 301 92 304 61 q 288 135 299 124 q 289 174 289 132 q 276 201 289 193 q 276 251 276 251 q 264 297 276 286 q 257 186 257 242 q 264 75 257 131 q 228 269 232 147 q 222 472 228 269 l 215 472 l 210 122 q 201 170 211 139 q 192 215 192 201 q 197 243 192 231 q 183 325 193 250 q 174 418 174 400 l 174 707 q 183 797 174 728 q 197 875 192 865 q 190 917 190 899 q 199 957 190 929 q 204 1001 207 985 q 210 823 211 942 q 215 646 208 704 l 222 646 l 233 929 q 246 968 244 936 q 258 1007 247 1000 l 258 833 l 269 821 l 269 829 q 283 949 269 878 q 306 1068 304 1054 q 313 992 314 1043 q 318 917 311 940 q 331 963 331 924 q 342 1001 331 992 q 360 1079 340 1054 l 360 1086 l 363 1076 q 367 1040 368 1056 l 360 989 l 372 978 l 385 989 l 378 1019 l 414 1110 l 414 1057 q 426 1019 414 1031 q 463 1115 429 1071 q 468 1079 468 1111 q 481 1050 468 1054 q 490 1089 485 1068 q 511 1115 496 1110 l 510 1107 q 529 1079 510 1079 q 567 1119 553 1119 q 576 1097 576 1119 q 596 1119 585 1119 q 625 1110 611 1110 q 649 1122 642 1110 l 661 1122 l 674 1097 q 699 1119 688 1119 q 728 1092 708 1119 l 733 1122 q 760 1100 751 1119 q 775 1068 771 1072 l 782 1115 l 811 1092 l 829 1038 q 836 1110 838 1051 q 865 1057 863 1061 q 878 996 874 1035 q 890 1025 890 1007 q 885 1053 890 1033 q 882 1081 881 1072 l 883 1097 q 911 1024 903 1069 q 926 947 925 953 l 932 947 l 938 1086 q 961 981 961 1056 q 974 953 961 961 q 974 911 974 911 q 986 875 974 883 q 993 963 993 918 q 986 1050 993 1007 l 992 1056 l 999 1050 q 1007 914 994 1015 q 1022 779 1022 792 l 1035 767 l 1040 1025 q 1064 808 1067 967 l 1076 797 l 1076 321 m 156 165 q 147 194 147 181 q 156 225 147 210 q 143 329 143 247 q 137 438 143 365 q 131 549 131 511 l 132 743 q 143 818 143 764 q 156 893 143 872 q 147 929 147 911 q 156 965 147 947 l 156 165 m 107 231 q 89 482 89 326 q 90 628 89 521 q 89 772 92 719 q 101 822 101 792 q 100 875 101 849 l 101 893 l 107 231 m 53 321 l 47 797 l 53 321 m 999 357 q 992 553 992 453 q 999 749 992 654 l 992 754 l 986 749 q 993 553 993 654 q 986 357 993 453 l 992 351 l 999 357 m 956 382 q 950 556 950 467 q 956 731 950 646 q 944 781 944 743 q 938 826 943 818 l 944 279 q 943 335 943 272 q 956 382 943 365 m 914 406 l 915 493 q 883 869 918 701 q 889 376 883 754 l 890 292 q 901 349 901 306 q 914 406 901 392 m 872 436 l 872 682 l 860 694 l 863 729 q 853 815 865 758 q 836 899 838 885 l 829 635 l 824 635 q 818 772 818 660 l 818 797 l 806 808 q 808 838 808 824 q 782 911 808 876 l 775 779 q 764 815 764 785 q 769 835 769 825 q 760 864 769 846 q 751 893 751 882 l 746 911 l 733 911 l 733 874 q 728 844 733 856 q 710 878 717 853 q 697 911 704 903 q 682 900 688 911 q 674 881 675 883 q 660 899 667 883 q 649 914 654 914 q 638 911 643 914 l 631 893 l 613 911 l 608 911 q 590 890 596 911 q 583 863 585 869 q 571 911 569 865 q 529 808 542 897 q 517 853 517 824 l 517 911 q 506 890 507 908 q 493 869 504 872 l 481 718 l 475 718 q 469 872 475 749 l 468 899 q 446 850 449 875 q 444 796 444 849 q 432 736 444 757 l 432 375 l 444 364 l 444 333 q 468 219 444 251 l 475 400 l 481 400 q 488 300 483 367 q 517 207 492 240 q 515 265 515 200 q 529 310 515 294 l 535 303 l 535 288 q 567 207 535 207 l 571 207 l 571 235 q 576 256 571 249 q 591 231 586 253 q 607 207 596 210 l 631 225 l 638 207 l 656 207 q 674 238 658 218 q 697 207 686 207 q 713 236 707 215 q 721 267 717 251 q 733 226 733 264 l 739 207 q 760 250 760 249 q 757 261 760 256 q 765 282 765 268 q 764 296 765 286 l 764 310 q 775 339 764 331 q 781 274 782 318 q 788 207 779 229 q 799 238 789 215 q 810 271 810 260 q 806 297 810 282 q 818 389 819 329 q 824 483 817 458 l 829 483 q 835 351 836 439 q 842 219 835 263 l 847 297 q 860 367 860 315 q 872 436 860 418 m 414 225 l 414 881 q 403 818 404 864 q 390 754 401 772 l 390 351 q 403 288 401 333 q 414 225 404 243 m 360 267 q 367 558 367 411 q 360 851 367 707 l 354 779 l 349 779 l 349 346 q 361 314 360 335 q 360 278 360 296 l 360 267 m 313 321 q 313 583 313 321 q 306 797 313 713 q 301 653 301 731 q 313 321 301 639 m 258 436 q 265 561 265 494 q 258 682 265 628 l 258 436 z "},"P":{"ha":1040,"x_min":47,"x_max":993,"o":"m 993 581 l 986 899 l 993 581 m 950 599 l 950 881 q 938 925 938 897 q 939 983 938 997 l 939 496 q 938 554 938 489 q 950 599 938 583 m 908 628 q 902 576 908 613 q 896 519 896 539 q 890 465 896 486 l 896 465 l 896 447 l 890 447 l 885 1025 q 896 863 899 888 l 908 851 l 908 628 m 860 532 q 849 500 849 522 l 849 454 q 836 411 836 456 q 831 1056 839 626 q 867 738 867 933 q 860 532 867 661 m 818 544 q 806 499 807 535 q 794 454 806 464 l 788 393 q 781 475 781 421 q 776 556 782 529 l 769 556 q 733 382 765 463 l 722 483 q 707 425 715 472 q 679 369 700 385 q 681 414 681 364 q 668 442 681 435 q 632 369 663 392 q 626 399 626 374 q 614 411 626 411 q 608 385 613 410 q 578 369 604 367 l 565 393 q 536 368 563 368 l 529 369 q 514 382 524 382 q 497 372 510 382 q 475 364 483 361 l 475 81 l 469 364 l 433 369 q 427 189 426 310 q 421 8 428 68 l 421 203 q 415 369 421 303 l 390 369 l 385 26 l 367 3 l 367 199 q 361 369 367 301 l 349 369 l 349 176 q 331 3 346 19 l 325 3 q 319 186 318 64 q 313 369 319 308 l 307 369 l 300 44 q 286 21 286 39 q 289 3 286 13 l 276 3 q 258 50 279 38 q 246 21 246 50 q 240 3 246 7 l 222 32 l 222 1086 q 233 1100 226 1088 q 246 1113 240 1113 l 258 1110 l 264 1079 l 276 1092 l 276 1110 l 547 1110 l 565 1092 l 578 1110 q 590 1111 582 1111 q 607 1091 599 1111 q 619 1068 615 1071 l 625 1110 l 650 1097 q 657 1065 653 1075 q 674 1038 663 1047 q 679 1110 681 1051 q 707 1054 700 1094 q 722 996 715 1007 l 728 1097 q 769 924 758 1056 l 776 924 q 783 1019 783 961 q 782 1065 782 1051 l 782 1086 q 821 840 821 997 q 817 692 821 822 q 818 544 814 603 m 199 3 l 181 21 l 181 1086 q 190 1099 188 1088 q 197 1111 193 1111 l 204 1110 l 199 3 m 156 3 l 138 14 l 138 1092 l 150 1110 l 156 3 m 101 8 l 90 171 l 101 1097 l 101 8 m 47 50 l 53 81 q 47 50 53 54 m 782 700 q 789 739 789 718 q 782 779 789 761 l 782 700 m 733 610 l 728 869 l 733 610 m 692 622 l 692 863 q 679 893 678 874 l 674 893 l 674 592 l 679 592 l 686 599 l 679 604 l 679 608 q 685 616 679 611 q 692 622 692 621 m 650 628 l 650 844 q 644 857 650 846 q 638 874 638 868 q 643 888 638 882 q 628 900 631 900 l 625 899 l 632 581 q 643 599 638 586 q 638 610 638 604 q 650 628 638 615 m 601 888 q 578 906 594 896 l 578 856 q 565 808 578 824 q 558 865 564 811 q 535 907 554 907 q 523 894 528 907 q 517 881 518 882 l 515 881 q 503 894 507 881 q 496 907 500 907 q 488 906 492 907 l 481 581 l 506 581 l 506 592 q 514 599 513 599 q 524 581 524 599 l 547 581 l 547 592 q 560 632 560 601 q 565 671 560 663 l 578 658 q 579 646 579 653 q 577 624 579 639 q 575 601 575 608 q 589 581 575 582 q 610 728 610 639 q 601 888 610 750 m 463 581 q 464 754 465 717 l 463 782 q 457 906 461 825 l 433 906 l 433 581 l 463 581 m 415 581 l 415 782 q 408 906 415 850 l 397 906 l 390 581 l 415 581 m 361 581 l 361 782 q 354 906 361 850 l 349 581 l 361 581 m 307 899 z "},"Q":{"ha":1372,"x_min":47,"x_max":1325,"o":"m 1278 393 l 1272 676 l 1278 393 m 1238 539 q 1229 422 1238 500 q 1221 306 1221 344 q 1225 250 1221 276 l 1218 818 q 1224 703 1224 790 q 1231 621 1224 675 q 1238 539 1238 567 m 1194 -33 q 1183 -69 1181 -42 l 1171 -57 l 1171 889 q 1183 507 1183 749 q 1178 156 1183 353 q 1196 65 1196 124 q 1194 -33 1196 -42 m 1325 1 q 1318 25 1318 11 q 1325 50 1318 40 l 1325 1 m 1278 -33 m 1225 -69 l 1218 156 q 1238 49 1238 117 q 1225 -69 1238 -10 m 1153 -28 q 1139 -51 1139 -33 q 1142 -69 1139 -60 q 1131 -36 1132 -65 q 1113 -17 1131 -17 q 1099 -39 1100 -17 q 1100 -69 1097 -57 q 1088 -45 1089 -65 q 1076 -22 1088 -25 l 1071 19 q 1058 -1 1058 13 q 1062 -20 1058 -7 q 1065 -39 1065 -33 q 1053 -64 1065 -54 l 1053 -69 q 1035 0 1036 -57 q 1018 43 1035 32 q 1013 -54 1018 25 l 1011 -69 q 976 50 1000 -29 q 963 3 964 33 q 958 -46 960 -33 l 960 -32 q 951 6 961 -18 q 940 43 940 31 l 906 -4 l 899 43 l 882 14 q 867 7 867 13 q 869 1 868 4 q 856 32 869 35 l 846 32 q 817 -4 844 10 l 818 18 q 804 43 819 42 q 769 -10 794 -1 l 769 -1 q 751 19 769 22 l 722 -10 q 701 -3 714 -3 q 687 -4 696 -3 q 672 -6 678 -6 q 651 1 660 -6 l 639 -10 l 615 14 l 597 -10 l 563 32 l 550 -10 q 526 18 536 -3 q 510 50 513 46 l 503 -4 q 463 85 474 24 q 450 61 450 76 q 453 40 450 54 q 457 19 457 25 q 450 1 457 10 q 415 132 417 68 l 408 132 l 403 14 l 376 99 q 361 186 363 149 l 349 174 l 356 38 q 339 79 344 47 q 325 121 333 111 l 326 142 q 319 257 321 179 l 308 268 l 301 67 q 275 197 285 94 q 260 399 275 271 l 254 399 l 249 97 q 232 229 249 100 q 225 363 222 306 l 213 375 l 213 724 q 243 989 231 753 q 250 839 250 938 q 254 688 249 735 l 260 688 q 272 832 260 733 q 283 978 285 926 q 299 1003 299 983 q 296 1019 299 1010 q 302 917 303 985 q 308 818 301 850 l 319 829 l 325 972 q 349 1054 340 988 l 356 1049 q 349 986 349 1025 l 349 913 l 361 901 q 374 988 361 942 q 397 1072 382 1015 l 408 965 q 431 1021 417 974 q 450 1083 447 1075 q 456 1054 458 1072 q 450 1022 453 1035 q 463 1001 450 1010 q 497 1090 471 1050 l 497 1078 q 515 1036 497 1040 q 550 1096 521 1079 l 563 1054 q 597 1096 581 1083 l 615 1072 l 639 1096 l 675 1090 l 681 1096 l 704 1072 q 715 1086 711 1074 q 726 1099 719 1099 q 757 1067 738 1099 l 757 1075 q 775 1096 757 1099 q 811 1036 786 1075 l 817 1090 q 842 1049 832 1078 q 858 1001 854 1007 l 864 1083 q 885 1050 879 1078 q 899 1013 890 1022 l 897 990 q 911 965 896 968 l 917 1072 q 928 1044 926 1067 q 935 1013 932 1018 q 947 963 935 996 q 958 913 958 929 q 969 954 969 929 q 967 988 969 965 q 964 1021 964 1010 l 971 1054 q 1000 836 1004 904 l 1011 829 l 1018 1031 q 1032 982 1032 1000 q 1029 965 1032 972 q 1039 901 1033 953 q 1053 847 1043 857 l 1053 771 q 1058 718 1053 740 l 1071 729 l 1069 975 q 1077 933 1069 961 q 1085 892 1085 906 q 1082 878 1085 885 l 1094 865 q 1101 532 1101 701 q 1094 197 1101 361 l 1082 192 q 1098 129 1092 172 q 1113 67 1104 86 l 1118 949 q 1144 561 1144 790 q 1142 385 1144 503 q 1140 210 1140 268 q 1142 97 1140 149 q 1154 39 1154 76 q 1153 -28 1154 -37 m 201 154 q 196 144 201 147 q 196 185 196 185 q 183 221 196 211 q 176 486 176 314 q 172 753 178 669 q 183 815 183 769 q 196 878 183 861 l 196 949 l 201 154 m 149 197 q 135 532 135 339 q 142 889 135 651 l 149 197 m 94 286 l 94 800 q 101 543 101 674 q 94 286 101 411 m 47 481 m 982 381 l 982 694 q 969 738 971 710 q 971 786 971 763 l 971 800 l 964 393 q 979 381 979 381 l 982 381 m 1024 375 l 1018 718 l 1024 375 m 940 410 l 940 664 l 929 676 l 917 847 l 917 422 q 929 411 929 418 q 926 401 929 407 q 922 390 922 394 q 929 381 922 385 l 928 388 q 940 410 928 400 m 899 469 l 899 617 l 888 629 l 889 671 q 869 871 892 758 l 864 433 q 888 369 889 418 q 894 393 894 379 q 891 417 894 401 q 888 440 888 432 q 899 469 888 458 m 1065 126 l 1065 261 q 1058 339 1065 306 l 1058 221 q 1047 197 1046 211 l 1047 192 q 1058 146 1058 185 q 1065 126 1058 132 m 1011 179 l 1011 186 l 1006 226 l 1011 179 m 846 369 q 846 489 844 410 l 847 608 q 835 829 847 746 q 829 863 829 836 q 817 889 829 882 l 811 742 l 804 742 q 794 818 799 794 q 764 889 785 864 l 764 847 q 757 813 764 825 q 744 832 744 814 q 746 860 746 803 q 737 878 746 867 q 721 889 728 889 l 717 889 l 717 871 l 704 853 q 697 867 697 857 q 699 878 697 871 q 679 889 688 889 l 675 889 l 669 871 q 640 889 647 889 q 624 872 629 889 q 610 853 618 854 q 604 889 603 858 q 576 851 582 885 q 563 800 571 810 l 550 889 q 515 718 519 810 l 510 718 q 503 799 503 744 q 497 878 504 853 l 492 829 q 479 783 479 819 q 468 735 479 746 q 467 476 467 767 q 486 257 467 339 q 491 232 490 253 q 503 210 492 211 l 510 357 q 521 321 521 347 l 521 268 q 533 226 533 264 q 557 197 549 197 q 556 247 556 188 q 563 286 556 271 q 574 263 578 274 q 578 231 578 256 q 604 197 578 196 q 603 217 603 193 q 610 233 603 228 q 622 215 619 233 q 640 196 624 196 q 653 206 644 196 q 669 215 663 215 l 675 197 l 679 197 q 699 210 689 197 q 686 251 686 218 q 675 292 686 283 q 672 313 672 301 q 681 351 672 326 q 689 390 689 376 q 686 410 689 400 l 710 428 q 715 235 710 389 l 717 197 l 721 197 q 740 210 729 197 l 740 214 q 728 239 740 229 l 728 410 l 746 428 q 753 410 750 425 q 764 393 756 396 l 764 197 l 781 203 q 768 296 768 239 q 768 315 768 300 q 769 350 769 335 q 769 404 769 350 l 788 428 q 804 357 806 414 l 822 428 q 849 382 849 393 l 846 369 m 817 197 q 818 222 818 207 l 818 229 q 817 250 818 242 l 817 197 m 450 215 l 444 829 l 439 829 l 439 785 q 426 753 439 764 q 426 624 428 708 l 425 493 q 439 263 425 353 q 450 243 450 258 l 450 215 m 403 250 l 397 836 l 392 629 l 379 617 l 379 469 l 392 457 q 390 344 390 476 q 403 250 390 283 m 349 297 l 349 789 q 350 721 350 765 l 350 718 q 338 664 350 683 l 338 422 q 350 368 350 401 q 350 356 350 367 q 349 333 349 343 q 349 297 349 333 m 301 393 l 296 694 l 301 393 m 657 215 q 648 274 657 235 q 639 332 639 313 q 645 361 639 343 q 651 381 651 379 l 651 422 q 657 329 657 388 l 657 215 m 610 274 q 603 326 603 294 q 604 369 603 351 q 604 381 604 385 l 597 375 q 604 322 604 353 q 604 268 603 272 l 610 274 z "},"R":{"ha":1024,"x_min":47,"x_max":976,"o":"m 976 682 l 969 806 l 976 682 m 929 575 l 922 949 l 929 575 m 888 582 l 881 582 q 875 529 875 571 l 875 522 l 869 1001 q 889 808 889 929 l 888 582 m 846 606 q 832 550 833 585 q 828 493 829 499 l 822 1043 q 833 975 833 1025 q 846 907 833 925 l 846 606 m 976 56 q 969 103 969 76 q 976 150 969 129 l 976 56 m 804 624 q 792 543 804 601 q 769 469 779 481 l 769 563 q 763 640 769 610 l 757 640 l 746 504 q 733 478 735 500 q 722 451 731 456 l 722 514 q 710 558 722 544 q 675 451 706 500 q 710 221 679 331 l 722 233 l 722 422 l 718 399 q 727 357 718 385 q 736 315 736 329 q 733 297 736 307 l 746 286 q 757 163 743 267 l 763 163 l 769 369 q 789 231 771 326 q 806 93 806 142 q 793 -4 806 40 q 778 19 782 -3 l 775 50 q 751 8 758 43 l 757 1 l 746 -10 q 733 52 746 11 q 722 115 721 93 q 714 93 715 107 q 715 69 714 85 q 717 47 717 54 q 704 -4 717 3 q 681 82 686 26 q 675 174 678 128 l 668 174 l 663 -4 q 650 58 650 6 q 639 97 650 85 q 642 118 642 107 q 631 174 642 136 q 621 233 619 213 l 615 233 q 608 160 610 196 q 608 86 608 131 q 610 42 608 69 q 610 14 610 21 l 610 49 q 597 74 610 65 q 600 104 600 88 q 590 195 600 135 q 579 286 579 256 l 568 297 l 563 67 q 544 172 547 110 l 539 281 q 526 319 526 288 q 514 357 526 351 q 508 164 508 315 l 508 126 l 496 268 q 484 322 485 282 q 472 375 483 361 l 479 404 l 467 417 q 462 303 461 381 q 456 186 463 226 l 438 399 l 425 410 l 419 25 l 414 239 l 401 250 l 403 276 q 399 338 404 303 q 390 399 390 390 l 385 399 l 378 38 q 365 13 365 32 q 367 -4 365 6 l 361 8 q 367 153 367 58 l 367 297 q 356 343 356 307 q 343 386 356 379 l 338 43 q 319 -4 324 40 q 313 183 313 58 q 307 369 314 307 l 301 369 l 296 74 q 290 26 290 68 q 278 -4 290 6 l 260 19 q 265 417 257 151 l 254 428 l 242 417 q 249 225 249 338 l 249 8 l 231 -4 l 218 8 l 225 1072 l 254 1083 l 260 1067 l 283 1083 l 496 1083 l 508 1072 l 539 1083 l 563 1067 l 568 1083 l 574 1085 q 610 1043 596 1086 q 621 1054 621 1046 q 618 1065 621 1057 q 615 1078 615 1074 q 626 1085 615 1085 l 633 1083 q 647 1049 640 1076 q 663 1013 653 1021 q 668 1083 669 1025 q 703 988 703 1051 q 715 965 703 968 q 722 1072 722 985 q 750 975 747 1032 q 751 871 750 940 l 763 860 l 769 1060 q 791 976 778 1047 q 804 883 804 906 l 804 624 m 935 74 l 922 1 l 922 210 l 935 74 m 888 14 q 875 -4 875 -1 q 868 128 868 56 q 875 263 868 199 l 875 225 q 888 197 875 206 l 888 14 m 846 14 q 833 -4 833 1 l 828 -4 l 822 310 q 838 186 824 289 q 847 63 847 115 q 846 14 847 38 m 207 19 l 189 -4 q 169 472 169 54 l 171 989 q 178 1024 171 1001 q 185 1058 185 1047 q 183 1072 185 1065 l 201 1083 l 207 19 m 154 -4 q 136 43 136 -1 l 131 1031 q 142 1083 143 1038 l 154 1083 l 154 -4 m 107 -4 q 86 1035 86 25 q 94 1055 86 1042 q 103 1074 103 1068 q 100 1083 103 1079 l 107 -4 m 53 25 l 47 1060 l 53 25 m 722 653 l 722 740 q 715 658 722 689 l 722 653 m 668 611 q 682 742 682 671 q 668 871 682 811 l 668 611 m 644 776 q 633 828 633 788 q 615 878 633 869 l 621 606 q 637 678 626 635 q 647 747 647 722 q 644 776 647 763 m 593 775 q 574 883 593 843 q 567 742 567 815 q 574 599 567 668 q 584 617 575 604 q 593 638 593 629 l 593 775 m 550 635 q 551 769 551 619 q 532 883 551 842 l 524 883 q 514 857 514 883 q 508 842 514 846 l 496 853 l 497 860 q 486 882 497 882 q 469 876 482 882 q 450 869 457 869 q 432 883 439 869 q 425 742 425 815 q 432 599 425 668 q 458 607 447 607 q 485 599 469 607 q 496 625 496 603 q 508 640 496 638 q 514 608 514 636 l 514 606 q 528 597 524 597 q 538 615 532 597 q 550 635 543 632 m 401 599 q 408 742 408 668 q 401 883 408 815 l 390 883 q 383 742 383 815 q 390 599 383 668 l 401 599 m 361 611 l 361 871 l 349 883 q 342 742 342 815 q 349 599 342 668 l 361 611 m 307 606 l 301 878 l 307 606 m 663 281 l 663 417 q 657 504 663 467 l 657 496 q 647 467 657 486 q 638 438 638 447 q 663 281 638 413 m 610 328 q 615 368 615 344 q 610 417 615 378 l 610 475 q 597 438 597 458 q 605 394 597 422 q 613 351 613 367 q 610 328 613 339 m 260 611 q 253 742 253 674 q 260 871 253 810 l 254 878 l 249 871 q 254 742 254 810 q 249 611 254 674 l 254 606 l 260 611 m 563 393 l 556 451 l 563 393 z "},"S":{"ha":1024,"x_min":47,"x_max":976,"o":"m 875 865 l 869 1019 l 875 865 m 835 996 l 828 847 l 822 1054 l 835 996 m 786 847 l 769 847 l 769 1072 q 793 925 793 1010 q 786 847 793 885 m 746 847 l 728 847 q 722 949 722 890 l 722 1083 q 730 1061 721 1075 q 739 1043 739 1047 q 749 910 749 989 q 746 847 749 878 m 976 239 q 969 336 969 285 q 976 433 969 388 l 976 239 m 935 274 l 929 139 l 922 522 l 935 274 m 888 156 l 882 156 q 876 97 881 144 l 875 85 l 869 575 q 889 383 889 504 l 888 156 m 846 168 q 832 110 835 150 q 822 56 829 69 l 822 606 q 832 551 829 590 q 846 493 835 511 l 846 168 m 804 186 q 786 56 804 163 l 775 43 l 775 25 q 769 114 768 54 q 763 203 769 174 l 757 203 l 746 67 q 722 1 733 53 l 722 96 q 710 126 722 119 q 675 -4 706 56 l 663 74 q 646 29 656 65 q 615 -4 639 1 q 618 13 614 3 q 622 26 622 22 q 610 43 622 33 q 574 -10 604 3 q 568 10 568 -7 q 557 19 568 21 q 526 -10 551 -4 q 513 0 521 0 q 497 -5 507 0 q 483 -10 488 -10 q 468 1 474 -10 q 446 -10 456 -10 q 414 14 438 -10 l 403 -10 q 384 6 394 -10 q 369 21 374 21 q 356 14 363 21 l 361 -4 l 353 -6 q 328 19 338 -6 l 318 44 q 310 24 314 44 q 308 -4 307 3 q 267 74 267 50 l 261 74 q 254 42 254 74 l 254 1 q 225 150 225 44 q 231 263 225 210 q 245 247 238 261 q 260 232 253 232 q 272 239 265 232 l 272 263 q 291 242 282 261 q 303 222 300 222 q 314 233 307 222 l 314 250 l 319 251 q 338 232 329 251 q 356 210 346 213 q 365 231 369 214 q 364 242 364 236 q 367 250 364 247 q 382 229 372 247 q 403 210 392 211 l 414 239 q 430 224 424 239 q 444 210 436 210 l 468 233 l 492 215 q 508 250 510 222 l 507 242 q 519 221 507 232 q 532 210 532 210 q 544 215 542 208 l 544 232 q 550 244 544 242 q 558 346 558 329 q 539 440 558 406 l 539 444 q 521 481 539 458 q 507 447 508 471 q 508 410 508 460 q 468 499 500 442 q 461 440 461 489 q 421 517 432 475 l 414 517 q 408 451 407 517 q 388 497 404 468 q 367 540 371 525 q 356 521 356 532 q 359 504 356 515 q 363 488 363 493 q 356 469 363 476 q 335 517 354 483 q 319 569 317 550 l 314 569 q 307 536 306 569 l 308 493 q 267 629 271 542 l 261 629 q 254 569 254 600 q 261 511 254 540 l 254 504 q 242 536 242 522 q 243 546 242 542 l 238 551 q 224 757 224 636 q 231 983 224 832 q 243 1022 243 992 q 254 1060 243 1053 q 250 1067 250 1060 q 254 1072 250 1072 l 261 1067 q 254 989 254 1031 q 261 913 254 949 q 279 983 269 917 q 283 1017 283 989 q 296 1049 283 1040 q 303 1083 307 1068 l 314 983 q 333 1046 324 994 q 356 1092 343 1092 l 361 1090 q 361 1067 365 1081 q 356 1044 356 1049 q 367 1025 356 1032 l 403 1096 q 408 1069 408 1092 q 421 1054 408 1056 q 456 1096 421 1079 l 468 1072 q 500 1094 489 1094 q 515 1083 508 1094 q 535 1090 525 1090 q 557 1078 547 1090 l 574 1096 q 610 1054 592 1085 q 621 1065 621 1058 q 618 1076 621 1068 q 615 1088 615 1083 q 628 1096 615 1094 q 643 1063 629 1088 q 657 1025 657 1039 l 663 1025 q 668 1090 669 1025 q 707 992 707 1061 q 704 925 707 972 q 704 860 701 882 l 692 847 l 668 865 l 651 836 q 621 878 649 850 l 610 847 l 615 842 l 610 836 q 593 861 607 838 q 568 878 583 878 l 563 847 q 526 878 544 879 l 515 853 l 492 878 l 468 853 q 474 746 471 839 q 508 647 475 679 q 515 706 515 657 q 538 667 526 697 q 563 629 550 636 q 568 688 569 639 l 610 606 q 619 635 622 614 q 615 665 617 656 q 614 667 614 674 l 615 676 q 651 588 646 646 l 663 575 l 668 658 l 704 582 l 703 563 q 710 535 701 543 q 722 578 722 549 q 715 629 722 600 l 722 635 q 751 475 757 569 l 763 464 q 768 603 763 493 l 769 624 q 793 493 794 592 l 804 481 l 804 186 m 207 522 q 182 700 182 588 q 183 918 182 858 q 190 1001 190 974 l 196 1001 l 201 1043 l 207 522 m 154 540 q 142 623 142 564 q 131 706 143 682 l 131 767 q 143 818 131 800 q 142 922 142 804 q 154 1013 142 979 l 154 540 m 101 582 q 101 633 101 582 q 89 676 101 661 l 89 860 q 101 901 101 874 q 100 946 101 924 l 101 960 q 108 772 108 871 q 101 582 108 681 m 54 647 m 207 14 q 182 117 182 49 q 185 183 182 118 q 183 250 186 222 l 196 263 q 208 144 208 218 q 207 14 208 -4 m 154 32 q 142 79 143 43 q 131 126 142 115 l 131 192 l 136 192 l 143 250 l 154 250 l 154 32 m 107 56 q 89 182 89 114 l 89 210 q 101 225 100 213 l 101 250 q 107 165 107 219 l 107 56 m 54 97 q 47 157 47 121 q 54 221 47 193 l 54 97 m 461 664 q 463 774 463 650 q 450 871 463 835 l 432 853 l 438 847 q 439 821 439 851 q 426 800 439 806 q 425 767 425 804 q 438 742 425 749 q 439 724 439 740 q 432 711 439 715 l 461 664 m 408 682 l 408 871 q 397 838 397 867 q 385 818 397 822 q 383 794 383 806 q 393 738 383 769 q 408 682 407 689 m 361 706 l 361 810 q 356 871 361 843 l 356 849 q 343 829 356 835 q 344 811 344 822 q 343 785 344 803 q 342 758 342 767 q 361 706 342 719 m 308 724 l 303 836 l 308 724 m 722 393 q 717 382 717 388 q 720 370 717 378 q 724 358 724 363 q 722 354 724 357 l 722 393 m 686 375 l 668 422 l 675 281 q 681 346 678 285 q 686 375 682 363 m 644 357 q 633 401 633 367 q 621 446 633 436 q 615 331 615 390 q 621 215 615 269 l 621 226 q 635 263 635 238 q 633 304 633 299 q 646 326 646 310 q 644 357 646 365 m 592 410 q 580 437 582 415 q 568 464 578 458 l 574 215 q 593 301 593 243 q 592 410 593 422 z "},"T":{"ha":1022,"x_min":47,"x_max":975,"o":"m 975 931 l 969 1043 l 975 931 m 933 942 q 921 918 921 936 q 922 889 922 904 q 915 985 915 931 q 922 1083 915 1038 q 928 1024 922 1064 q 935 965 935 985 q 933 942 935 954 m 893 978 l 886 978 l 875 889 l 869 1083 q 881 1037 881 1074 q 893 989 881 1000 l 893 978 m 839 1072 q 840 981 842 1060 l 839 961 q 833 889 838 936 l 815 889 l 821 1083 l 825 1085 q 839 1072 821 1085 m 201 889 q 196 888 199 888 q 178 901 190 888 l 178 1072 q 196 1085 190 1085 q 201 1083 197 1085 l 201 889 m 154 889 q 133 937 136 899 q 124 983 129 975 q 133 1030 128 1006 q 136 1072 139 1054 l 147 1083 q 154 994 154 1049 l 154 889 m 100 889 q 88 985 88 928 q 100 1083 88 1040 l 100 889 m 797 1067 l 792 889 l 768 889 l 757 907 l 750 889 l 721 878 l 726 878 l 726 43 l 721 43 l 715 878 l 692 889 l 679 878 l 679 79 q 668 1 667 68 l 663 878 l 639 889 l 626 878 l 621 -4 l 615 878 q 603 886 614 886 q 585 878 594 886 l 579 -4 l 561 8 l 556 883 l 543 871 q 546 610 543 882 q 546 219 549 372 q 532 -4 543 13 l 519 25 l 526 32 l 514 43 q 499 19 500 38 q 490 -10 496 -4 l 479 1 q 485 15 485 7 q 478 447 485 160 q 472 878 472 733 l 461 883 l 449 -4 l 432 25 l 432 878 l 419 889 l 401 871 l 408 -4 l 390 14 l 390 878 l 367 889 l 354 878 l 361 878 l 361 1 l 354 1 l 349 878 l 319 889 l 301 871 l 307 79 l 301 74 l 296 79 q 304 294 296 71 q 311 622 311 482 q 283 889 311 868 l 272 889 l 260 907 l 254 889 l 247 889 q 217 933 219 889 q 218 1004 218 914 q 231 1083 218 1053 l 240 1088 q 254 1076 246 1088 q 265 1065 263 1065 q 272 1083 269 1065 l 744 1083 q 750 1065 750 1083 q 758 1054 750 1054 l 763 1054 l 768 1083 l 774 1085 q 797 1067 786 1085 m 53 925 l 47 918 l 47 1054 l 53 925 z "},"U":{"ha":1176,"x_min":47,"x_max":1129,"o":"m 1129 250 l 1124 1072 l 1129 250 m 1088 274 q 1075 222 1075 254 q 1076 168 1076 194 l 1071 1090 l 1088 1060 l 1088 274 m 1047 292 q 1035 230 1035 276 q 1024 168 1035 183 l 1024 115 l 1017 150 l 1024 1096 q 1040 1054 1040 1094 l 1047 292 m 1006 328 q 993 256 993 308 q 982 186 993 204 q 979 129 985 163 q 969 74 971 76 q 971 235 971 57 q 964 369 971 315 l 958 369 q 953 281 951 347 q 940 192 953 221 q 944 158 944 176 q 936 100 944 135 l 922 43 q 915 129 915 86 q 922 215 915 174 l 911 226 q 875 25 907 121 q 869 92 868 47 q 864 156 869 136 q 843 86 856 153 q 822 1 829 13 l 810 103 q 769 -4 793 57 l 771 22 l 757 61 q 722 -4 750 19 l 722 4 q 704 32 725 32 q 675 -10 701 18 l 657 14 q 629 -7 633 -7 q 615 1 622 -7 l 592 -10 l 568 14 q 556 0 563 11 q 543 -11 550 -11 l 539 -10 q 515 32 535 6 l 503 -10 q 479 18 490 -3 q 461 50 464 46 q 456 26 456 42 l 456 -4 q 414 85 421 39 q 403 61 403 76 q 406 40 403 54 q 408 19 408 26 q 403 1 408 10 q 390 33 390 6 q 379 50 390 46 q 376 93 378 85 q 361 132 372 119 l 354 14 q 343 48 344 21 q 331 85 342 75 q 314 186 324 118 l 307 186 q 300 114 300 150 q 307 43 300 79 l 301 38 l 282 153 q 272 274 274 211 l 260 286 l 254 67 q 231 163 244 86 q 218 268 218 239 l 218 1060 l 231 1090 q 243 1069 242 1089 q 249 1043 243 1046 l 272 1067 l 272 1096 q 283 1079 283 1096 q 289 1054 282 1058 l 301 304 l 314 315 l 307 1078 l 319 1090 l 338 1060 l 343 250 l 354 244 l 361 1090 l 372 1072 l 372 351 q 385 277 372 338 q 403 210 397 217 l 414 221 l 414 393 q 426 324 426 375 q 438 257 426 274 q 456 192 435 211 l 468 281 q 482 231 476 269 q 508 192 488 199 q 515 281 515 207 q 522 233 519 244 q 544 192 529 208 l 563 226 q 597 192 576 189 l 603 221 q 639 192 621 189 q 649 217 639 200 q 658 240 658 233 q 657 250 658 246 q 663 226 665 243 q 658 203 657 204 q 681 192 660 192 q 704 321 706 226 q 710 256 711 300 q 715 192 708 213 l 739 215 q 733 224 733 219 q 746 244 733 235 q 744 279 744 242 q 757 310 744 301 l 763 614 q 757 215 767 233 l 769 203 q 786 292 790 268 l 793 292 l 810 1083 l 810 226 l 822 224 q 828 258 828 224 q 833 274 828 269 l 846 1078 l 857 1090 l 869 263 l 881 274 l 888 1078 l 904 1090 l 911 363 l 922 351 l 929 1072 l 940 1090 l 946 1090 l 958 1013 q 969 1049 969 1017 q 982 1072 969 1067 l 982 1090 q 994 1069 993 1089 q 1000 1043 994 1046 l 1006 328 m 201 97 l 189 226 l 178 239 l 178 1072 l 194 1090 l 201 97 m 156 161 q 147 144 156 149 q 149 188 147 143 q 136 226 149 215 l 136 1078 l 147 1090 q 151 625 149 985 q 156 161 156 226 m 100 210 q 88 644 88 418 q 100 1083 88 871 l 100 210 m 53 321 l 47 1043 l 53 321 z "}}}
